<svg xmlns="http://www.w3.org/2000/svg" width="960" height="540" viewBox="0 0 960 540">
<rect width="960" height="540" fill="#F7EFE3"/>
<text x="32" y="56" font-size="24" font-family="'EB Garamond',Georgia,serif" fill="#31261D" font-weight="600">Workforce crowds the central and south camps</text>
<polygon points="192,128 516,117.2 552,200 372,225.2 177.6,210.8" fill="#EBE3D7" stroke="#F7EFE3" stroke-width="2"/>
<polygon points="177.6,210.8 372,225.2 336,326 156,318.8" fill="#EBE3D7" stroke="#F7EFE3" stroke-width="2"/>
<polygon points="372,225.2 552,200 609.6,290 336,326" fill="#EBE3D7" stroke="#F7EFE3" stroke-width="2"/>
<polygon points="552,200 782.4,182 804,308 609.6,290" fill="#EBE3D7" stroke="#F7EFE3" stroke-width="2"/>
<polygon points="336,326 609.6,290 804,308 768,434 300,426.8" fill="#EBE3D7" stroke="#F7EFE3" stroke-width="2"/>
<circle cx="395.04" cy="270.56" r="2.5" fill="#C4572E"/>
<circle cx="523.2" cy="248.24" r="2.5" fill="#C4572E"/>
<circle cx="389.28" cy="259.4" r="2.5" fill="#C4572E"/>
<circle cx="492.96" cy="288.92" r="2.5" fill="#C4572E"/>
<circle cx="395.76" cy="228.44" r="2.5" fill="#C4572E"/>
<circle cx="505.92" cy="273.08" r="2.5" fill="#C4572E"/>
<circle cx="554.16" cy="286.04" r="2.5" fill="#C4572E"/>
<circle cx="459.84" cy="254.36" r="2.5" fill="#C4572E"/>
<circle cx="613.92" cy="254" r="2.5" fill="#C4572E"/>
<circle cx="420.24" cy="232.4" r="2.5" fill="#C4572E"/>
<circle cx="471.36" cy="264.8" r="2.5" fill="#C4572E"/>
<circle cx="445.44" cy="259.76" r="2.5" fill="#C4572E"/>
<circle cx="481.44" cy="278.48" r="2.5" fill="#C4572E"/>
<circle cx="528.96" cy="266.6" r="2.5" fill="#C4572E"/>
<circle cx="362.64" cy="278.84" r="2.5" fill="#C4572E"/>
<circle cx="383.52" cy="256.88" r="2.5" fill="#C4572E"/>
<circle cx="380.64" cy="261.2" r="2.5" fill="#C4572E"/>
<circle cx="420.96" cy="266.6" r="2.5" fill="#C4572E"/>
<circle cx="655.68" cy="260.12" r="2.5" fill="#C4572E"/>
<circle cx="513.84" cy="227.72" r="2.5" fill="#C4572E"/>
<circle cx="449.04" cy="277.76" r="2.5" fill="#C4572E"/>
<circle cx="460.56" cy="270.56" r="2.5" fill="#C4572E"/>
<circle cx="471.36" cy="236" r="2.5" fill="#C4572E"/>
<circle cx="498" cy="240.68" r="2.5" fill="#C4572E"/>
<circle cx="573.6" cy="248.6" r="2.5" fill="#C4572E"/>
<circle cx="505.2" cy="261.2" r="2.5" fill="#C4572E"/>
<circle cx="520.32" cy="246.08" r="2.5" fill="#C4572E"/>
<circle cx="523.2" cy="257.96" r="2.5" fill="#C4572E"/>
<circle cx="538.32" cy="277.04" r="2.5" fill="#C4572E"/>
<circle cx="473.52" cy="241.4" r="2.5" fill="#C4572E"/>
<circle cx="509.52" cy="273.08" r="2.5" fill="#C4572E"/>
<circle cx="559.92" cy="251.84" r="2.5" fill="#C4572E"/>
<circle cx="497.28" cy="274.16" r="2.5" fill="#C4572E"/>
<circle cx="482.16" cy="266.6" r="2.5" fill="#C4572E"/>
<circle cx="476.4" cy="246.08" r="2.5" fill="#C4572E"/>
<circle cx="407.28" cy="251.12" r="2.5" fill="#C4572E"/>
<circle cx="499.44" cy="299.36" r="2.5" fill="#C4572E"/>
<circle cx="521.76" cy="287.84" r="2.5" fill="#C4572E"/>
<circle cx="510.24" cy="278.84" r="2.5" fill="#C4572E"/>
<circle cx="476.4" cy="280.64" r="2.5" fill="#C4572E"/>
<circle cx="567.84" cy="252.92" r="2.5" fill="#C4572E"/>
<circle cx="425.28" cy="310.52" r="2.5" fill="#C4572E"/>
<circle cx="480" cy="285.68" r="2.5" fill="#C4572E"/>
<circle cx="516" cy="232.4" r="2.5" fill="#C4572E"/>
<circle cx="606" cy="305.84" r="2.5" fill="#C4572E"/>
<circle cx="475.68" cy="280.28" r="2.5" fill="#C4572E"/>
<circle cx="472.8" cy="238.88" r="2.5" fill="#C4572E"/>
<circle cx="459.12" cy="270.56" r="2.5" fill="#C4572E"/>
<circle cx="529.68" cy="279.2" r="2.5" fill="#C4572E"/>
<circle cx="469.2" cy="295.4" r="2.5" fill="#C4572E"/>
<circle cx="421.68" cy="281.36" r="2.5" fill="#C4572E"/>
<circle cx="529.68" cy="254" r="2.5" fill="#C4572E"/>
<circle cx="362.64" cy="238.52" r="2.5" fill="#C4572E"/>
<circle cx="479.28" cy="274.52" r="2.5" fill="#C4572E"/>
<circle cx="554.88" cy="236" r="2.5" fill="#C4572E"/>
<circle cx="465.6" cy="277.4" r="2.5" fill="#C4572E"/>
<circle cx="456.24" cy="201.44" r="2.5" fill="#C4572E"/>
<circle cx="512.4" cy="319.52" r="2.5" fill="#C4572E"/>
<circle cx="523.2" cy="238.16" r="2.5" fill="#C4572E"/>
<circle cx="441.84" cy="266.96" r="2.5" fill="#C4572E"/>
<circle cx="608.88" cy="276.68" r="2.5" fill="#C4572E"/>
<circle cx="472.08" cy="300.44" r="2.5" fill="#C4572E"/>
<circle cx="460.56" cy="308" r="2.5" fill="#C4572E"/>
<circle cx="426" cy="249.32" r="2.5" fill="#C4572E"/>
<circle cx="507.36" cy="297.2" r="2.5" fill="#C4572E"/>
<circle cx="503.04" cy="268.76" r="2.5" fill="#C4572E"/>
<circle cx="360.48" cy="243.2" r="2.5" fill="#C4572E"/>
<circle cx="430.32" cy="247.88" r="2.5" fill="#C4572E"/>
<circle cx="499.44" cy="252.92" r="2.5" fill="#C4572E"/>
<circle cx="510.96" cy="263.36" r="2.5" fill="#C4572E"/>
<circle cx="446.16" cy="264.08" r="2.5" fill="#C4572E"/>
<circle cx="490.08" cy="282.8" r="2.5" fill="#C4572E"/>
<circle cx="438.24" cy="255.44" r="2.5" fill="#C4572E"/>
<circle cx="387.12" cy="301.52" r="2.5" fill="#C4572E"/>
<circle cx="549.12" cy="256.52" r="2.5" fill="#C4572E"/>
<circle cx="438.24" cy="229.88" r="2.5" fill="#C4572E"/>
<circle cx="475.68" cy="266.24" r="2.5" fill="#C4572E"/>
<circle cx="591.6" cy="267.32" r="2.5" fill="#C4572E"/>
<circle cx="420.96" cy="199.64" r="2.5" fill="#C4572E"/>
<circle cx="546.96" cy="265.88" r="2.5" fill="#C4572E"/>
<circle cx="372.72" cy="265.88" r="2.5" fill="#C4572E"/>
<circle cx="372.72" cy="349.04" r="2.5" fill="#C4572E"/>
<circle cx="530.4" cy="275.6" r="2.5" fill="#C4572E"/>
<circle cx="455.52" cy="207.2" r="2.5" fill="#C4572E"/>
<circle cx="458.4" cy="221.96" r="2.5" fill="#C4572E"/>
<circle cx="500.16" cy="207.2" r="2.5" fill="#C4572E"/>
<circle cx="413.04" cy="291.8" r="2.5" fill="#C4572E"/>
<circle cx="560.64" cy="231.32" r="2.5" fill="#C4572E"/>
<circle cx="377.04" cy="283.52" r="2.5" fill="#C4572E"/>
<circle cx="514.56" cy="236.36" r="2.5" fill="#C4572E"/>
<circle cx="487.92" cy="351.56" r="2.5" fill="#C4572E"/>
<circle cx="451.92" cy="351.92" r="2.5" fill="#C4572E"/>
<circle cx="627.6" cy="386.48" r="2.5" fill="#C4572E"/>
<circle cx="685.92" cy="367.04" r="2.5" fill="#C4572E"/>
<circle cx="527.52" cy="344.36" r="2.5" fill="#C4572E"/>
<circle cx="528.96" cy="336.08" r="2.5" fill="#C4572E"/>
<circle cx="409.44" cy="386.84" r="2.5" fill="#C4572E"/>
<circle cx="641.28" cy="390.44" r="2.5" fill="#C4572E"/>
<circle cx="633.36" cy="375.68" r="2.5" fill="#C4572E"/>
<circle cx="485.76" cy="371.36" r="2.5" fill="#C4572E"/>
<circle cx="510.96" cy="341.12" r="2.5" fill="#C4572E"/>
<circle cx="415.92" cy="331.76" r="2.5" fill="#C4572E"/>
<circle cx="536.88" cy="373.16" r="2.5" fill="#C4572E"/>
<circle cx="503.76" cy="405.2" r="2.5" fill="#C4572E"/>
<circle cx="550.56" cy="383.96" r="2.5" fill="#C4572E"/>
<circle cx="625.44" cy="348.68" r="2.5" fill="#C4572E"/>
<circle cx="395.76" cy="388.28" r="2.5" fill="#C4572E"/>
<circle cx="487.92" cy="402.32" r="2.5" fill="#C4572E"/>
<circle cx="562.08" cy="394.4" r="2.5" fill="#C4572E"/>
<circle cx="592.32" cy="316.64" r="2.5" fill="#C4572E"/>
<circle cx="589.44" cy="352.28" r="2.5" fill="#C4572E"/>
<circle cx="482.88" cy="358.4" r="2.5" fill="#C4572E"/>
<circle cx="593.04" cy="391.52" r="2.5" fill="#C4572E"/>
<circle cx="610.32" cy="327.44" r="2.5" fill="#C4572E"/>
<circle cx="495.12" cy="309.44" r="2.5" fill="#C4572E"/>
<circle cx="530.4" cy="384.32" r="2.5" fill="#C4572E"/>
<circle cx="482.88" cy="375.32" r="2.5" fill="#C4572E"/>
<circle cx="554.16" cy="394.76" r="2.5" fill="#C4572E"/>
<circle cx="478.56" cy="348.32" r="2.5" fill="#C4572E"/>
<circle cx="482.88" cy="413.48" r="2.5" fill="#C4572E"/>
<circle cx="616.08" cy="365.96" r="2.5" fill="#C4572E"/>
<circle cx="554.16" cy="372.08" r="2.5" fill="#C4572E"/>
<circle cx="552" cy="363.8" r="2.5" fill="#C4572E"/>
<circle cx="513.84" cy="337.52" r="2.5" fill="#C4572E"/>
<circle cx="491.52" cy="410.96" r="2.5" fill="#C4572E"/>
<circle cx="576.48" cy="371" r="2.5" fill="#C4572E"/>
<circle cx="522.48" cy="370.64" r="2.5" fill="#C4572E"/>
<circle cx="562.8" cy="353" r="2.5" fill="#C4572E"/>
<circle cx="552" cy="375.32" r="2.5" fill="#C4572E"/>
<circle cx="483.6" cy="349.4" r="2.5" fill="#C4572E"/>
<circle cx="465.6" cy="342.56" r="2.5" fill="#C4572E"/>
<circle cx="601.68" cy="309.8" r="2.5" fill="#C4572E"/>
<circle cx="518.16" cy="353.72" r="2.5" fill="#C4572E"/>
<circle cx="492.96" cy="371.72" r="2.5" fill="#C4572E"/>
<circle cx="618.96" cy="371" r="2.5" fill="#C4572E"/>
<circle cx="527.52" cy="353.72" r="2.5" fill="#C4572E"/>
<circle cx="528.24" cy="392.24" r="2.5" fill="#C4572E"/>
<circle cx="509.52" cy="340.4" r="2.5" fill="#C4572E"/>
<circle cx="446.88" cy="341.48" r="2.5" fill="#C4572E"/>
<circle cx="437.52" cy="396.92" r="2.5" fill="#C4572E"/>
<circle cx="563.52" cy="363.08" r="2.5" fill="#C4572E"/>
<circle cx="642.72" cy="352.64" r="2.5" fill="#C4572E"/>
<circle cx="591.6" cy="389.36" r="2.5" fill="#C4572E"/>
<circle cx="426" cy="329.96" r="2.5" fill="#C4572E"/>
<circle cx="470.64" cy="391.88" r="2.5" fill="#C4572E"/>
<circle cx="631.2" cy="338.24" r="2.5" fill="#C4572E"/>
<circle cx="613.2" cy="359.48" r="2.5" fill="#C4572E"/>
<circle cx="509.52" cy="355.16" r="2.5" fill="#C4572E"/>
<circle cx="514.56" cy="323.48" r="2.5" fill="#C4572E"/>
<circle cx="465.6" cy="338.24" r="2.5" fill="#C4572E"/>
<circle cx="572.88" cy="421.76" r="2.5" fill="#C4572E"/>
<circle cx="734.16" cy="360.56" r="2.5" fill="#C4572E"/>
<circle cx="413.76" cy="359.12" r="2.5" fill="#C4572E"/>
<circle cx="469.92" cy="419.24" r="2.5" fill="#C4572E"/>
<circle cx="578.64" cy="350.84" r="2.5" fill="#C4572E"/>
<circle cx="605.28" cy="382.88" r="2.5" fill="#C4572E"/>
<circle cx="420.24" cy="355.88" r="2.5" fill="#C4572E"/>
<circle cx="520.32" cy="369.56" r="2.5" fill="#C4572E"/>
<circle cx="546.96" cy="360.56" r="2.5" fill="#C4572E"/>
<circle cx="551.28" cy="354.44" r="2.5" fill="#C4572E"/>
<circle cx="472.8" cy="407.36" r="2.5" fill="#C4572E"/>
<circle cx="563.52" cy="380.36" r="2.5" fill="#C4572E"/>
<circle cx="423.12" cy="364.88" r="2.5" fill="#C4572E"/>
<circle cx="596.64" cy="336.8" r="2.5" fill="#C4572E"/>
<circle cx="616.8" cy="359.48" r="2.5" fill="#C4572E"/>
<circle cx="566.4" cy="365.96" r="2.5" fill="#C4572E"/>
<circle cx="553.44" cy="399.44" r="2.5" fill="#C4572E"/>
<circle cx="508.8" cy="408.8" r="2.5" fill="#C4572E"/>
<circle cx="481.44" cy="345.8" r="2.5" fill="#C4572E"/>
<circle cx="588.72" cy="342.2" r="2.5" fill="#C4572E"/>
<circle cx="665.76" cy="266.24" r="2.5" fill="#C4572E"/>
<circle cx="734.16" cy="208.64" r="2.5" fill="#C4572E"/>
<circle cx="703.2" cy="287.48" r="2.5" fill="#C4572E"/>
<circle cx="733.44" cy="241.76" r="2.5" fill="#C4572E"/>
<circle cx="655.68" cy="240.32" r="2.5" fill="#C4572E"/>
<circle cx="631.92" cy="241.04" r="2.5" fill="#C4572E"/>
<circle cx="673.68" cy="243.56" r="2.5" fill="#C4572E"/>
<circle cx="732.72" cy="241.76" r="2.5" fill="#C4572E"/>
<circle cx="618.96" cy="269.48" r="2.5" fill="#C4572E"/>
<circle cx="635.52" cy="237.08" r="2.5" fill="#C4572E"/>
<circle cx="675.84" cy="239.24" r="2.5" fill="#C4572E"/>
<circle cx="638.4" cy="241.4" r="2.5" fill="#C4572E"/>
<circle cx="775.92" cy="233.84" r="2.5" fill="#C4572E"/>
<circle cx="675.84" cy="270.92" r="2.5" fill="#C4572E"/>
<circle cx="714" cy="263.36" r="2.5" fill="#C4572E"/>
<circle cx="719.04" cy="204.32" r="2.5" fill="#C4572E"/>
<circle cx="644.16" cy="249.68" r="2.5" fill="#C4572E"/>
<circle cx="703.2" cy="274.88" r="2.5" fill="#C4572E"/>
<circle cx="701.76" cy="241.76" r="2.5" fill="#C4572E"/>
<circle cx="683.04" cy="242.12" r="2.5" fill="#C4572E"/>
<circle cx="692.4" cy="261.2" r="2.5" fill="#C4572E"/>
<circle cx="667.2" cy="229.16" r="2.5" fill="#C4572E"/>
<circle cx="644.88" cy="270.56" r="2.5" fill="#C4572E"/>
<circle cx="737.04" cy="268.4" r="2.5" fill="#C4572E"/>
<circle cx="718.32" cy="264.8" r="2.5" fill="#C4572E"/>
<circle cx="681.6" cy="261.2" r="2.5" fill="#C4572E"/>
<circle cx="636.24" cy="242.48" r="2.5" fill="#C4572E"/>
<circle cx="649.92" cy="262.64" r="2.5" fill="#C4572E"/>
<circle cx="656.4" cy="244.64" r="2.5" fill="#C4572E"/>
<circle cx="698.88" cy="275.96" r="2.5" fill="#C4572E"/>
<circle cx="647.04" cy="226.64" r="2.5" fill="#C4572E"/>
<circle cx="716.88" cy="223.04" r="2.5" fill="#C4572E"/>
<circle cx="701.04" cy="234.56" r="2.5" fill="#C4572E"/>
<circle cx="677.28" cy="207.56" r="2.5" fill="#C4572E"/>
<circle cx="712.56" cy="236" r="2.5" fill="#C4572E"/>
<circle cx="642.72" cy="291.8" r="2.5" fill="#C4572E"/>
<circle cx="712.56" cy="322.76" r="2.5" fill="#C4572E"/>
<circle cx="698.88" cy="239.24" r="2.5" fill="#C4572E"/>
<circle cx="685.92" cy="281.36" r="2.5" fill="#C4572E"/>
<circle cx="680.16" cy="256.52" r="2.5" fill="#C4572E"/>
<circle cx="275.52" cy="255.44" r="2.5" fill="#C4572E"/>
<circle cx="261.12" cy="263" r="2.5" fill="#C4572E"/>
<circle cx="212.16" cy="287.84" r="2.5" fill="#C4572E"/>
<circle cx="280.56" cy="273.44" r="2.5" fill="#C4572E"/>
<circle cx="224.4" cy="236" r="2.5" fill="#C4572E"/>
<circle cx="274.08" cy="270.2" r="2.5" fill="#C4572E"/>
<circle cx="196.32" cy="270.92" r="2.5" fill="#C4572E"/>
<circle cx="202.08" cy="271.64" r="2.5" fill="#C4572E"/>
<circle cx="261.84" cy="278.48" r="2.5" fill="#C4572E"/>
<circle cx="264.72" cy="275.24" r="2.5" fill="#C4572E"/>
<circle cx="215.76" cy="265.16" r="2.5" fill="#C4572E"/>
<circle cx="238.08" cy="267.68" r="2.5" fill="#C4572E"/>
<circle cx="266.88" cy="283.16" r="2.5" fill="#C4572E"/>
<circle cx="315.84" cy="225.92" r="2.5" fill="#C4572E"/>
<circle cx="271.2" cy="268.4" r="2.5" fill="#C4572E"/>
<circle cx="338.88" cy="288.92" r="2.5" fill="#C4572E"/>
<circle cx="197.04" cy="279.2" r="2.5" fill="#C4572E"/>
<circle cx="238.08" cy="290" r="2.5" fill="#C4572E"/>
<circle cx="218.64" cy="270.2" r="2.5" fill="#C4572E"/>
<circle cx="251.76" cy="270.2" r="2.5" fill="#C4572E"/>
<circle cx="325.2" cy="144.56" r="2.5" fill="#C4572E"/>
<circle cx="370.56" cy="185.6" r="2.5" fill="#C4572E"/>
<circle cx="347.52" cy="156.44" r="2.5" fill="#C4572E"/>
<circle cx="359.04" cy="179.48" r="2.5" fill="#C4572E"/>
<circle cx="342.48" cy="170.84" r="2.5" fill="#C4572E"/>
<circle cx="411.6" cy="155" r="2.5" fill="#C4572E"/>
<circle cx="326.64" cy="143.84" r="2.5" fill="#C4572E"/>
<circle cx="320.16" cy="160.4" r="2.5" fill="#C4572E"/>
<circle cx="308.64" cy="161.12" r="2.5" fill="#C4572E"/>
<circle cx="428.16" cy="168.32" r="2.5" fill="#C4572E"/>
<text x="350.4" y="171.2" font-size="13" font-family="'Segoe UI',Arial,sans-serif" fill="#4E4237" font-weight="600" text-anchor="middle">North</text>
<text x="256.8" y="272" font-size="13" font-family="'Segoe UI',Arial,sans-serif" fill="#4E4237" font-weight="600" text-anchor="middle">West</text>
<text x="465.6" y="261.2" font-size="13" font-family="'Segoe UI',Arial,sans-serif" fill="#4E4237" font-weight="600" text-anchor="middle">Central</text>
<text x="681.6" y="246.8" font-size="13" font-family="'Segoe UI',Arial,sans-serif" fill="#4E4237" font-weight="600" text-anchor="middle">East</text>
<text x="537.6" y="369.2" font-size="13" font-family="'Segoe UI',Arial,sans-serif" fill="#4E4237" font-weight="600" text-anchor="middle">South</text>
<text x="120" y="494" font-size="11" font-family="'Segoe UI',Arial,sans-serif" fill="#4E4237" font-weight="400">one dot = 25 workers</text>
<text x="32" y="516" font-size="11" font-family="'Segoe UI',Arial,sans-serif" fill="#4E4237" font-weight="400">Source: sample dataset v1, 2026-07-12</text>
</svg>
