<svg xmlns="http://www.w3.org/2000/svg" width="960" height="540" viewBox="0 0 960 540">
<rect width="960" height="540" fill="#F7EFE3"/>
<text x="32" y="56" font-size="24" font-family="'EB Garamond',Georgia,serif" fill="#31261D" font-weight="600">Delivered goods reached 1,284 in week 28, 90% of all items</text>
<rect x="125.5" y="267.43" width="56" height="164.57" fill="#C4572E"/>
<rect x="125.5" y="241.49" width="56" height="25.94" fill="#C9BBA4"/>
<rect x="125.5" y="222.03" width="56" height="19.46" fill="#DCCFB6"/>
<text x="153.5" y="214.03" font-size="14" font-family="'Segoe UI',Arial,sans-serif" fill="#31261D" font-weight="400" text-anchor="middle">1036 items</text>
<text x="153.5" y="452" font-size="12" font-family="'Segoe UI',Arial,sans-serif" fill="#4E4237" font-weight="400" text-anchor="middle">W25</text>
<rect x="304.5" y="240.27" width="56" height="191.73" fill="#C4572E"/>
<rect x="304.5" y="217.98" width="56" height="22.29" fill="#C9BBA4"/>
<rect x="304.5" y="203.59" width="56" height="14.39" fill="#DCCFB6"/>
<text x="332.5" y="195.59" font-size="14" font-family="'Segoe UI',Arial,sans-serif" fill="#31261D" font-weight="400" text-anchor="middle">1127</text>
<text x="332.5" y="452" font-size="12" font-family="'Segoe UI',Arial,sans-serif" fill="#4E4237" font-weight="400" text-anchor="middle">W26</text>
<rect x="483.5" y="208.05" width="56" height="223.95" fill="#C4572E"/>
<rect x="483.5" y="188.18" width="56" height="19.86" fill="#C9BBA4"/>
<rect x="483.5" y="177.24" width="56" height="10.94" fill="#DCCFB6"/>
<text x="511.5" y="169.24" font-size="14" font-family="'Segoe UI',Arial,sans-serif" fill="#31261D" font-weight="400" text-anchor="middle">1257</text>
<text x="511.5" y="452" font-size="12" font-family="'Segoe UI',Arial,sans-serif" fill="#4E4237" font-weight="400" text-anchor="middle">W27</text>
<rect x="662.5" y="171.77" width="56" height="260.23" fill="#C4572E"/>
<rect x="662.5" y="152.31" width="56" height="19.46" fill="#C9BBA4"/>
<rect x="662.5" y="144" width="56" height="8.31" fill="#DCCFB6"/>
<text x="690.5" y="136" font-size="14" font-family="'Segoe UI',Arial,sans-serif" fill="#31261D" font-weight="400" text-anchor="middle">1421</text>
<text x="690.5" y="452" font-size="12" font-family="'Segoe UI',Arial,sans-serif" fill="#4E4237" font-weight="400" text-anchor="middle">W28</text>
<rect x="796" y="297.88" width="8" height="8" fill="#C4572E"/>
<text x="810" y="301.88" font-size="12" font-family="'Segoe UI',Arial,sans-serif" fill="#4E4237" font-weight="400" dominant-baseline="middle">Delivered</text>
<rect x="796" y="158.04" width="8" height="8" fill="#C9BBA4"/>
<text x="810" y="162.04" font-size="12" font-family="'Segoe UI',Arial,sans-serif" fill="#4E4237" font-weight="400" dominant-baseline="middle">In transit</text>
<rect x="796" y="144.15" width="8" height="8" fill="#DCCFB6"/>
<text x="810" y="148.15" font-size="12" font-family="'Segoe UI',Arial,sans-serif" fill="#4E4237" font-weight="400" dominant-baseline="middle">Pending</text>
<line x1="64" y1="432" x2="780" y2="432" stroke="#DCCFB6" stroke-width="1"/>
<text x="32" y="516" font-size="11" font-family="'Segoe UI',Arial,sans-serif" fill="#4E4237" font-weight="400">Source: sample dataset v1, 2026-07-12</text>
</svg>
