<svg xmlns="http://www.w3.org/2000/svg" width="960" height="540" viewBox="0 0 960 540">
<rect width="960" height="540" fill="#FBFDFF"/>
<text x="32" y="56" font-size="24" font-family="'Segoe UI',Arial,sans-serif" fill="#143D59" font-weight="600">Stock held at 41 units for three weeks after the June draw-down</text>
<line x1="96" y1="452" x2="756" y2="452" stroke="#C6D5E0" stroke-width="1"/>
<text x="84" y="452" font-size="10" font-family="'Segoe UI',Arial,sans-serif" fill="#33424E" font-weight="400" text-anchor="end" dominant-baseline="middle">0</text>
<line x1="96" y1="371" x2="756" y2="371" stroke="#E7EEF4" stroke-width="1"/>
<text x="84" y="371" font-size="10" font-family="'Segoe UI',Arial,sans-serif" fill="#33424E" font-weight="400" text-anchor="end" dominant-baseline="middle">20</text>
<line x1="96" y1="290" x2="756" y2="290" stroke="#E7EEF4" stroke-width="1"/>
<text x="84" y="290" font-size="10" font-family="'Segoe UI',Arial,sans-serif" fill="#33424E" font-weight="400" text-anchor="end" dominant-baseline="middle">40</text>
<line x1="96" y1="209" x2="756" y2="209" stroke="#E7EEF4" stroke-width="1"/>
<text x="84" y="209" font-size="10" font-family="'Segoe UI',Arial,sans-serif" fill="#33424E" font-weight="400" text-anchor="end" dominant-baseline="middle">60</text>
<line x1="96" y1="128" x2="756" y2="128" stroke="#E7EEF4" stroke-width="1"/>
<text x="84" y="128" font-size="10" font-family="'Segoe UI',Arial,sans-serif" fill="#33424E" font-weight="400" text-anchor="end" dominant-baseline="middle">80 units</text>
<text x="96" y="472" font-size="10" font-family="'Segoe UI',Arial,sans-serif" fill="#33424E" font-weight="400" text-anchor="middle">W20</text>
<text x="178.5" y="472" font-size="10" font-family="'Segoe UI',Arial,sans-serif" fill="#33424E" font-weight="400" text-anchor="middle">W21</text>
<text x="261" y="472" font-size="10" font-family="'Segoe UI',Arial,sans-serif" fill="#33424E" font-weight="400" text-anchor="middle">W22</text>
<text x="343.5" y="472" font-size="10" font-family="'Segoe UI',Arial,sans-serif" fill="#33424E" font-weight="400" text-anchor="middle">W23</text>
<text x="426" y="472" font-size="10" font-family="'Segoe UI',Arial,sans-serif" fill="#33424E" font-weight="400" text-anchor="middle">W24</text>
<text x="508.5" y="472" font-size="10" font-family="'Segoe UI',Arial,sans-serif" fill="#33424E" font-weight="400" text-anchor="middle">W25</text>
<text x="591" y="472" font-size="10" font-family="'Segoe UI',Arial,sans-serif" fill="#33424E" font-weight="400" text-anchor="middle">W26</text>
<text x="673.5" y="472" font-size="10" font-family="'Segoe UI',Arial,sans-serif" fill="#33424E" font-weight="400" text-anchor="middle">W27</text>
<text x="756" y="472" font-size="10" font-family="'Segoe UI',Arial,sans-serif" fill="#33424E" font-weight="400" text-anchor="middle">W28</text>
<polyline points="96,192.8 178.5,192.8 178.5,192.8 261,192.8 261,192.8 343.5,192.8 343.5,217.1 426,217.1 426,217.1 508.5,217.1 508.5,253.55 591,253.55 591,285.95 673.5,285.95 673.5,285.95 756,285.95 756,285.95" fill="none" stroke="#1B6E8F" stroke-width="2.5"/>
<text x="766" y="285.95" font-size="12" font-family="'Segoe UI',Arial,sans-serif" fill="#1B6E8F" font-weight="600" dominant-baseline="middle">Stock</text>
<line x1="508.5" y1="253.55" x2="466" y2="195" stroke="#33424E" stroke-width="1"/>
<text x="470" y="200" font-size="12" font-family="'Segoe UI',Arial,sans-serif" fill="#33424E" font-weight="400" font-style="italic">June draw-down: -23 in three weeks</text>
<text x="32" y="516" font-size="11" font-family="'Segoe UI',Arial,sans-serif" fill="#33424E" font-weight="400">Source: sample dataset v1, 2026-07-12</text>
</svg>
