<svg xmlns="http://www.w3.org/2000/svg" width="960" height="540" viewBox="0 0 960 540">
<rect width="960" height="540" fill="#FDF4EA"/>
<rect x="32" y="28" width="24" height="4" fill="#9E2B25"/>
<text x="32" y="52" font-size="11" font-family="'Segoe UI',Arial,sans-serif" fill="#4A4E57" font-weight="600" letter-spacing="2">SCOPE . WEEK 28</text>
<text x="32" y="88" font-size="24" font-family="'Oswald','Arial Narrow',Arial,sans-serif" fill="#262A33" font-weight="700">62 of every 100 scope items are complete</text>
<rect x="96" y="428" width="26" height="26" fill="#9E2B25"/>
<rect x="128" y="428" width="26" height="26" fill="#9E2B25"/>
<rect x="160" y="428" width="26" height="26" fill="#9E2B25"/>
<rect x="192" y="428" width="26" height="26" fill="#9E2B25"/>
<rect x="224" y="428" width="26" height="26" fill="#9E2B25"/>
<rect x="256" y="428" width="26" height="26" fill="#9E2B25"/>
<rect x="288" y="428" width="26" height="26" fill="#9E2B25"/>
<rect x="320" y="428" width="26" height="26" fill="#9E2B25"/>
<rect x="352" y="428" width="26" height="26" fill="#9E2B25"/>
<rect x="384" y="428" width="26" height="26" fill="#9E2B25"/>
<rect x="96" y="396" width="26" height="26" fill="#9E2B25"/>
<rect x="128" y="396" width="26" height="26" fill="#9E2B25"/>
<rect x="160" y="396" width="26" height="26" fill="#9E2B25"/>
<rect x="192" y="396" width="26" height="26" fill="#9E2B25"/>
<rect x="224" y="396" width="26" height="26" fill="#9E2B25"/>
<rect x="256" y="396" width="26" height="26" fill="#9E2B25"/>
<rect x="288" y="396" width="26" height="26" fill="#9E2B25"/>
<rect x="320" y="396" width="26" height="26" fill="#9E2B25"/>
<rect x="352" y="396" width="26" height="26" fill="#9E2B25"/>
<rect x="384" y="396" width="26" height="26" fill="#9E2B25"/>
<rect x="96" y="364" width="26" height="26" fill="#9E2B25"/>
<rect x="128" y="364" width="26" height="26" fill="#9E2B25"/>
<rect x="160" y="364" width="26" height="26" fill="#9E2B25"/>
<rect x="192" y="364" width="26" height="26" fill="#9E2B25"/>
<rect x="224" y="364" width="26" height="26" fill="#9E2B25"/>
<rect x="256" y="364" width="26" height="26" fill="#9E2B25"/>
<rect x="288" y="364" width="26" height="26" fill="#9E2B25"/>
<rect x="320" y="364" width="26" height="26" fill="#9E2B25"/>
<rect x="352" y="364" width="26" height="26" fill="#9E2B25"/>
<rect x="384" y="364" width="26" height="26" fill="#9E2B25"/>
<rect x="96" y="332" width="26" height="26" fill="#9E2B25"/>
<rect x="128" y="332" width="26" height="26" fill="#9E2B25"/>
<rect x="160" y="332" width="26" height="26" fill="#9E2B25"/>
<rect x="192" y="332" width="26" height="26" fill="#9E2B25"/>
<rect x="224" y="332" width="26" height="26" fill="#9E2B25"/>
<rect x="256" y="332" width="26" height="26" fill="#9E2B25"/>
<rect x="288" y="332" width="26" height="26" fill="#9E2B25"/>
<rect x="320" y="332" width="26" height="26" fill="#9E2B25"/>
<rect x="352" y="332" width="26" height="26" fill="#9E2B25"/>
<rect x="384" y="332" width="26" height="26" fill="#9E2B25"/>
<rect x="96" y="300" width="26" height="26" fill="#9E2B25"/>
<rect x="128" y="300" width="26" height="26" fill="#9E2B25"/>
<rect x="160" y="300" width="26" height="26" fill="#9E2B25"/>
<rect x="192" y="300" width="26" height="26" fill="#9E2B25"/>
<rect x="224" y="300" width="26" height="26" fill="#9E2B25"/>
<rect x="256" y="300" width="26" height="26" fill="#9E2B25"/>
<rect x="288" y="300" width="26" height="26" fill="#9E2B25"/>
<rect x="320" y="300" width="26" height="26" fill="#9E2B25"/>
<rect x="352" y="300" width="26" height="26" fill="#9E2B25"/>
<rect x="384" y="300" width="26" height="26" fill="#9E2B25"/>
<rect x="96" y="268" width="26" height="26" fill="#9E2B25"/>
<rect x="128" y="268" width="26" height="26" fill="#9E2B25"/>
<rect x="160" y="268" width="26" height="26" fill="#9E2B25"/>
<rect x="192" y="268" width="26" height="26" fill="#9E2B25"/>
<rect x="224" y="268" width="26" height="26" fill="#9E2B25"/>
<rect x="256" y="268" width="26" height="26" fill="#9E2B25"/>
<rect x="288" y="268" width="26" height="26" fill="#9E2B25"/>
<rect x="320" y="268" width="26" height="26" fill="#9E2B25"/>
<rect x="352" y="268" width="26" height="26" fill="#9E2B25"/>
<rect x="384" y="268" width="26" height="26" fill="#9E2B25"/>
<rect x="96" y="236" width="26" height="26" fill="#9E2B25"/>
<rect x="128" y="236" width="26" height="26" fill="#9E2B25"/>
<rect x="160" y="236" width="26" height="26" fill="#E8E0D4"/>
<rect x="192" y="236" width="26" height="26" fill="#E8E0D4"/>
<rect x="224" y="236" width="26" height="26" fill="#E8E0D4"/>
<rect x="256" y="236" width="26" height="26" fill="#E8E0D4"/>
<rect x="288" y="236" width="26" height="26" fill="#E8E0D4"/>
<rect x="320" y="236" width="26" height="26" fill="#E8E0D4"/>
<rect x="352" y="236" width="26" height="26" fill="#E8E0D4"/>
<rect x="384" y="236" width="26" height="26" fill="#E8E0D4"/>
<rect x="96" y="204" width="26" height="26" fill="#E8E0D4"/>
<rect x="128" y="204" width="26" height="26" fill="#E8E0D4"/>
<rect x="160" y="204" width="26" height="26" fill="#E8E0D4"/>
<rect x="192" y="204" width="26" height="26" fill="#E8E0D4"/>
<rect x="224" y="204" width="26" height="26" fill="#E8E0D4"/>
<rect x="256" y="204" width="26" height="26" fill="#E8E0D4"/>
<rect x="288" y="204" width="26" height="26" fill="#E8E0D4"/>
<rect x="320" y="204" width="26" height="26" fill="#E8E0D4"/>
<rect x="352" y="204" width="26" height="26" fill="#E8E0D4"/>
<rect x="384" y="204" width="26" height="26" fill="#E8E0D4"/>
<rect x="96" y="172" width="26" height="26" fill="#E8E0D4"/>
<rect x="128" y="172" width="26" height="26" fill="#E8E0D4"/>
<rect x="160" y="172" width="26" height="26" fill="#E8E0D4"/>
<rect x="192" y="172" width="26" height="26" fill="#E8E0D4"/>
<rect x="224" y="172" width="26" height="26" fill="#E8E0D4"/>
<rect x="256" y="172" width="26" height="26" fill="#E8E0D4"/>
<rect x="288" y="172" width="26" height="26" fill="#E8E0D4"/>
<rect x="320" y="172" width="26" height="26" fill="#E8E0D4"/>
<rect x="352" y="172" width="26" height="26" fill="#E8E0D4"/>
<rect x="384" y="172" width="26" height="26" fill="#E8E0D4"/>
<rect x="96" y="140" width="26" height="26" fill="#E8E0D4"/>
<rect x="128" y="140" width="26" height="26" fill="#E8E0D4"/>
<rect x="160" y="140" width="26" height="26" fill="#E8E0D4"/>
<rect x="192" y="140" width="26" height="26" fill="#E8E0D4"/>
<rect x="224" y="140" width="26" height="26" fill="#E8E0D4"/>
<rect x="256" y="140" width="26" height="26" fill="#E8E0D4"/>
<rect x="288" y="140" width="26" height="26" fill="#E8E0D4"/>
<rect x="320" y="140" width="26" height="26" fill="#E8E0D4"/>
<rect x="352" y="140" width="26" height="26" fill="#E8E0D4"/>
<rect x="384" y="140" width="26" height="26" fill="#E8E0D4"/>
<text x="464" y="180" font-size="56" font-family="'Segoe UI',Arial,sans-serif" fill="#9E2B25" font-weight="600">62%</text>
<text x="464" y="210" font-size="14" font-family="'Segoe UI',Arial,sans-serif" fill="#4A4E57" font-weight="400">of scope complete</text>
<text x="32" y="516" font-size="11" font-family="'Segoe UI',Arial,sans-serif" fill="#4A4E57" font-weight="400">Source: sample dataset v1, 2026-07-12</text>
</svg>
