<svg xmlns="http://www.w3.org/2000/svg" width="1280" height="720" viewBox="0 0 1280 720">
<rect width="1280" height="720" fill="#101418"/>
<text x="48" y="112" font-size="34" font-family="'Segoe UI',Arial,sans-serif" fill="#E6EDF3" font-weight="600">Stock held at 41 units for three</text>
<text x="48" y="152" font-size="34" font-family="'Segoe UI',Arial,sans-serif" fill="#E6EDF3" font-weight="600">weeks after the June draw-down</text>
<text x="48" y="182" font-size="15" font-family="'Segoe UI',Arial,sans-serif" fill="#9FB0BE" font-weight="400">Watch without distraction . SENTINEL on live dashboards</text>
<svg x="48" y="204.03" width="832" height="370.93" viewBox="0 92 960 428">
<rect width="960" height="540" fill="#101418"/>
<line x1="96" y1="452" x2="756" y2="452" stroke="#2A323A" stroke-width="1"/>
<text x="84" y="452" font-size="11" font-family="'Segoe UI',Arial,sans-serif" fill="#9FB0BE" font-weight="400" text-anchor="end" dominant-baseline="middle">0</text>
<line x1="96" y1="371" x2="756" y2="371" stroke="#2A323A" stroke-width="1"/>
<text x="84" y="371" font-size="11" font-family="'Segoe UI',Arial,sans-serif" fill="#9FB0BE" font-weight="400" text-anchor="end" dominant-baseline="middle">20</text>
<line x1="96" y1="290" x2="756" y2="290" stroke="#2A323A" stroke-width="1"/>
<text x="84" y="290" font-size="11" font-family="'Segoe UI',Arial,sans-serif" fill="#9FB0BE" font-weight="400" text-anchor="end" dominant-baseline="middle">40</text>
<line x1="96" y1="209" x2="756" y2="209" stroke="#2A323A" stroke-width="1"/>
<text x="84" y="209" font-size="11" font-family="'Segoe UI',Arial,sans-serif" fill="#9FB0BE" font-weight="400" text-anchor="end" dominant-baseline="middle">60</text>
<line x1="96" y1="128" x2="756" y2="128" stroke="#2A323A" stroke-width="1"/>
<text x="84" y="128" font-size="11" font-family="'Segoe UI',Arial,sans-serif" fill="#9FB0BE" font-weight="400" text-anchor="end" dominant-baseline="middle">80 units</text>
<text x="96" y="472" font-size="11" font-family="'Segoe UI',Arial,sans-serif" fill="#9FB0BE" font-weight="400" text-anchor="middle">W20</text>
<text x="178.5" y="472" font-size="11" font-family="'Segoe UI',Arial,sans-serif" fill="#9FB0BE" font-weight="400" text-anchor="middle">W21</text>
<text x="261" y="472" font-size="11" font-family="'Segoe UI',Arial,sans-serif" fill="#9FB0BE" font-weight="400" text-anchor="middle">W22</text>
<text x="343.5" y="472" font-size="11" font-family="'Segoe UI',Arial,sans-serif" fill="#9FB0BE" font-weight="400" text-anchor="middle">W23</text>
<text x="426" y="472" font-size="11" font-family="'Segoe UI',Arial,sans-serif" fill="#9FB0BE" font-weight="400" text-anchor="middle">W24</text>
<text x="508.5" y="472" font-size="11" font-family="'Segoe UI',Arial,sans-serif" fill="#9FB0BE" font-weight="400" text-anchor="middle">W25</text>
<text x="591" y="472" font-size="11" font-family="'Segoe UI',Arial,sans-serif" fill="#9FB0BE" font-weight="400" text-anchor="middle">W26</text>
<text x="673.5" y="472" font-size="11" font-family="'Segoe UI',Arial,sans-serif" fill="#9FB0BE" font-weight="400" text-anchor="middle">W27</text>
<text x="756" y="472" font-size="11" font-family="'Segoe UI',Arial,sans-serif" fill="#9FB0BE" font-weight="400" text-anchor="middle">W28</text>
<polyline points="96,192.8 178.5,192.8 178.5,192.8 261,192.8 261,192.8 343.5,192.8 343.5,217.1 426,217.1 426,217.1 508.5,217.1 508.5,253.55 591,253.55 591,285.95 673.5,285.95 673.5,285.95 756,285.95 756,285.95" fill="none" stroke="#F0B429" stroke-width="2.5"/>
<text x="766" y="285.95" font-size="13" font-family="'Segoe UI',Arial,sans-serif" fill="#F0B429" font-weight="600" dominant-baseline="middle">Stock</text>
<line x1="508.5" y1="253.55" x2="466" y2="195" stroke="#9FB0BE" stroke-width="1"/>
<text x="470" y="200" font-size="12" font-family="'Segoe UI',Arial,sans-serif" fill="#9FB0BE" font-weight="400" font-style="italic">June draw-down: -23 in three weeks</text>
</svg>
<rect x="912" y="204" width="200" height="92" fill="#1A2026" stroke="#2A323A" stroke-width="1"/>
<text x="926" y="228" font-size="10" font-family="'Segoe UI',Arial,sans-serif" fill="#9FB0BE" font-weight="600" letter-spacing="1">STOCK</text>
<text x="926" y="262" font-size="32" font-family="'Segoe UI',Arial,sans-serif" fill="#F0B429" font-weight="600">41 units</text>
<text x="926" y="282" font-size="11" font-family="'Segoe UI',Arial,sans-serif" fill="#E5534B" font-weight="400">-23 since June</text>
<rect x="912" y="310" width="165" height="24" rx="4" fill="none" stroke="#5C6B78" stroke-width="1.5"/>
<circle cx="922" cy="322" r="3" fill="#5C6B78"/>
<text x="932" y="322" font-size="10" font-family="'Segoe UI',Arial,sans-serif" fill="#E6EDF3" font-weight="600" dominant-baseline="middle" letter-spacing="1">WATCH . REORDER</text>
<rect x="912" y="350" width="320" height="36" fill="#1A2026" stroke="#2A323A" stroke-width="1"/>
<rect x="912" y="350" width="4" height="36" fill="#F0B429"/>
<text x="928" y="371" font-size="12" font-family="'Segoe UI',Arial,sans-serif" fill="#E6EDF3" font-weight="600">Alarm level unchanged at 30 units.</text>
<text x="48" y="688" font-size="11" font-family="'Segoe UI',Arial,sans-serif" fill="#9FB0BE" font-weight="400">Source: sample dataset v1, 2026-07-12  .  Open Visualization Protocol, DL-08 SENTINEL</text>
</svg>
