<svg xmlns="http://www.w3.org/2000/svg" width="1280" height="720" viewBox="0 0 1280 720">
<rect width="1280" height="720" fill="#0B0B0B"/>
<text x="48" y="112" font-size="34" font-family="'Segoe UI',Arial,sans-serif" fill="#FFFFFF" font-weight="300">62 of every 100 scope items are complete</text>
<text x="48" y="146" font-size="15" font-family="'Segoe UI',Arial,sans-serif" fill="#D9D9D9" font-weight="400">Look deeper than sight . BASIRA on photo progress reports</text>
<svg x="48" y="233.5" width="832" height="312" viewBox="0 116 960 360">
<rect width="960" height="540" fill="#0B0B0B"/>
<rect x="96" y="428" width="26" height="26" fill="#F0B429"/>
<rect x="128" y="428" width="26" height="26" fill="#F0B429"/>
<rect x="160" y="428" width="26" height="26" fill="#F0B429"/>
<rect x="192" y="428" width="26" height="26" fill="#F0B429"/>
<rect x="224" y="428" width="26" height="26" fill="#F0B429"/>
<rect x="256" y="428" width="26" height="26" fill="#F0B429"/>
<rect x="288" y="428" width="26" height="26" fill="#F0B429"/>
<rect x="320" y="428" width="26" height="26" fill="#F0B429"/>
<rect x="352" y="428" width="26" height="26" fill="#F0B429"/>
<rect x="384" y="428" width="26" height="26" fill="#F0B429"/>
<rect x="96" y="396" width="26" height="26" fill="#F0B429"/>
<rect x="128" y="396" width="26" height="26" fill="#F0B429"/>
<rect x="160" y="396" width="26" height="26" fill="#F0B429"/>
<rect x="192" y="396" width="26" height="26" fill="#F0B429"/>
<rect x="224" y="396" width="26" height="26" fill="#F0B429"/>
<rect x="256" y="396" width="26" height="26" fill="#F0B429"/>
<rect x="288" y="396" width="26" height="26" fill="#F0B429"/>
<rect x="320" y="396" width="26" height="26" fill="#F0B429"/>
<rect x="352" y="396" width="26" height="26" fill="#F0B429"/>
<rect x="384" y="396" width="26" height="26" fill="#F0B429"/>
<rect x="96" y="364" width="26" height="26" fill="#F0B429"/>
<rect x="128" y="364" width="26" height="26" fill="#F0B429"/>
<rect x="160" y="364" width="26" height="26" fill="#F0B429"/>
<rect x="192" y="364" width="26" height="26" fill="#F0B429"/>
<rect x="224" y="364" width="26" height="26" fill="#F0B429"/>
<rect x="256" y="364" width="26" height="26" fill="#F0B429"/>
<rect x="288" y="364" width="26" height="26" fill="#F0B429"/>
<rect x="320" y="364" width="26" height="26" fill="#F0B429"/>
<rect x="352" y="364" width="26" height="26" fill="#F0B429"/>
<rect x="384" y="364" width="26" height="26" fill="#F0B429"/>
<rect x="96" y="332" width="26" height="26" fill="#F0B429"/>
<rect x="128" y="332" width="26" height="26" fill="#F0B429"/>
<rect x="160" y="332" width="26" height="26" fill="#F0B429"/>
<rect x="192" y="332" width="26" height="26" fill="#F0B429"/>
<rect x="224" y="332" width="26" height="26" fill="#F0B429"/>
<rect x="256" y="332" width="26" height="26" fill="#F0B429"/>
<rect x="288" y="332" width="26" height="26" fill="#F0B429"/>
<rect x="320" y="332" width="26" height="26" fill="#F0B429"/>
<rect x="352" y="332" width="26" height="26" fill="#F0B429"/>
<rect x="384" y="332" width="26" height="26" fill="#F0B429"/>
<rect x="96" y="300" width="26" height="26" fill="#F0B429"/>
<rect x="128" y="300" width="26" height="26" fill="#F0B429"/>
<rect x="160" y="300" width="26" height="26" fill="#F0B429"/>
<rect x="192" y="300" width="26" height="26" fill="#F0B429"/>
<rect x="224" y="300" width="26" height="26" fill="#F0B429"/>
<rect x="256" y="300" width="26" height="26" fill="#F0B429"/>
<rect x="288" y="300" width="26" height="26" fill="#F0B429"/>
<rect x="320" y="300" width="26" height="26" fill="#F0B429"/>
<rect x="352" y="300" width="26" height="26" fill="#F0B429"/>
<rect x="384" y="300" width="26" height="26" fill="#F0B429"/>
<rect x="96" y="268" width="26" height="26" fill="#F0B429"/>
<rect x="128" y="268" width="26" height="26" fill="#F0B429"/>
<rect x="160" y="268" width="26" height="26" fill="#F0B429"/>
<rect x="192" y="268" width="26" height="26" fill="#F0B429"/>
<rect x="224" y="268" width="26" height="26" fill="#F0B429"/>
<rect x="256" y="268" width="26" height="26" fill="#F0B429"/>
<rect x="288" y="268" width="26" height="26" fill="#F0B429"/>
<rect x="320" y="268" width="26" height="26" fill="#F0B429"/>
<rect x="352" y="268" width="26" height="26" fill="#F0B429"/>
<rect x="384" y="268" width="26" height="26" fill="#F0B429"/>
<rect x="96" y="236" width="26" height="26" fill="#F0B429"/>
<rect x="128" y="236" width="26" height="26" fill="#F0B429"/>
<rect x="160" y="236" width="26" height="26" fill="#1C1F22"/>
<rect x="192" y="236" width="26" height="26" fill="#1C1F22"/>
<rect x="224" y="236" width="26" height="26" fill="#1C1F22"/>
<rect x="256" y="236" width="26" height="26" fill="#1C1F22"/>
<rect x="288" y="236" width="26" height="26" fill="#1C1F22"/>
<rect x="320" y="236" width="26" height="26" fill="#1C1F22"/>
<rect x="352" y="236" width="26" height="26" fill="#1C1F22"/>
<rect x="384" y="236" width="26" height="26" fill="#1C1F22"/>
<rect x="96" y="204" width="26" height="26" fill="#1C1F22"/>
<rect x="128" y="204" width="26" height="26" fill="#1C1F22"/>
<rect x="160" y="204" width="26" height="26" fill="#1C1F22"/>
<rect x="192" y="204" width="26" height="26" fill="#1C1F22"/>
<rect x="224" y="204" width="26" height="26" fill="#1C1F22"/>
<rect x="256" y="204" width="26" height="26" fill="#1C1F22"/>
<rect x="288" y="204" width="26" height="26" fill="#1C1F22"/>
<rect x="320" y="204" width="26" height="26" fill="#1C1F22"/>
<rect x="352" y="204" width="26" height="26" fill="#1C1F22"/>
<rect x="384" y="204" width="26" height="26" fill="#1C1F22"/>
<rect x="96" y="172" width="26" height="26" fill="#1C1F22"/>
<rect x="128" y="172" width="26" height="26" fill="#1C1F22"/>
<rect x="160" y="172" width="26" height="26" fill="#1C1F22"/>
<rect x="192" y="172" width="26" height="26" fill="#1C1F22"/>
<rect x="224" y="172" width="26" height="26" fill="#1C1F22"/>
<rect x="256" y="172" width="26" height="26" fill="#1C1F22"/>
<rect x="288" y="172" width="26" height="26" fill="#1C1F22"/>
<rect x="320" y="172" width="26" height="26" fill="#1C1F22"/>
<rect x="352" y="172" width="26" height="26" fill="#1C1F22"/>
<rect x="384" y="172" width="26" height="26" fill="#1C1F22"/>
<rect x="96" y="140" width="26" height="26" fill="#1C1F22"/>
<rect x="128" y="140" width="26" height="26" fill="#1C1F22"/>
<rect x="160" y="140" width="26" height="26" fill="#1C1F22"/>
<rect x="192" y="140" width="26" height="26" fill="#1C1F22"/>
<rect x="224" y="140" width="26" height="26" fill="#1C1F22"/>
<rect x="256" y="140" width="26" height="26" fill="#1C1F22"/>
<rect x="288" y="140" width="26" height="26" fill="#1C1F22"/>
<rect x="320" y="140" width="26" height="26" fill="#1C1F22"/>
<rect x="352" y="140" width="26" height="26" fill="#1C1F22"/>
<rect x="384" y="140" width="26" height="26" fill="#1C1F22"/>
<text x="464" y="180" font-size="56" font-family="'Segoe UI',Arial,sans-serif" fill="#F0B429" font-weight="600">62%</text>
<text x="464" y="210" font-size="14" font-family="'Segoe UI',Arial,sans-serif" fill="#D9D9D9" font-weight="400">of scope complete</text>
</svg>
<rect x="912" y="204" width="200" height="92" fill="#1C1F22" stroke="#3A3F44" stroke-width="1"/>
<text x="926" y="228" font-size="10" font-family="'Segoe UI',Arial,sans-serif" fill="#D9D9D9" font-weight="600" letter-spacing="1">COMPLETE</text>
<text x="926" y="262" font-size="32" font-family="'Segoe UI',Arial,sans-serif" fill="#F0B429" font-weight="600">62%</text>
<text x="926" y="282" font-size="11" font-family="'Segoe UI',Arial,sans-serif" fill="#3FB68B" font-weight="400">+4 vs last visit</text>
<rect x="912" y="316" width="320" height="54" fill="#1C1F22" stroke="#3A3F44" stroke-width="1"/>
<rect x="912" y="316" width="4" height="54" fill="#F0B429"/>
<text x="928" y="337" font-size="12" font-family="'Segoe UI',Arial,sans-serif" fill="#FFFFFF" font-weight="600">Same angle, same light:</text>
<text x="928" y="355" font-size="12" font-family="'Segoe UI',Arial,sans-serif" fill="#D9D9D9" font-weight="400">every visit records the change.</text>
<text x="48" y="688" font-size="11" font-family="'Segoe UI',Arial,sans-serif" fill="#D9D9D9" font-weight="400">Source: sample dataset v1, 2026-07-12  .  Open Visualization Protocol, DL-10 BASIRA</text>
</svg>
