<svg xmlns="http://www.w3.org/2000/svg" width="960" height="540" viewBox="0 0 960 540">
<rect width="960" height="540" fill="#FFFFFF"/>
<text x="32" y="56" font-size="24" font-family="'Rethink Sans','Segoe UI',sans-serif" fill="#222222" font-weight="600">One lot sits at 62 days, twice the next slowest</text>
<circle cx="172.5" cy="300" r="6" fill="#B7DCDC"/>
<circle cx="181.25" cy="287" r="6" fill="#B7DCDC"/>
<circle cx="190" cy="300" r="6" fill="#B7DCDC"/>
<circle cx="198.75" cy="287" r="6" fill="#B7DCDC"/>
<circle cx="198.75" cy="313" r="6" fill="#B7DCDC"/>
<circle cx="207.5" cy="300" r="6" fill="#B7DCDC"/>
<circle cx="216.25" cy="287" r="6" fill="#B7DCDC"/>
<circle cx="225" cy="300" r="6" fill="#B7DCDC"/>
<circle cx="225" cy="313" r="6" fill="#B7DCDC"/>
<circle cx="233.75" cy="287" r="6" fill="#B7DCDC"/>
<circle cx="242.5" cy="300" r="6" fill="#B7DCDC"/>
<circle cx="251.25" cy="287" r="6" fill="#B7DCDC"/>
<circle cx="251.25" cy="313" r="6" fill="#B7DCDC"/>
<circle cx="260" cy="300" r="6" fill="#B7DCDC"/>
<circle cx="268.75" cy="287" r="6" fill="#B7DCDC"/>
<circle cx="277.5" cy="300" r="6" fill="#B7DCDC"/>
<circle cx="286.25" cy="287" r="6" fill="#B7DCDC"/>
<circle cx="303.75" cy="300" r="6" fill="#B7DCDC"/>
<circle cx="312.5" cy="287" r="6" fill="#B7DCDC"/>
<circle cx="330" cy="300" r="6" fill="#B7DCDC"/>
<circle cx="347.5" cy="300" r="6" fill="#B7DCDC"/>
<circle cx="373.75" cy="300" r="6" fill="#B7DCDC"/>
<circle cx="408.75" cy="300" r="6" fill="#B7DCDC"/>
<circle cx="540" cy="300" r="6" fill="#B7DCDC"/>
<circle cx="662.5" cy="300" r="6" fill="#008080"/>
<text x="662.5" y="286" font-size="12" font-family="'Poppins','Segoe UI',sans-serif" fill="#222222" font-weight="600" text-anchor="middle">Lot 88  62 days</text>
<line x1="120" y1="430" x2="820" y2="430" stroke="#222222" stroke-width="1"/>
<line x1="120" y1="430" x2="120" y2="434" stroke="#222222" stroke-width="1"/>
<text x="120" y="448" font-size="11" font-family="'Poppins','Segoe UI',sans-serif" fill="#555555" font-weight="400" text-anchor="middle">0</text>
<line x1="295" y1="430" x2="295" y2="434" stroke="#222222" stroke-width="1"/>
<text x="295" y="448" font-size="11" font-family="'Poppins','Segoe UI',sans-serif" fill="#555555" font-weight="400" text-anchor="middle">20</text>
<line x1="470" y1="430" x2="470" y2="434" stroke="#222222" stroke-width="1"/>
<text x="470" y="448" font-size="11" font-family="'Poppins','Segoe UI',sans-serif" fill="#555555" font-weight="400" text-anchor="middle">40</text>
<line x1="645" y1="430" x2="645" y2="434" stroke="#222222" stroke-width="1"/>
<text x="645" y="448" font-size="11" font-family="'Poppins','Segoe UI',sans-serif" fill="#555555" font-weight="400" text-anchor="middle">60</text>
<line x1="820" y1="430" x2="820" y2="434" stroke="#222222" stroke-width="1"/>
<text x="820" y="448" font-size="11" font-family="'Poppins','Segoe UI',sans-serif" fill="#555555" font-weight="400" text-anchor="middle">80days</text>
<text x="32" y="516" font-size="11" font-family="'Poppins','Segoe UI',sans-serif" fill="#555555" font-weight="400">Source: customs log, wk 28</text>
</svg>
