<svg xmlns="http://www.w3.org/2000/svg" width="960" height="540" viewBox="0 0 960 540">
<rect width="960" height="540" fill="#FFFFFF"/>
<text x="32" y="56" font-size="24" font-family="Georgia,serif" fill="#1A1A1A" font-weight="700">Two of five KPIs move the wrong way this week</text>
<text x="460" y="136" font-size="10" font-family="Georgia,serif" fill="#333333" font-weight="600" text-anchor="end" letter-spacing="1">VALUE</text>
<text x="580" y="136" font-size="10" font-family="Georgia,serif" fill="#333333" font-weight="600" text-anchor="end" letter-spacing="1">VS LAST WEEK</text>
<text x="640" y="136" font-size="10" font-family="Georgia,serif" fill="#333333" font-weight="600" letter-spacing="1">7-WEEK TREND</text>
<line x1="48" y1="150" x2="840" y2="150" stroke="#B9B9B9" stroke-width="1"/>
<text x="48" y="172" font-size="12" font-family="Georgia,serif" fill="#1A1A1A" font-weight="600" dominant-baseline="middle">Delivery OTD</text>
<text x="460" y="172" font-size="15" font-family="Georgia,serif" fill="#1A1A1A" font-weight="600" text-anchor="end" dominant-baseline="middle">87 %</text>
<text x="580" y="172" font-size="12" font-family="Georgia,serif" fill="#333333" font-weight="600" text-anchor="end" dominant-baseline="middle">+2</text>
<polyline points="640,183 670,178.11 700,180.56 730,173.22 760,168.33 790,165.89 820,161" fill="none" stroke="#B9B9B9" stroke-width="1.5"/>
<circle cx="820" cy="161" r="3.5" fill="#7A1F1F"/>
<line x1="48" y1="194" x2="840" y2="194" stroke="#B9B9B9" stroke-width="1"/>
<text x="48" y="216" font-size="12" font-family="Georgia,serif" fill="#1A1A1A" font-weight="600" dominant-baseline="middle">Test pass rate</text>
<text x="460" y="216" font-size="15" font-family="Georgia,serif" fill="#1A1A1A" font-weight="600" text-anchor="end" dominant-baseline="middle">92 %</text>
<text x="580" y="216" font-size="12" font-family="Georgia,serif" fill="#1A1A1A" font-weight="600" text-anchor="end" dominant-baseline="middle">0</text>
<polyline points="640,227 670,216 700,221.5 730,210.5 760,210.5 790,205 820,205" fill="none" stroke="#B9B9B9" stroke-width="1.5"/>
<circle cx="820" cy="205" r="3.5" fill="#7A1F1F"/>
<line x1="48" y1="238" x2="840" y2="238" stroke="#B9B9B9" stroke-width="1"/>
<text x="48" y="260" font-size="12" font-family="Georgia,serif" fill="#1A1A1A" font-weight="600" dominant-baseline="middle">Docs on time</text>
<text x="460" y="260" font-size="15" font-family="Georgia,serif" fill="#1A1A1A" font-weight="600" text-anchor="end" dominant-baseline="middle">71 %</text>
<text x="580" y="260" font-size="12" font-family="Georgia,serif" fill="#7A1F1F" font-weight="600" text-anchor="end" dominant-baseline="middle">-1</text>
<polyline points="640,249 670,251.44 700,256.33 730,258.78 760,263.67 790,268.56 820,271" fill="none" stroke="#B9B9B9" stroke-width="1.5"/>
<circle cx="820" cy="271" r="3.5" fill="#7A1F1F"/>
<line x1="48" y1="282" x2="840" y2="282" stroke="#B9B9B9" stroke-width="1"/>
<text x="48" y="304" font-size="12" font-family="Georgia,serif" fill="#1A1A1A" font-weight="600" dominant-baseline="middle">Open punch</text>
<text x="460" y="304" font-size="15" font-family="Georgia,serif" fill="#1A1A1A" font-weight="600" text-anchor="end" dominant-baseline="middle">213 items</text>
<text x="580" y="304" font-size="12" font-family="Georgia,serif" fill="#333333" font-weight="600" text-anchor="end" dominant-baseline="middle">-8</text>
<polyline points="640,293 670,297.68 700,300.49 730,303.3 760,307.04 790,311.26 820,315" fill="none" stroke="#B9B9B9" stroke-width="1.5"/>
<circle cx="820" cy="315" r="3.5" fill="#7A1F1F"/>
<line x1="48" y1="326" x2="840" y2="326" stroke="#B9B9B9" stroke-width="1"/>
<text x="48" y="348" font-size="12" font-family="Georgia,serif" fill="#1A1A1A" font-weight="600" dominant-baseline="middle">Stock cover</text>
<text x="460" y="348" font-size="15" font-family="Georgia,serif" fill="#1A1A1A" font-weight="600" text-anchor="end" dominant-baseline="middle">41 days</text>
<text x="580" y="348" font-size="12" font-family="Georgia,serif" fill="#1A1A1A" font-weight="600" text-anchor="end" dominant-baseline="middle">0</text>
<polyline points="640,337 670,337 700,342.74 730,342.74 760,351.35 790,359 820,359" fill="none" stroke="#B9B9B9" stroke-width="1.5"/>
<circle cx="820" cy="359" r="3.5" fill="#7A1F1F"/>
<line x1="48" y1="370" x2="840" y2="370" stroke="#B9B9B9" stroke-width="1"/>
<text x="32" y="516" font-size="11" font-family="Georgia,serif" fill="#333333" font-weight="400">Source: sample dataset v1, 2026-07-12</text>
</svg>
