<svg xmlns="http://www.w3.org/2000/svg" width="960" height="540" viewBox="0 0 960 540">
<rect width="960" height="540" fill="#FFFFFF"/>
<text x="32" y="56" font-size="24" font-family="Cambria,Georgia,serif" fill="#1F3864" font-weight="700">System D touches six of seven systems</text>
<line x1="480" y1="277.5" x2="276" y2="190" stroke="#8EAADB" stroke-width="3.67" stroke-opacity="0.6"/>
<line x1="480" y1="277.5" x2="650" y2="172.5" stroke="#8EAADB" stroke-width="5" stroke-opacity="0.6"/>
<line x1="480" y1="277.5" x2="718" y2="312.5" stroke="#8EAADB" stroke-width="3" stroke-opacity="0.6"/>
<line x1="480" y1="277.5" x2="616" y2="417.5" stroke="#8EAADB" stroke-width="4.33" stroke-opacity="0.6"/>
<line x1="480" y1="277.5" x2="310" y2="400" stroke="#8EAADB" stroke-width="2.33" stroke-opacity="0.6"/>
<line x1="480" y1="277.5" x2="208" y2="295" stroke="#8EAADB" stroke-width="2.33" stroke-opacity="0.6"/>
<line x1="276" y1="190" x2="650" y2="172.5" stroke="#8EAADB" stroke-width="2.33" stroke-opacity="0.6"/>
<line x1="718" y1="312.5" x2="616" y2="417.5" stroke="#8EAADB" stroke-width="1.67" stroke-opacity="0.6"/>
<line x1="616" y1="417.5" x2="310" y2="400" stroke="#8EAADB" stroke-width="1.67" stroke-opacity="0.6"/>
<circle cx="480" cy="277.5" r="30" fill="#1F3864" stroke="#FFFFFF" stroke-width="2"/>
<text x="480" y="240.5" font-size="12" font-family="Cambria,Georgia,serif" fill="#262626" font-weight="600" text-anchor="middle">D  24 interfaces</text>
<circle cx="276" cy="190" r="19.36" fill="#A9BBD9" stroke="#FFFFFF" stroke-width="2"/>
<text x="276" y="163.64" font-size="12" font-family="Cambria,Georgia,serif" fill="#262626" font-weight="400" text-anchor="middle">A  10</text>
<circle cx="650" cy="172.5" r="21.21" fill="#A9BBD9" stroke="#FFFFFF" stroke-width="2"/>
<text x="650" y="144.29" font-size="12" font-family="Cambria,Georgia,serif" fill="#262626" font-weight="400" text-anchor="middle">B  12</text>
<circle cx="718" cy="312.5" r="17.32" fill="#A9BBD9" stroke="#FFFFFF" stroke-width="2"/>
<text x="718" y="288.18" font-size="12" font-family="Cambria,Georgia,serif" fill="#262626" font-weight="400" text-anchor="middle">C  8</text>
<circle cx="616" cy="417.5" r="18.37" fill="#A9BBD9" stroke="#FFFFFF" stroke-width="2"/>
<text x="616" y="392.13" font-size="12" font-family="Cambria,Georgia,serif" fill="#262626" font-weight="400" text-anchor="middle">E  9</text>
<circle cx="310" cy="400" r="16.2" fill="#A9BBD9" stroke="#FFFFFF" stroke-width="2"/>
<text x="310" y="376.8" font-size="12" font-family="Cambria,Georgia,serif" fill="#262626" font-weight="400" text-anchor="middle">F  7</text>
<circle cx="208" cy="295" r="13.69" fill="#A9BBD9" stroke="#FFFFFF" stroke-width="2"/>
<text x="208" y="274.31" font-size="12" font-family="Cambria,Georgia,serif" fill="#262626" font-weight="400" text-anchor="middle">G  5</text>
<text x="32" y="516" font-size="11" font-family="Cambria,Georgia,serif" fill="#262626" font-weight="400">Source: sample dataset v1, 2026-07-12</text>
</svg>
