<svg xmlns="http://www.w3.org/2000/svg" width="960" height="540" viewBox="0 0 960 540">
<rect width="960" height="540" fill="#FFFFFF"/>
<text x="32" y="56" font-size="24" font-family="Georgia,serif" fill="#1A1A1A" font-weight="700">MST overruns its planned test duration by 3 days</text>
<text x="536.89" y="149" font-size="10" font-family="Georgia,serif" fill="#B9B9B9" font-weight="600" text-anchor="middle">Planned</text>
<text x="602.67" y="149" font-size="10" font-family="Georgia,serif" fill="#7A1F1F" font-weight="600" text-anchor="middle">Actual</text>
<line x1="536.89" y1="165" x2="602.67" y2="165" stroke="#B9B9B9" stroke-width="2"/>
<circle cx="536.89" cy="165" r="6" fill="#B9B9B9"/>
<circle cx="602.67" cy="165" r="6" fill="#7A1F1F"/>
<text x="614.67" y="165" font-size="11" font-family="Georgia,serif" fill="#1A1A1A" font-weight="400" dominant-baseline="middle">5 &gt; 6 days</text>
<text x="192" y="165" font-size="12" font-family="Georgia,serif" fill="#333333" font-weight="400" text-anchor="end" dominant-baseline="middle">PS1</text>
<line x1="471.11" y1="217" x2="536.89" y2="217" stroke="#B9B9B9" stroke-width="2"/>
<circle cx="471.11" cy="217" r="6" fill="#B9B9B9"/>
<circle cx="536.89" cy="217" r="6" fill="#7A1F1F"/>
<text x="548.89" y="217" font-size="11" font-family="Georgia,serif" fill="#1A1A1A" font-weight="400" dominant-baseline="middle">4 &gt; 5</text>
<text x="192" y="217" font-size="12" font-family="Georgia,serif" fill="#333333" font-weight="400" text-anchor="end" dominant-baseline="middle">PS4</text>
<line x1="602.67" y1="269" x2="800" y2="269" stroke="#B9B9B9" stroke-width="2"/>
<circle cx="602.67" cy="269" r="6" fill="#B9B9B9"/>
<circle cx="800" cy="269" r="6" fill="#7A1F1F"/>
<text x="812" y="269" font-size="11" font-family="Georgia,serif" fill="#1A1A1A" font-weight="400" dominant-baseline="middle">6 &gt; 9</text>
<text x="192" y="269" font-size="12" font-family="Georgia,serif" fill="#333333" font-weight="400" text-anchor="end" dominant-baseline="middle">MST</text>
<line x1="536.89" y1="321" x2="602.67" y2="321" stroke="#B9B9B9" stroke-width="2"/>
<circle cx="536.89" cy="321" r="6" fill="#B9B9B9"/>
<circle cx="602.67" cy="321" r="6" fill="#7A1F1F"/>
<text x="614.67" y="321" font-size="11" font-family="Georgia,serif" fill="#1A1A1A" font-weight="400" dominant-baseline="middle">5 &gt; 6</text>
<text x="192" y="321" font-size="12" font-family="Georgia,serif" fill="#333333" font-weight="400" text-anchor="end" dominant-baseline="middle">PS5</text>
<text x="32" y="516" font-size="11" font-family="Georgia,serif" fill="#333333" font-weight="400">Source: sample dataset v1, 2026-07-12</text>
</svg>
