<svg xmlns="http://www.w3.org/2000/svg" width="960" height="540" viewBox="0 0 960 540">
<rect width="960" height="540" fill="#FBFDFF"/>
<text x="32" y="56" font-size="24" font-family="'Segoe UI',Arial,sans-serif" fill="#143D59" font-weight="600">Delivered share climbed to 90%, up 12 points in four weeks</text>
<rect x="125.5" y="206.27" width="56" height="225.73" fill="#1B6E8F"/>
<rect x="125.5" y="170.69" width="56" height="35.58" fill="#C6D5E0"/>
<rect x="125.5" y="144" width="56" height="26.69" fill="#C6D5E0"/>
<text x="153.5" y="136" font-size="12" font-family="'Segoe UI',Arial,sans-serif" fill="#143D59" font-weight="400" text-anchor="middle">78%</text>
<text x="153.5" y="452" font-size="10" font-family="'Segoe UI',Arial,sans-serif" fill="#33424E" font-weight="400" text-anchor="middle">W25</text>
<rect x="304.5" y="190.25" width="56" height="241.75" fill="#1B6E8F"/>
<rect x="304.5" y="162.14" width="56" height="28.11" fill="#C6D5E0"/>
<rect x="304.5" y="144" width="56" height="18.14" fill="#C6D5E0"/>
<text x="332.5" y="136" font-size="12" font-family="'Segoe UI',Arial,sans-serif" fill="#143D59" font-weight="400" text-anchor="middle">84%</text>
<text x="332.5" y="452" font-size="10" font-family="'Segoe UI',Arial,sans-serif" fill="#33424E" font-weight="400" text-anchor="middle">W26</text>
<rect x="483.5" y="178.83" width="56" height="253.17" fill="#1B6E8F"/>
<rect x="483.5" y="156.37" width="56" height="22.45" fill="#C6D5E0"/>
<rect x="483.5" y="144" width="56" height="12.37" fill="#C6D5E0"/>
<text x="511.5" y="136" font-size="12" font-family="'Segoe UI',Arial,sans-serif" fill="#143D59" font-weight="400" text-anchor="middle">88%</text>
<text x="511.5" y="452" font-size="10" font-family="'Segoe UI',Arial,sans-serif" fill="#33424E" font-weight="400" text-anchor="middle">W27</text>
<rect x="662.5" y="171.77" width="56" height="260.23" fill="#1B6E8F"/>
<rect x="662.5" y="152.31" width="56" height="19.46" fill="#C6D5E0"/>
<rect x="662.5" y="144" width="56" height="8.31" fill="#C6D5E0"/>
<text x="690.5" y="136" font-size="12" font-family="'Segoe UI',Arial,sans-serif" fill="#143D59" font-weight="400" text-anchor="middle">90%</text>
<text x="690.5" y="452" font-size="10" font-family="'Segoe UI',Arial,sans-serif" fill="#33424E" font-weight="400" text-anchor="middle">W28</text>
<rect x="796" y="297.88" width="8" height="8" fill="#1B6E8F"/>
<text x="810" y="301.88" font-size="10" font-family="'Segoe UI',Arial,sans-serif" fill="#33424E" font-weight="400" dominant-baseline="middle">Delivered</text>
<rect x="796" y="158.04" width="8" height="8" fill="#C6D5E0"/>
<text x="810" y="162.04" font-size="10" font-family="'Segoe UI',Arial,sans-serif" fill="#33424E" font-weight="400" dominant-baseline="middle">In transit</text>
<rect x="796" y="144.15" width="8" height="8" fill="#C6D5E0"/>
<text x="810" y="148.15" font-size="10" font-family="'Segoe UI',Arial,sans-serif" fill="#33424E" font-weight="400" dominant-baseline="middle">Pending</text>
<line x1="64" y1="432" x2="780" y2="432" stroke="#C6D5E0" stroke-width="1"/>
<text x="32" y="516" font-size="11" font-family="'Segoe UI',Arial,sans-serif" fill="#33424E" font-weight="400">Source: sample dataset v1, 2026-07-12</text>
</svg>
