<svg xmlns="http://www.w3.org/2000/svg" width="960" height="540" viewBox="0 0 960 540">
<rect width="960" height="540" fill="#FDF4EA"/>
<rect x="32" y="28" width="24" height="4" fill="#9E2B25"/>
<text x="32" y="52" font-size="11" font-family="'Segoe UI',Arial,sans-serif" fill="#4A4E57" font-weight="600" letter-spacing="2">INTER-YARD TRANSFERS . JUNE</text>
<text x="32" y="88" font-size="24" font-family="'Oswald','Arial Narrow',Arial,sans-serif" fill="#262A33" font-weight="700">The north-central lane carries the heaviest exchange</text>
<path d="M 566.75,199.9 Q 430,320 501.67,487.29" fill="none" stroke="#9E2B25" stroke-width="17.5" stroke-opacity="0.45"/>
<path d="M 566.75,199.9 Q 430,320 262.76,391.8" fill="none" stroke="#9E2B25" stroke-width="6.83" stroke-opacity="0.45"/>
<path d="M 566.75,199.9 Q 430,320 277.87,220.1" fill="none" stroke="#9E2B25" stroke-width="5.06" stroke-opacity="0.45"/>
<path d="M 566.75,199.9 Q 430,320 375.66,146.3" fill="none" stroke="#9E2B25" stroke-width="3.28" stroke-opacity="0.45"/>
<path d="M 501.67,487.29 Q 430,320 566.75,199.9" fill="none" stroke="#AD4C45" stroke-width="12.17" stroke-opacity="0.45"/>
<path d="M 501.67,487.29 Q 430,320 262.76,391.8" fill="none" stroke="#AD4C45" stroke-width="8.61" stroke-opacity="0.45"/>
<path d="M 501.67,487.29 Q 430,320 277.87,220.1" fill="none" stroke="#AD4C45" stroke-width="5.94" stroke-opacity="0.45"/>
<path d="M 501.67,487.29 Q 430,320 375.66,146.3" fill="none" stroke="#AD4C45" stroke-width="4.17" stroke-opacity="0.45"/>
<path d="M 262.76,391.8 Q 430,320 566.75,199.9" fill="none" stroke="#BD6C65" stroke-width="5.06" stroke-opacity="0.45"/>
<path d="M 262.76,391.8 Q 430,320 501.67,487.29" fill="none" stroke="#BD6C65" stroke-width="6.83" stroke-opacity="0.45"/>
<path d="M 262.76,391.8 Q 430,320 277.87,220.1" fill="none" stroke="#BD6C65" stroke-width="4.17" stroke-opacity="0.45"/>
<path d="M 262.76,391.8 Q 430,320 375.66,146.3" fill="none" stroke="#BD6C65" stroke-width="3.28" stroke-opacity="0.45"/>
<path d="M 277.87,220.1 Q 430,320 566.75,199.9" fill="none" stroke="#CC8D85" stroke-width="4.17" stroke-opacity="0.45"/>
<path d="M 277.87,220.1 Q 430,320 501.67,487.29" fill="none" stroke="#CC8D85" stroke-width="5.06" stroke-opacity="0.45"/>
<path d="M 277.87,220.1 Q 430,320 262.76,391.8" fill="none" stroke="#CC8D85" stroke-width="3.28" stroke-opacity="0.45"/>
<path d="M 277.87,220.1 Q 430,320 375.66,146.3" fill="none" stroke="#CC8D85" stroke-width="2.39" stroke-opacity="0.45"/>
<path d="M 375.66,146.3 Q 430,320 566.75,199.9" fill="none" stroke="#DCAEA5" stroke-width="3.28" stroke-opacity="0.45"/>
<path d="M 375.66,146.3 Q 430,320 501.67,487.29" fill="none" stroke="#DCAEA5" stroke-width="3.28" stroke-opacity="0.45"/>
<path d="M 375.66,146.3 Q 430,320 262.76,391.8" fill="none" stroke="#DCAEA5" stroke-width="2.39" stroke-opacity="0.45"/>
<path d="M 375.66,146.3 Q 430,320 277.87,220.1" fill="none" stroke="#DCAEA5" stroke-width="2.39" stroke-opacity="0.45"/>
<path d="M 430,130 A 190 190 0 0 1 618.41,344.52" fill="none" stroke="#9E2B25" stroke-width="10"/>
<text x="583.28" y="185.38" font-size="11" font-family="'Segoe UI',Arial,sans-serif" fill="#4A4E57" font-weight="400" dominant-baseline="middle">North  51 loads</text>
<path d="M 616.24,357.61 A 190 190 0 0 1 328.75,480.77" fill="none" stroke="#AD4C45" stroke-width="10"/>
<text x="510.33" y="507.52" font-size="11" font-family="'Segoe UI',Arial,sans-serif" fill="#4A4E57" font-weight="400" dominant-baseline="middle">Central  58</text>
<path d="M 317.78,473.32 A 190 190 0 0 1 241.55,295.77" fill="none" stroke="#BD6C65" stroke-width="10"/>
<text x="242.55" y="400.48" font-size="11" font-family="'Segoe UI',Arial,sans-serif" fill="#4A4E57" font-weight="400" text-anchor="end" dominant-baseline="middle">South  32</text>
<path d="M 243.7,282.69 A 190 190 0 0 1 321.72,163.87" fill="none" stroke="#CC8D85" stroke-width="10"/>
<text x="259.48" y="208.02" font-size="11" font-family="'Segoe UI',Arial,sans-serif" fill="#4A4E57" font-weight="400" text-anchor="end" dominant-baseline="middle">East  23</text>
<path d="M 332.88,156.7 A 190 190 0 0 1 416.75,130.46" fill="none" stroke="#DCAEA5" stroke-width="10"/>
<text x="369.09" y="125.3" font-size="11" font-family="'Segoe UI',Arial,sans-serif" fill="#4A4E57" font-weight="400" text-anchor="end" dominant-baseline="middle">West  14</text>
<text x="32" y="516" font-size="11" font-family="'Segoe UI',Arial,sans-serif" fill="#4A4E57" font-weight="400">Source: sample dataset v1, 2026-07-12</text>
</svg>
