<svg xmlns="http://www.w3.org/2000/svg" width="960" height="540" viewBox="0 0 960 540">
<rect width="960" height="540" fill="#FFFFFF"/>
<text x="32" y="56" font-size="24" font-family="Georgia,serif" fill="#111111" font-weight="700">Gate C reviews run three times longer at the median</text>
<line x1="237.1" y1="178" x2="266.2" y2="178" stroke="#111111" stroke-width="1.5"/>
<line x1="338.95" y1="178" x2="411.7" y2="178" stroke="#111111" stroke-width="1.5"/>
<line x1="237.1" y1="172" x2="237.1" y2="184" stroke="#111111" stroke-width="1.5"/>
<line x1="411.7" y1="172" x2="411.7" y2="184" stroke="#111111" stroke-width="1.5"/>
<rect x="266.2" y="169" width="72.75" height="18" fill="#B0B0B0"/>
<line x1="295.3" y1="169" x2="295.3" y2="187" stroke="#C0182B" stroke-width="2.5"/>
<text x="192" y="178" font-size="13" font-family="'Segoe UI',Arial,sans-serif" fill="#2E2E2E" font-weight="400" text-anchor="end" dominant-baseline="middle">Gate A</text>
<text x="423.7" y="178" font-size="11" font-family="'Segoe UI',Arial,sans-serif" fill="#111111" font-weight="400" dominant-baseline="middle">median 6 days</text>
<line x1="251.65" y1="234" x2="295.3" y2="234" stroke="#111111" stroke-width="1.5"/>
<line x1="397.15" y1="234" x2="484.45" y2="234" stroke="#111111" stroke-width="1.5"/>
<line x1="251.65" y1="228" x2="251.65" y2="240" stroke="#111111" stroke-width="1.5"/>
<line x1="484.45" y1="228" x2="484.45" y2="240" stroke="#111111" stroke-width="1.5"/>
<rect x="295.3" y="225" width="101.85" height="18" fill="#B0B0B0"/>
<line x1="338.95" y1="225" x2="338.95" y2="243" stroke="#C0182B" stroke-width="2.5"/>
<text x="192" y="234" font-size="13" font-family="'Segoe UI',Arial,sans-serif" fill="#2E2E2E" font-weight="400" text-anchor="end" dominant-baseline="middle">Gate B</text>
<text x="496.45" y="234" font-size="11" font-family="'Segoe UI',Arial,sans-serif" fill="#111111" font-weight="400" dominant-baseline="middle">9</text>
<line x1="295.3" y1="290" x2="382.6" y2="290" stroke="#111111" stroke-width="1.5"/>
<line x1="586.3" y1="290" x2="760.9" y2="290" stroke="#111111" stroke-width="1.5"/>
<line x1="295.3" y1="284" x2="295.3" y2="296" stroke="#111111" stroke-width="1.5"/>
<line x1="760.9" y1="284" x2="760.9" y2="296" stroke="#111111" stroke-width="1.5"/>
<rect x="382.6" y="281" width="203.7" height="18" fill="#B0B0B0"/>
<line x1="469.9" y1="281" x2="469.9" y2="299" stroke="#C0182B" stroke-width="2.5"/>
<text x="192" y="290" font-size="13" font-family="'Segoe UI',Arial,sans-serif" fill="#2E2E2E" font-weight="600" text-anchor="end" dominant-baseline="middle">Gate C</text>
<text x="772.9" y="290" font-size="11" font-family="'Segoe UI',Arial,sans-serif" fill="#111111" font-weight="400" dominant-baseline="middle">18</text>
<line x1="251.65" y1="346" x2="280.75" y2="346" stroke="#111111" stroke-width="1.5"/>
<line x1="382.6" y1="346" x2="513.55" y2="346" stroke="#111111" stroke-width="1.5"/>
<line x1="251.65" y1="340" x2="251.65" y2="352" stroke="#111111" stroke-width="1.5"/>
<line x1="513.55" y1="340" x2="513.55" y2="352" stroke="#111111" stroke-width="1.5"/>
<rect x="280.75" y="337" width="101.85" height="18" fill="#B0B0B0"/>
<line x1="324.4" y1="337" x2="324.4" y2="355" stroke="#C0182B" stroke-width="2.5"/>
<text x="192" y="346" font-size="13" font-family="'Segoe UI',Arial,sans-serif" fill="#2E2E2E" font-weight="400" text-anchor="end" dominant-baseline="middle">Gate D</text>
<text x="525.55" y="346" font-size="11" font-family="'Segoe UI',Arial,sans-serif" fill="#111111" font-weight="400" dominant-baseline="middle">8</text>
<line x1="237.1" y1="402" x2="280.75" y2="402" stroke="#111111" stroke-width="1.5"/>
<line x1="353.5" y1="402" x2="440.8" y2="402" stroke="#111111" stroke-width="1.5"/>
<line x1="237.1" y1="396" x2="237.1" y2="408" stroke="#111111" stroke-width="1.5"/>
<line x1="440.8" y1="396" x2="440.8" y2="408" stroke="#111111" stroke-width="1.5"/>
<rect x="280.75" y="393" width="72.75" height="18" fill="#B0B0B0"/>
<line x1="309.85" y1="393" x2="309.85" y2="411" stroke="#C0182B" stroke-width="2.5"/>
<text x="192" y="402" font-size="13" font-family="'Segoe UI',Arial,sans-serif" fill="#2E2E2E" font-weight="400" text-anchor="end" dominant-baseline="middle">Gate E</text>
<text x="452.8" y="402" font-size="11" font-family="'Segoe UI',Arial,sans-serif" fill="#111111" font-weight="400" dominant-baseline="middle">7</text>
<line x1="208" y1="432" x2="790" y2="432" stroke="#111111" stroke-width="1"/>
<line x1="208" y1="432" x2="208" y2="436" stroke="#111111" stroke-width="1"/>
<text x="208" y="450" font-size="11" font-family="'Segoe UI',Arial,sans-serif" fill="#2E2E2E" font-weight="400" text-anchor="middle">0</text>
<line x1="353.5" y1="432" x2="353.5" y2="436" stroke="#111111" stroke-width="1"/>
<text x="353.5" y="450" font-size="11" font-family="'Segoe UI',Arial,sans-serif" fill="#2E2E2E" font-weight="400" text-anchor="middle">10</text>
<line x1="499" y1="432" x2="499" y2="436" stroke="#111111" stroke-width="1"/>
<text x="499" y="450" font-size="11" font-family="'Segoe UI',Arial,sans-serif" fill="#2E2E2E" font-weight="400" text-anchor="middle">20</text>
<line x1="644.5" y1="432" x2="644.5" y2="436" stroke="#111111" stroke-width="1"/>
<text x="644.5" y="450" font-size="11" font-family="'Segoe UI',Arial,sans-serif" fill="#2E2E2E" font-weight="400" text-anchor="middle">30</text>
<line x1="790" y1="432" x2="790" y2="436" stroke="#111111" stroke-width="1"/>
<text x="790" y="450" font-size="11" font-family="'Segoe UI',Arial,sans-serif" fill="#2E2E2E" font-weight="400" text-anchor="middle">40days</text>
<text x="32" y="516" font-size="11" font-family="'Segoe UI',Arial,sans-serif" fill="#2E2E2E" font-weight="400">Source: document register, H1</text>
</svg>
