<svg xmlns="http://www.w3.org/2000/svg" width="960" height="540" viewBox="0 0 960 540">
<rect width="960" height="540" fill="#FFFFFF"/>
<text x="32" y="56" font-size="24" font-family="Georgia,serif" fill="#1A1A1A" font-weight="700">The corridor is 55% complete, past the river crossing</text>
<polyline points="138,402 252,334 388.8,306.8 518,283 632,249 746,198" fill="none" stroke="#B9B9B9" stroke-width="5"/>
<polyline points="138,402 252,334 388.8,306.8 471.29,291.61" fill="none" stroke="#7A1F1F" stroke-width="5"/>
<circle cx="138" cy="402" r="6" fill="#7A1F1F"/>
<text x="138" y="386" font-size="11" font-family="Georgia,serif" fill="#333333" font-weight="400" text-anchor="middle">Start terminal</text>
<circle cx="261.51" cy="332.11" r="6" fill="#7A1F1F"/>
<text x="261.51" y="354.11" font-size="11" font-family="Georgia,serif" fill="#333333" font-weight="400" text-anchor="middle">Pump station 1</text>
<circle cx="426.72" cy="299.82" r="6" fill="#7A1F1F"/>
<text x="426.72" y="283.82" font-size="11" font-family="Georgia,serif" fill="#333333" font-weight="400" text-anchor="middle">River crossing</text>
<path d="M 471.29,282.61 L 480.29,291.61 L 471.29,300.61 L 462.29,291.61 Z" fill="#7A1F1F"/>
<text x="471.29" y="313.61" font-size="11" font-family="Georgia,serif" fill="#333333" font-weight="600" text-anchor="middle">Hill section</text>
<circle cx="596.57" cy="259.57" r="6" fill="#B9B9B9"/>
<text x="596.57" y="243.57" font-size="11" font-family="Georgia,serif" fill="#333333" font-weight="400" text-anchor="middle">Pump station 2</text>
<circle cx="746" cy="198" r="6" fill="#B9B9B9"/>
<text x="746" y="220" font-size="11" font-family="Georgia,serif" fill="#333333" font-weight="400" text-anchor="middle">End terminal</text>
<text x="481.29" y="281.61" font-size="12" font-family="Georgia,serif" fill="#7A1F1F" font-weight="600">55% complete</text>
<text x="32" y="516" font-size="11" font-family="Georgia,serif" fill="#333333" font-weight="400">Source: sample dataset v1, 2026-07-12</text>
</svg>
