<svg xmlns="http://www.w3.org/2000/svg" width="960" height="540" viewBox="0 0 960 540">
<rect width="960" height="540" fill="#FFFFFF"/>
<text x="32" y="56" font-size="24" font-family="'Segoe UI',Arial,sans-serif" fill="#1A1A1A" font-weight="700">Cumulative progress reached 63% in August, 9 points behind plan</text>
<line x1="96" y1="452" x2="756" y2="452" stroke="#D9D6D2" stroke-width="1"/>
<text x="84" y="452" font-size="12" font-family="'Segoe UI',Arial,sans-serif" fill="#444444" font-weight="400" text-anchor="end" dominant-baseline="middle">0</text>
<line x1="96" y1="371" x2="756" y2="371" stroke="#E8E6E2" stroke-width="1"/>
<text x="84" y="371" font-size="12" font-family="'Segoe UI',Arial,sans-serif" fill="#444444" font-weight="400" text-anchor="end" dominant-baseline="middle">20</text>
<line x1="96" y1="290" x2="756" y2="290" stroke="#E8E6E2" stroke-width="1"/>
<text x="84" y="290" font-size="12" font-family="'Segoe UI',Arial,sans-serif" fill="#444444" font-weight="400" text-anchor="end" dominant-baseline="middle">40</text>
<line x1="96" y1="209" x2="756" y2="209" stroke="#E8E6E2" stroke-width="1"/>
<text x="84" y="209" font-size="12" font-family="'Segoe UI',Arial,sans-serif" fill="#444444" font-weight="400" text-anchor="end" dominant-baseline="middle">60</text>
<line x1="96" y1="128" x2="756" y2="128" stroke="#E8E6E2" stroke-width="1"/>
<text x="84" y="128" font-size="12" font-family="'Segoe UI',Arial,sans-serif" fill="#444444" font-weight="400" text-anchor="end" dominant-baseline="middle">80%</text>
<text x="96" y="472" font-size="12" font-family="'Segoe UI',Arial,sans-serif" fill="#444444" font-weight="400" text-anchor="middle">Jan</text>
<text x="190.29" y="472" font-size="12" font-family="'Segoe UI',Arial,sans-serif" fill="#444444" font-weight="400" text-anchor="middle">Feb</text>
<text x="284.57" y="472" font-size="12" font-family="'Segoe UI',Arial,sans-serif" fill="#444444" font-weight="400" text-anchor="middle">Mar</text>
<text x="378.86" y="472" font-size="12" font-family="'Segoe UI',Arial,sans-serif" fill="#444444" font-weight="400" text-anchor="middle">Apr</text>
<text x="473.14" y="472" font-size="12" font-family="'Segoe UI',Arial,sans-serif" fill="#444444" font-weight="400" text-anchor="middle">May</text>
<text x="567.43" y="472" font-size="12" font-family="'Segoe UI',Arial,sans-serif" fill="#444444" font-weight="400" text-anchor="middle">Jun</text>
<text x="661.71" y="472" font-size="12" font-family="'Segoe UI',Arial,sans-serif" fill="#444444" font-weight="400" text-anchor="middle">Jul</text>
<text x="756" y="472" font-size="12" font-family="'Segoe UI',Arial,sans-serif" fill="#444444" font-weight="400" text-anchor="middle">Aug</text>
<polyline points="96,435.8 190.29,411.5 284.57,375.05 378.86,330.5 473.14,281.9 567.43,233.3 661.71,192.8 756,160.4" fill="none" stroke="#8C8880" stroke-width="2"/>
<text x="766" y="160.4" font-size="14" font-family="'Segoe UI',Arial,sans-serif" fill="#444444" font-weight="400" dominant-baseline="middle">Plan</text>
<polyline points="96,439.85 190.29,419.6 284.57,387.2 378.86,346.7 473.14,306.2 567.43,265.7 661.71,229.25 756,196.85" fill="none" stroke="#C4001A" stroke-width="2.5"/>
<text x="766" y="196.85" font-size="14" font-family="'Segoe UI',Arial,sans-serif" fill="#C4001A" font-weight="600" dominant-baseline="middle">Actual</text>
<line x1="567.43" y1="265.7" x2="524" y2="325" stroke="#444444" stroke-width="1"/>
<text x="520" y="330" font-size="12" font-family="'Segoe UI',Arial,sans-serif" fill="#444444" font-weight="400" text-anchor="end" font-style="italic">slippage steady since May</text>
<text x="32" y="516" font-size="11" font-family="'Segoe UI',Arial,sans-serif" fill="#444444" font-weight="400">Source: sample dataset v1, 2026-07-12</text>
</svg>
