<svg xmlns="http://www.w3.org/2000/svg" width="960" height="540" viewBox="0 0 960 540">
<rect width="960" height="540" fill="#FFFFFF"/>
<text x="32" y="56" font-size="24" font-family="Georgia,serif" fill="#1A1A1A" font-weight="700">Forecast lands 18 points over budget; logistics drives two thirds of the overrun</text>
<rect x="105.33" y="199.74" width="56" height="232.26" fill="#1A1A1A"/>
<text x="133.33" y="191.74" font-size="12" font-family="Georgia,serif" fill="#1A1A1A" font-weight="400" text-anchor="middle">100 pts</text>
<rect x="244" y="171.87" width="56" height="27.87" fill="#7A1F1F"/>
<text x="272" y="163.87" font-size="12" font-family="Georgia,serif" fill="#1A1A1A" font-weight="400" text-anchor="middle">+12</text>
<rect x="382.67" y="153.29" width="56" height="18.58" fill="#7A1F1F"/>
<text x="410.67" y="145.29" font-size="12" font-family="Georgia,serif" fill="#1A1A1A" font-weight="400" text-anchor="middle">+8</text>
<rect x="521.33" y="144" width="56" height="9.29" fill="#7A1F1F"/>
<text x="549.33" y="136" font-size="12" font-family="Georgia,serif" fill="#1A1A1A" font-weight="400" text-anchor="middle">+4</text>
<rect x="660" y="144" width="56" height="13.94" fill="#333333"/>
<text x="688" y="136" font-size="12" font-family="Georgia,serif" fill="#1A1A1A" font-weight="400" text-anchor="middle">-6</text>
<rect x="798.67" y="157.94" width="56" height="274.06" fill="#1A1A1A"/>
<text x="826.67" y="149.94" font-size="12" font-family="Georgia,serif" fill="#1A1A1A" font-weight="600" text-anchor="middle">118</text>
<line x1="161.33" y1="199.74" x2="244" y2="199.74" stroke="#B9B9B9" stroke-width="1" stroke-dasharray="4 3"/>
<line x1="300" y1="171.87" x2="382.67" y2="171.87" stroke="#B9B9B9" stroke-width="1" stroke-dasharray="4 3"/>
<line x1="438.67" y1="153.29" x2="521.33" y2="153.29" stroke="#B9B9B9" stroke-width="1" stroke-dasharray="4 3"/>
<line x1="577.33" y1="144" x2="660" y2="144" stroke="#B9B9B9" stroke-width="1" stroke-dasharray="4 3"/>
<line x1="716" y1="157.94" x2="798.67" y2="157.94" stroke="#B9B9B9" stroke-width="1" stroke-dasharray="4 3"/>
<text x="133.33" y="452" font-size="10" font-family="Georgia,serif" fill="#333333" font-weight="400" text-anchor="middle">Budget</text>
<text x="272" y="452" font-size="10" font-family="Georgia,serif" fill="#333333" font-weight="400" text-anchor="middle">Logistics</text>
<text x="410.67" y="452" font-size="10" font-family="Georgia,serif" fill="#333333" font-weight="400" text-anchor="middle">Rework</text>
<text x="549.33" y="452" font-size="10" font-family="Georgia,serif" fill="#333333" font-weight="400" text-anchor="middle">FX</text>
<text x="688" y="452" font-size="10" font-family="Georgia,serif" fill="#333333" font-weight="400" text-anchor="middle">Scope savings</text>
<text x="826.67" y="452" font-size="10" font-family="Georgia,serif" fill="#333333" font-weight="400" text-anchor="middle">Forecast</text>
<line x1="64" y1="432" x2="896" y2="432" stroke="#B9B9B9" stroke-width="1"/>
<text x="32" y="516" font-size="11" font-family="Georgia,serif" fill="#333333" font-weight="400">Source: sample dataset v1, 2026-07-12</text>
</svg>
