<svg xmlns="http://www.w3.org/2000/svg" width="960" height="540" viewBox="0 0 960 540">
<rect width="960" height="540" fill="#FDF4EA"/>
<rect x="32" y="28" width="24" height="4" fill="#9E2B25"/>
<text x="32" y="52" font-size="11" font-family="'Segoe UI',Arial,sans-serif" fill="#4A4E57" font-weight="600" letter-spacing="2">CAPABILITY PROFILE</text>
<text x="32" y="88" font-size="24" font-family="'Oswald','Arial Narrow',Arial,sans-serif" fill="#262A33" font-weight="700">The profile gap is discipline coverage, not depth</text>
<polygon points="430,280 458.53,300.73 447.63,334.27 412.37,334.27 401.47,300.73" fill="none" stroke="#E8E0D4" stroke-width="1"/>
<polygon points="430,250 487.06,291.46 465.27,358.54 394.73,358.54 372.94,291.46" fill="none" stroke="#E8E0D4" stroke-width="1"/>
<polygon points="430,220 515.6,282.19 482.9,382.81 377.1,382.81 344.4,282.19" fill="none" stroke="#E8E0D4" stroke-width="1"/>
<polygon points="430,190 544.13,272.92 500.53,407.08 359.47,407.08 315.87,272.92" fill="none" stroke="#E8E0D4" stroke-width="1"/>
<polygon points="430,160 572.66,263.65 518.17,431.35 341.83,431.35 287.34,263.65" fill="none" stroke="#E8E0D4" stroke-width="1"/>
<line x1="430" y1="310" x2="430" y2="160" stroke="#E8E0D4" stroke-width="1"/>
<text x="430" y="142" font-size="11" font-family="'Segoe UI',Arial,sans-serif" fill="#4A4E57" font-weight="400" text-anchor="middle" dominant-baseline="middle">Mechanical</text>
<line x1="430" y1="310" x2="572.66" y2="263.65" stroke="#E8E0D4" stroke-width="1"/>
<text x="589.78" y="258.09" font-size="11" font-family="'Segoe UI',Arial,sans-serif" fill="#4A4E57" font-weight="400" dominant-baseline="middle">Electrical</text>
<line x1="430" y1="310" x2="518.17" y2="431.35" stroke="#E8E0D4" stroke-width="1"/>
<text x="528.75" y="445.91" font-size="11" font-family="'Segoe UI',Arial,sans-serif" fill="#4A4E57" font-weight="400" dominant-baseline="middle">Instrumentation</text>
<line x1="430" y1="310" x2="341.83" y2="431.35" stroke="#E8E0D4" stroke-width="1"/>
<text x="331.25" y="445.91" font-size="11" font-family="'Segoe UI',Arial,sans-serif" fill="#4A4E57" font-weight="400" text-anchor="end" dominant-baseline="middle">Civil</text>
<line x1="430" y1="310" x2="287.34" y2="263.65" stroke="#E8E0D4" stroke-width="1"/>
<text x="270.22" y="258.09" font-size="11" font-family="'Segoe UI',Arial,sans-serif" fill="#4A4E57" font-weight="400" text-anchor="end" dominant-baseline="middle">HSE</text>
<text x="436" y="156" font-size="10" font-family="'Segoe UI',Arial,sans-serif" fill="#4A4E57" font-weight="400">100%</text>
<polygon points="430,182.5 529.86,277.55 482.9,382.81 359.47,407.08 301.61,268.28" fill="#9E2B25" fill-opacity="0.12" stroke="#9E2B25" stroke-width="2"/>
<text x="700" y="180" font-size="11" font-family="'Segoe UI',Arial,sans-serif" fill="#9E2B25" font-weight="600">Crew A</text>
<polygon points="430,220 536.99,275.24 500.53,407.08 390.32,364.61 330.14,277.55" fill="#B8B2A7" fill-opacity="0.12" stroke="#B8B2A7" stroke-width="2"/>
<text x="700" y="200" font-size="11" font-family="'Segoe UI',Arial,sans-serif" fill="#B8B2A7" font-weight="600">Crew B</text>
<text x="32" y="516" font-size="11" font-family="'Segoe UI',Arial,sans-serif" fill="#4A4E57" font-weight="400">Source: sample dataset v1, 2026-07-12</text>
</svg>
