<svg xmlns="http://www.w3.org/2000/svg" width="960" height="540" viewBox="0 0 960 540">
<rect width="960" height="540" fill="#FFFFFF"/>
<text x="32" y="56" font-size="24" font-family="'Segoe UI',Arial,sans-serif" fill="#1A1A1A" font-weight="700">MST loop tests run longest: 7 days typical, up to 11</text>
<line x1="477.09" y1="156" x2="800" y2="156" stroke="#1A1A1A" stroke-width="2"/>
<line x1="477.09" y1="150" x2="477.09" y2="162" stroke="#1A1A1A" stroke-width="2"/>
<line x1="800" y1="150" x2="800" y2="162" stroke="#1A1A1A" stroke-width="2"/>
<circle cx="584.73" cy="156" r="7" fill="#C4001A"/>
<text x="192" y="156" font-size="14" font-family="'Segoe UI',Arial,sans-serif" fill="#444444" font-weight="600" text-anchor="end" dominant-baseline="middle">MST</text>
<text x="812" y="156" font-size="13" font-family="'Segoe UI',Arial,sans-serif" fill="#1A1A1A" font-weight="600" dominant-baseline="middle">7 days [5-11]</text>
<line x1="423.27" y1="208" x2="692.36" y2="208" stroke="#1A1A1A" stroke-width="2"/>
<line x1="423.27" y1="202" x2="423.27" y2="214" stroke="#1A1A1A" stroke-width="2"/>
<line x1="692.36" y1="202" x2="692.36" y2="214" stroke="#1A1A1A" stroke-width="2"/>
<circle cx="530.91" cy="208" r="7" fill="#B5B1AB"/>
<text x="192" y="208" font-size="14" font-family="'Segoe UI',Arial,sans-serif" fill="#444444" font-weight="400" text-anchor="end" dominant-baseline="middle">PS1</text>
<text x="704.36" y="208" font-size="13" font-family="'Segoe UI',Arial,sans-serif" fill="#1A1A1A" font-weight="400" dominant-baseline="middle">6 [4-9]</text>
<line x1="423.27" y1="260" x2="692.36" y2="260" stroke="#1A1A1A" stroke-width="2"/>
<line x1="423.27" y1="254" x2="423.27" y2="266" stroke="#1A1A1A" stroke-width="2"/>
<line x1="692.36" y1="254" x2="692.36" y2="266" stroke="#1A1A1A" stroke-width="2"/>
<circle cx="530.91" cy="260" r="7" fill="#B5B1AB"/>
<text x="192" y="260" font-size="14" font-family="'Segoe UI',Arial,sans-serif" fill="#444444" font-weight="400" text-anchor="end" dominant-baseline="middle">PS5</text>
<text x="704.36" y="260" font-size="13" font-family="'Segoe UI',Arial,sans-serif" fill="#1A1A1A" font-weight="400" dominant-baseline="middle">6 [4-9]</text>
<line x1="369.45" y1="312" x2="638.55" y2="312" stroke="#1A1A1A" stroke-width="2"/>
<line x1="369.45" y1="306" x2="369.45" y2="318" stroke="#1A1A1A" stroke-width="2"/>
<line x1="638.55" y1="306" x2="638.55" y2="318" stroke="#1A1A1A" stroke-width="2"/>
<circle cx="477.09" cy="312" r="7" fill="#B5B1AB"/>
<text x="192" y="312" font-size="14" font-family="'Segoe UI',Arial,sans-serif" fill="#444444" font-weight="400" text-anchor="end" dominant-baseline="middle">PS4</text>
<text x="650.55" y="312" font-size="13" font-family="'Segoe UI',Arial,sans-serif" fill="#1A1A1A" font-weight="400" dominant-baseline="middle">5 [3-8]</text>
<line x1="208" y1="132" x2="208" y2="336" stroke="#D9D6D2" stroke-width="1"/>
<text x="32" y="516" font-size="11" font-family="'Segoe UI',Arial,sans-serif" fill="#444444" font-weight="400">Source: sample dataset v1 (min-max range), 2026-07-12</text>
</svg>
