<svg xmlns="http://www.w3.org/2000/svg" width="960" height="540" viewBox="0 0 960 540">
<rect width="960" height="540" fill="#FBFDFF"/>
<text x="32" y="56" font-size="24" font-family="'Segoe UI',Arial,sans-serif" fill="#143D59" font-weight="600">Two contractors hold 74 of 120 berths</text>
<circle cx="340" cy="400" r="7" fill="#1B6E8F"/>
<circle cx="310" cy="400" r="7" fill="#1B6E8F"/>
<circle cx="280" cy="400" r="7" fill="#1B6E8F"/>
<circle cx="250" cy="400" r="7" fill="#1B6E8F"/>
<circle cx="220" cy="400" r="7" fill="#1B6E8F"/>
<circle cx="220.95" cy="380.04" r="7" fill="#1B6E8F"/>
<circle cx="251.13" cy="379.85" r="7" fill="#1B6E8F"/>
<circle cx="281.4" cy="379.58" r="7" fill="#1B6E8F"/>
<circle cx="311.82" cy="379.16" r="7" fill="#1B6E8F"/>
<circle cx="223.79" cy="360.26" r="7" fill="#1B6E8F"/>
<circle cx="254.51" cy="359.95" r="7" fill="#1B6E8F"/>
<circle cx="342.62" cy="378.46" r="7" fill="#1B6E8F"/>
<circle cx="285.56" cy="359.53" r="7" fill="#1B6E8F"/>
<circle cx="228.51" cy="340.84" r="7" fill="#1B6E8F"/>
<circle cx="260.1" cy="340.55" r="7" fill="#1B6E8F"/>
<circle cx="317.24" cy="358.96" r="7" fill="#1B6E8F"/>
<circle cx="235.04" cy="321.95" r="7" fill="#1B6E8F"/>
<circle cx="292.42" cy="340.24" r="7" fill="#1B6E8F"/>
<circle cx="267.83" cy="321.9" r="7" fill="#1B6E8F"/>
<circle cx="243.34" cy="303.77" r="7" fill="#1B6E8F"/>
<circle cx="350.31" cy="358.17" r="7" fill="#1B6E8F"/>
<circle cx="326.08" cy="340" r="7" fill="#1B6E8F"/>
<circle cx="301.84" cy="322.06" r="7" fill="#1B6E8F"/>
<circle cx="277.59" cy="304.23" r="7" fill="#1B6E8F"/>
<circle cx="253.34" cy="286.47" r="7" fill="#1B6E8F"/>
<circle cx="264.93" cy="270.19" r="7" fill="#1B6E8F"/>
<circle cx="289.27" cy="287.77" r="7" fill="#1B6E8F"/>
<circle cx="313.64" cy="305.34" r="7" fill="#1B6E8F"/>
<circle cx="338.07" cy="322.87" r="7" fill="#1B6E8F"/>
<circle cx="362.63" cy="340.32" r="7" fill="#1B6E8F"/>
<circle cx="278.02" cy="255.08" r="7" fill="#1B6E8F"/>
<circle cx="302.72" cy="272.72" r="7" fill="#1B6E8F"/>
<circle cx="327.62" cy="290.37" r="7" fill="#1B6E8F"/>
<circle cx="292.48" cy="241.29" r="7" fill="#1B6E8F"/>
<circle cx="352.87" cy="308.07" r="7" fill="#1B6E8F"/>
<circle cx="317.77" cy="259.27" r="7" fill="#1B6E8F"/>
<circle cx="308.19" cy="228.94" r="7" fill="#1B6E8F"/>
<circle cx="343.5" cy="277.45" r="7" fill="#1B6E8F"/>
<circle cx="378.87" cy="325.93" r="7" fill="#1B6E8F"/>
<circle cx="334.23" cy="247.59" r="7" fill="#1B6E8F"/>
<circle cx="370" cy="296.08" r="7" fill="#1B6E8F"/>
<circle cx="325" cy="218.13" r="7" fill="#1B6E8F"/>
<circle cx="360.99" cy="266.82" r="7" fill="#3F85A1"/>
<circle cx="351.9" cy="237.83" r="7" fill="#3F85A1"/>
<circle cx="342.76" cy="208.98" r="7" fill="#3F85A1"/>
<circle cx="398.09" cy="315.85" r="7" fill="#3F85A1"/>
<circle cx="388.96" cy="287.24" r="7" fill="#3F85A1"/>
<circle cx="379.77" cy="258.66" r="7" fill="#3F85A1"/>
<circle cx="370.55" cy="230.1" r="7" fill="#3F85A1"/>
<circle cx="361.32" cy="201.55" r="7" fill="#3F85A1"/>
<circle cx="380.49" cy="195.92" r="7" fill="#3F85A1"/>
<circle cx="389.95" cy="224.51" r="7" fill="#3F85A1"/>
<circle cx="399.48" cy="253.14" r="7" fill="#3F85A1"/>
<circle cx="409.16" cy="281.82" r="7" fill="#3F85A1"/>
<circle cx="400.11" cy="192.14" r="7" fill="#3F85A1"/>
<circle cx="419.15" cy="310.66" r="7" fill="#3F85A1"/>
<circle cx="409.85" cy="221.13" r="7" fill="#3F85A1"/>
<circle cx="419.76" cy="250.35" r="7" fill="#3F85A1"/>
<circle cx="420.01" cy="190.24" r="7" fill="#3F85A1"/>
<circle cx="430" cy="280" r="7" fill="#3F85A1"/>
<circle cx="430" cy="220" r="7" fill="#3F85A1"/>
<circle cx="439.99" cy="190.24" r="7" fill="#3F85A1"/>
<circle cx="440.24" cy="250.35" r="7" fill="#3F85A1"/>
<circle cx="450.15" cy="221.13" r="7" fill="#3F85A1"/>
<circle cx="440.85" cy="310.66" r="7" fill="#3F85A1"/>
<circle cx="459.89" cy="192.14" r="7" fill="#3F85A1"/>
<circle cx="450.84" cy="281.82" r="7" fill="#3F85A1"/>
<circle cx="460.52" cy="253.14" r="7" fill="#3F85A1"/>
<circle cx="470.05" cy="224.51" r="7" fill="#3F85A1"/>
<circle cx="479.51" cy="195.92" r="7" fill="#3F85A1"/>
<circle cx="498.68" cy="201.55" r="7" fill="#3F85A1"/>
<circle cx="489.45" cy="230.1" r="7" fill="#3F85A1"/>
<circle cx="480.23" cy="258.66" r="7" fill="#3F85A1"/>
<circle cx="471.04" cy="287.24" r="7" fill="#3F85A1"/>
<circle cx="461.91" cy="315.85" r="7" fill="#649CB3"/>
<circle cx="517.24" cy="208.98" r="7" fill="#649CB3"/>
<circle cx="508.1" cy="237.83" r="7" fill="#649CB3"/>
<circle cx="499.01" cy="266.82" r="7" fill="#649CB3"/>
<circle cx="490" cy="296.08" r="7" fill="#649CB3"/>
<circle cx="535" cy="218.13" r="7" fill="#649CB3"/>
<circle cx="525.77" cy="247.59" r="7" fill="#649CB3"/>
<circle cx="481.13" cy="325.93" r="7" fill="#649CB3"/>
<circle cx="516.5" cy="277.45" r="7" fill="#649CB3"/>
<circle cx="551.81" cy="228.94" r="7" fill="#649CB3"/>
<circle cx="542.23" cy="259.27" r="7" fill="#649CB3"/>
<circle cx="507.13" cy="308.07" r="7" fill="#649CB3"/>
<circle cx="567.52" cy="241.29" r="7" fill="#649CB3"/>
<circle cx="532.38" cy="290.37" r="7" fill="#649CB3"/>
<circle cx="557.28" cy="272.72" r="7" fill="#649CB3"/>
<circle cx="581.98" cy="255.08" r="7" fill="#649CB3"/>
<circle cx="497.37" cy="340.32" r="7" fill="#649CB3"/>
<circle cx="521.93" cy="322.87" r="7" fill="#649CB3"/>
<circle cx="546.36" cy="305.34" r="7" fill="#649CB3"/>
<circle cx="570.73" cy="287.77" r="7" fill="#649CB3"/>
<circle cx="595.07" cy="270.19" r="7" fill="#649CB3"/>
<circle cx="606.66" cy="286.47" r="7" fill="#649CB3"/>
<circle cx="582.41" cy="304.23" r="7" fill="#88B4C6"/>
<circle cx="558.16" cy="322.06" r="7" fill="#88B4C6"/>
<circle cx="533.92" cy="340" r="7" fill="#88B4C6"/>
<circle cx="509.69" cy="358.17" r="7" fill="#88B4C6"/>
<circle cx="616.66" cy="303.77" r="7" fill="#88B4C6"/>
<circle cx="592.17" cy="321.9" r="7" fill="#88B4C6"/>
<circle cx="567.58" cy="340.24" r="7" fill="#88B4C6"/>
<circle cx="624.96" cy="321.95" r="7" fill="#88B4C6"/>
<circle cx="542.76" cy="358.96" r="7" fill="#88B4C6"/>
<circle cx="599.9" cy="340.55" r="7" fill="#88B4C6"/>
<circle cx="631.49" cy="340.84" r="7" fill="#88B4C6"/>
<circle cx="574.44" cy="359.53" r="7" fill="#88B4C6"/>
<circle cx="517.38" cy="378.46" r="7" fill="#88B4C6"/>
<circle cx="605.49" cy="359.95" r="7" fill="#88B4C6"/>
<circle cx="636.21" cy="360.26" r="7" fill="#ADCBD8"/>
<circle cx="548.18" cy="379.16" r="7" fill="#ADCBD8"/>
<circle cx="578.6" cy="379.58" r="7" fill="#ADCBD8"/>
<circle cx="608.87" cy="379.85" r="7" fill="#ADCBD8"/>
<circle cx="639.05" cy="380.04" r="7" fill="#ADCBD8"/>
<circle cx="550" cy="400" r="7" fill="#ADCBD8"/>
<circle cx="580" cy="400" r="7" fill="#ADCBD8"/>
<circle cx="610" cy="400" r="7" fill="#ADCBD8"/>
<circle cx="640" cy="400" r="7" fill="#ADCBD8"/>
<circle cx="520" cy="400" r="7" fill="#ADCBD8"/>
<rect x="700" y="192" width="10" height="10" fill="#1B6E8F"/>
<text x="716" y="200" font-size="11" font-family="'Segoe UI',Arial,sans-serif" fill="#33424E" font-weight="400" dominant-baseline="middle">Contractor A  42 berths</text>
<rect x="700" y="214" width="10" height="10" fill="#3F85A1"/>
<text x="716" y="222" font-size="11" font-family="'Segoe UI',Arial,sans-serif" fill="#33424E" font-weight="400" dominant-baseline="middle">Contractor B  32</text>
<rect x="700" y="236" width="10" height="10" fill="#649CB3"/>
<text x="716" y="244" font-size="11" font-family="'Segoe UI',Arial,sans-serif" fill="#33424E" font-weight="400" dominant-baseline="middle">Contractor C  22</text>
<rect x="700" y="258" width="10" height="10" fill="#88B4C6"/>
<text x="716" y="266" font-size="11" font-family="'Segoe UI',Arial,sans-serif" fill="#33424E" font-weight="400" dominant-baseline="middle">Shared pool  14</text>
<rect x="700" y="280" width="10" height="10" fill="#ADCBD8"/>
<text x="716" y="288" font-size="11" font-family="'Segoe UI',Arial,sans-serif" fill="#33424E" font-weight="400" dominant-baseline="middle">Reserved  10</text>
<text x="430" y="390" font-size="28" font-family="'Segoe UI',Arial,sans-serif" fill="#143D59" font-weight="600" text-anchor="middle">120</text>
<text x="430" y="410" font-size="11" font-family="'Segoe UI',Arial,sans-serif" fill="#33424E" font-weight="400" text-anchor="middle">total berths</text>
<text x="32" y="516" font-size="11" font-family="'Segoe UI',Arial,sans-serif" fill="#33424E" font-weight="400">Source: sample dataset v1, 2026-07-12</text>
</svg>
