<svg xmlns="http://www.w3.org/2000/svg" width="960" height="540" viewBox="0 0 960 540">
<rect width="960" height="540" fill="#FBFDFF"/>
<text x="32" y="56" font-size="24" font-family="'Segoe UI',Arial,sans-serif" fill="#143D59" font-weight="600">Complete work holds 62% of total scope</text>
<path d="M 420,160 A 150 150 0 1 1 317.32,419.35 L 357.02,377.07 A 92 92 0 1 0 420,218 Z" fill="#1B6E8F" stroke="#FBFDFF" stroke-width="2"/>
<text x="579.92" y="373.32" font-size="13" font-family="'Segoe UI',Arial,sans-serif" fill="#143D59" font-weight="400" dominant-baseline="middle">Complete  62%</text>
<path d="M 317.32,419.35 A 150 150 0 0 1 331.83,188.65 L 365.92,235.57 A 92 92 0 0 0 357.02,377.07 Z" fill="#C6D5E0" stroke="#FBFDFF" stroke-width="2"/>
<text x="248.34" y="299.2" font-size="13" font-family="'Segoe UI',Arial,sans-serif" fill="#143D59" font-weight="400" text-anchor="end" dominant-baseline="middle">Remaining  28%</text>
<path d="M 331.83,188.65 A 150 150 0 0 1 420,160 L 420,218 A 92 92 0 0 0 365.92,235.57 Z" fill="#C6D5E0" stroke="#FBFDFF" stroke-width="2"/>
<text x="366.85" y="146.42" font-size="13" font-family="'Segoe UI',Arial,sans-serif" fill="#143D59" font-weight="400" text-anchor="end" dominant-baseline="middle">On hold  10%</text>
<text x="32" y="516" font-size="11" font-family="'Segoe UI',Arial,sans-serif" fill="#33424E" font-weight="400">Source: sample dataset v1, 2026-07-12</text>
</svg>
