<svg xmlns="http://www.w3.org/2000/svg" width="960" height="540" viewBox="0 0 960 540">
<rect width="960" height="540" fill="#FFFFFF"/>
<text x="32" y="56" font-size="24" font-family="'Segoe UI',Arial,sans-serif" fill="#0F172A" font-weight="700">Casta moved from third to first in two quarters</text>
<text x="210" y="466" font-size="11" font-family="'Segoe UI',Arial,sans-serif" fill="#334155" font-weight="400" text-anchor="middle">Q1</text>
<text x="390" y="466" font-size="11" font-family="'Segoe UI',Arial,sans-serif" fill="#334155" font-weight="400" text-anchor="middle">Q2</text>
<text x="570" y="466" font-size="11" font-family="'Segoe UI',Arial,sans-serif" fill="#334155" font-weight="400" text-anchor="middle">Q3</text>
<text x="750" y="466" font-size="11" font-family="'Segoe UI',Arial,sans-serif" fill="#334155" font-weight="400" text-anchor="middle">Q4</text>
<polyline points="210,150 390,150 570,222.5 750,295" fill="none" stroke="#64748B" stroke-width="2"/>
<circle cx="210" cy="150" r="5" fill="#64748B"/>
<circle cx="390" cy="150" r="5" fill="#64748B"/>
<circle cx="570" cy="222.5" r="5" fill="#64748B"/>
<circle cx="750" cy="295" r="5" fill="#64748B"/>
<text x="196" y="150" font-size="13" font-family="'Segoe UI',Arial,sans-serif" fill="#334155" font-weight="400" text-anchor="end" dominant-baseline="middle">1. Alpha</text>
<text x="764" y="295" font-size="13" font-family="'Segoe UI',Arial,sans-serif" fill="#334155" font-weight="400" dominant-baseline="middle">3. Alpha</text>
<polyline points="210,222.5 390,295 570,295 750,222.5" fill="none" stroke="#64748B" stroke-width="2"/>
<circle cx="210" cy="222.5" r="5" fill="#64748B"/>
<circle cx="390" cy="295" r="5" fill="#64748B"/>
<circle cx="570" cy="295" r="5" fill="#64748B"/>
<circle cx="750" cy="222.5" r="5" fill="#64748B"/>
<text x="196" y="222.5" font-size="13" font-family="'Segoe UI',Arial,sans-serif" fill="#334155" font-weight="400" text-anchor="end" dominant-baseline="middle">2. Bravo</text>
<text x="764" y="222.5" font-size="13" font-family="'Segoe UI',Arial,sans-serif" fill="#334155" font-weight="400" dominant-baseline="middle">2. Bravo</text>
<polyline points="210,367.5 390,440 570,367.5 750,440" fill="none" stroke="#64748B" stroke-width="2"/>
<circle cx="210" cy="367.5" r="5" fill="#64748B"/>
<circle cx="390" cy="440" r="5" fill="#64748B"/>
<circle cx="570" cy="367.5" r="5" fill="#64748B"/>
<circle cx="750" cy="440" r="5" fill="#64748B"/>
<text x="196" y="367.5" font-size="13" font-family="'Segoe UI',Arial,sans-serif" fill="#334155" font-weight="400" text-anchor="end" dominant-baseline="middle">4. Delta</text>
<text x="764" y="440" font-size="13" font-family="'Segoe UI',Arial,sans-serif" fill="#334155" font-weight="400" dominant-baseline="middle">5. Delta</text>
<polyline points="210,440 390,367.5 570,440 750,367.5" fill="none" stroke="#64748B" stroke-width="2"/>
<circle cx="210" cy="440" r="5" fill="#64748B"/>
<circle cx="390" cy="367.5" r="5" fill="#64748B"/>
<circle cx="570" cy="440" r="5" fill="#64748B"/>
<circle cx="750" cy="367.5" r="5" fill="#64748B"/>
<text x="196" y="440" font-size="13" font-family="'Segoe UI',Arial,sans-serif" fill="#334155" font-weight="400" text-anchor="end" dominant-baseline="middle">5. Echo</text>
<text x="764" y="367.5" font-size="13" font-family="'Segoe UI',Arial,sans-serif" fill="#334155" font-weight="400" dominant-baseline="middle">4. Echo</text>
<polyline points="210,295 390,222.5 570,150 750,150" fill="none" stroke="#C2410C" stroke-width="3"/>
<circle cx="210" cy="295" r="5" fill="#C2410C"/>
<circle cx="390" cy="222.5" r="5" fill="#C2410C"/>
<circle cx="570" cy="150" r="5" fill="#C2410C"/>
<circle cx="750" cy="150" r="5" fill="#C2410C"/>
<text x="196" y="295" font-size="13" font-family="'Segoe UI',Arial,sans-serif" fill="#C2410C" font-weight="600" text-anchor="end" dominant-baseline="middle">3. Casta</text>
<text x="764" y="150" font-size="13" font-family="'Segoe UI',Arial,sans-serif" fill="#C2410C" font-weight="600" dominant-baseline="middle">1. Casta</text>
<text x="32" y="516" font-size="11" font-family="'Segoe UI',Arial,sans-serif" fill="#334155" font-weight="400">Source: supplier scorecards, Q4</text>
</svg>
