<svg xmlns="http://www.w3.org/2000/svg" width="960" height="540" viewBox="0 0 960 540">
<rect width="960" height="540" fill="#FDF4EA"/>
<rect x="32" y="28" width="24" height="4" fill="#9E2B25"/>
<text x="32" y="52" font-size="11" font-family="'Segoe UI',Arial,sans-serif" fill="#4A4E57" font-weight="600" letter-spacing="2">MILESTONES . 2026</text>
<text x="32" y="88" font-size="24" font-family="'Oswald','Arial Narrow',Arial,sans-serif" fill="#262A33" font-weight="700">RFSU holds on 30 November; grid energization is the critical driver</text>
<line x1="96" y1="312" x2="864" y2="312" stroke="#E8E0D4" stroke-width="2"/>
<text x="96" y="336" font-size="9" font-family="'Segoe UI',Arial,sans-serif" fill="#4A4E57" font-weight="400">JAN 2026</text>
<text x="864" y="336" font-size="9" font-family="'Segoe UI',Arial,sans-serif" fill="#4A4E57" font-weight="400" text-anchor="end">NOV 2026</text>
<circle cx="126.72" cy="312" r="6" fill="#B8B2A7"/>
<line x1="126.72" y1="302" x2="126.72" y2="272" stroke="#E8E0D4" stroke-width="1"/>
<text x="126.72" y="254" font-size="11" font-family="'Segoe UI',Arial,sans-serif" fill="#262A33" font-weight="600">Kickoff</text>
<text x="126.72" y="269" font-size="10" font-family="'Segoe UI',Arial,sans-serif" fill="#4A4E57" font-weight="400">12 Jan</text>
<path d="M 480,304 L 488,312 L 480,320 L 472,312 Z" fill="#9E2B25"/>
<line x1="480" y1="322" x2="480" y2="352" stroke="#E8E0D4" stroke-width="1"/>
<text x="480" y="376" font-size="11" font-family="'Segoe UI',Arial,sans-serif" fill="#262A33" font-weight="600" text-anchor="middle">Mechanical completion S3</text>
<text x="480" y="391" font-size="10" font-family="'Segoe UI',Arial,sans-serif" fill="#4A4E57" font-weight="400" text-anchor="middle">15 Jun</text>
<path d="M 633.6,304 L 641.6,312 L 633.6,320 L 625.6,312 Z" fill="#9E2B25"/>
<line x1="633.6" y1="302" x2="633.6" y2="272" stroke="#E8E0D4" stroke-width="1"/>
<text x="633.6" y="254" font-size="11" font-family="'Segoe UI',Arial,sans-serif" fill="#262A33" font-weight="600" text-anchor="middle">Grid energization</text>
<text x="633.6" y="269" font-size="10" font-family="'Segoe UI',Arial,sans-serif" fill="#4A4E57" font-weight="400" text-anchor="middle">22 Aug</text>
<path d="M 725.76,304 L 733.76,312 L 725.76,320 L 717.76,312 Z" fill="#9E2B25"/>
<line x1="725.76" y1="322" x2="725.76" y2="352" stroke="#E8E0D4" stroke-width="1"/>
<text x="725.76" y="376" font-size="11" font-family="'Segoe UI',Arial,sans-serif" fill="#262A33" font-weight="600" text-anchor="middle">Loop tests complete</text>
<text x="725.76" y="391" font-size="10" font-family="'Segoe UI',Arial,sans-serif" fill="#4A4E57" font-weight="400" text-anchor="middle">30 Sep</text>
<path d="M 864,304 L 872,312 L 864,320 L 856,312 Z" fill="#9E2B25"/>
<line x1="864" y1="302" x2="864" y2="272" stroke="#E8E0D4" stroke-width="1"/>
<text x="864" y="254" font-size="11" font-family="'Segoe UI',Arial,sans-serif" fill="#262A33" font-weight="600" text-anchor="end">RFSU</text>
<text x="864" y="269" font-size="10" font-family="'Segoe UI',Arial,sans-serif" fill="#4A4E57" font-weight="400" text-anchor="end">30 Nov</text>
<text x="32" y="516" font-size="11" font-family="'Segoe UI',Arial,sans-serif" fill="#4A4E57" font-weight="400">Source: sample dataset v1, 2026-07-12</text>
</svg>
