<svg xmlns="http://www.w3.org/2000/svg" width="960" height="540" viewBox="0 0 960 540">
<rect width="960" height="540" fill="#FFFFFF"/>
<text x="32" y="56" font-size="24" font-family="Georgia,serif" fill="#1A1A1A" font-weight="700">Cement cost rose 32% since January; steel held within 4% of baseline</text>
<line x1="96" y1="452" x2="756" y2="452" stroke="#B9B9B9" stroke-width="1"/>
<text x="84" y="452" font-size="10" font-family="Georgia,serif" fill="#333333" font-weight="400" text-anchor="end" dominant-baseline="middle">50</text>
<line x1="96" y1="290" x2="756" y2="290" stroke="#B9B9B9" stroke-width="1"/>
<text x="84" y="290" font-size="10" font-family="Georgia,serif" fill="#333333" font-weight="400" text-anchor="end" dominant-baseline="middle">100</text>
<line x1="96" y1="128" x2="756" y2="128" stroke="#CCCCCC" stroke-width="1"/>
<text x="84" y="128" font-size="10" font-family="Georgia,serif" fill="#333333" font-weight="400" text-anchor="end" dominant-baseline="middle">150</text>
<text x="96" y="472" font-size="10" font-family="Georgia,serif" fill="#333333" font-weight="400" text-anchor="middle">Jan</text>
<text x="190.29" y="472" font-size="10" font-family="Georgia,serif" fill="#333333" font-weight="400" text-anchor="middle">Feb</text>
<text x="284.57" y="472" font-size="10" font-family="Georgia,serif" fill="#333333" font-weight="400" text-anchor="middle">Mar</text>
<text x="378.86" y="472" font-size="10" font-family="Georgia,serif" fill="#333333" font-weight="400" text-anchor="middle">Apr</text>
<text x="473.14" y="472" font-size="10" font-family="Georgia,serif" fill="#333333" font-weight="400" text-anchor="middle">May</text>
<text x="567.43" y="472" font-size="10" font-family="Georgia,serif" fill="#333333" font-weight="400" text-anchor="middle">Jun</text>
<text x="661.71" y="472" font-size="10" font-family="Georgia,serif" fill="#333333" font-weight="400" text-anchor="middle">Jul</text>
<text x="756" y="472" font-size="10" font-family="Georgia,serif" fill="#333333" font-weight="400" text-anchor="middle">Aug</text>
<polyline points="96,290 190.29,292.92 284.57,286.76 378.86,282.22 473.14,277.04 567.43,279.63 661.71,274.77 756,282.87" fill="none" stroke="#B9B9B9" stroke-width="2"/>
<text x="766" y="282.87" font-size="12" font-family="Georgia,serif" fill="#333333" font-weight="400" dominant-baseline="middle">Steel</text>
<polyline points="96,290 190.29,277.36 284.57,267.32 378.86,253.06 473.14,242.7 567.43,224.88 661.71,207.38 756,186.32" fill="none" stroke="#7A1F1F" stroke-width="2.5"/>
<text x="766" y="186.32" font-size="12" font-family="Georgia,serif" fill="#7A1F1F" font-weight="600" dominant-baseline="middle">Cement</text>
<text x="32" y="516" font-size="11" font-family="Georgia,serif" fill="#333333" font-weight="400">Source: sample dataset v1, 2026-07-12</text>
</svg>
