<svg xmlns="http://www.w3.org/2000/svg" width="960" height="540" viewBox="0 0 960 540">
<rect width="960" height="540" fill="#FFFFFF"/>
<text x="32" y="56" font-size="24" font-family="'Segoe UI',Arial,sans-serif" fill="#0F172A" font-weight="700">Delays cluster in two regimes, not one</text>
<line x1="110" y1="440" x2="810" y2="440" stroke="#E2E8F0" stroke-width="1"/>
<text x="98" y="440" font-size="12" font-family="'Segoe UI',Arial,sans-serif" fill="#475569" font-weight="400" text-anchor="end" dominant-baseline="middle">0</text>
<line x1="110" y1="367.5" x2="810" y2="367.5" stroke="#E2E8F0" stroke-width="1"/>
<text x="98" y="367.5" font-size="12" font-family="'Segoe UI',Arial,sans-serif" fill="#475569" font-weight="400" text-anchor="end" dominant-baseline="middle">20</text>
<line x1="110" y1="295" x2="810" y2="295" stroke="#E2E8F0" stroke-width="1"/>
<text x="98" y="295" font-size="12" font-family="'Segoe UI',Arial,sans-serif" fill="#475569" font-weight="400" text-anchor="end" dominant-baseline="middle">40</text>
<line x1="110" y1="222.5" x2="810" y2="222.5" stroke="#E2E8F0" stroke-width="1"/>
<text x="98" y="222.5" font-size="12" font-family="'Segoe UI',Arial,sans-serif" fill="#475569" font-weight="400" text-anchor="end" dominant-baseline="middle">60</text>
<line x1="110" y1="150" x2="810" y2="150" stroke="#E2E8F0" stroke-width="1"/>
<text x="98" y="150" font-size="12" font-family="'Segoe UI',Arial,sans-serif" fill="#475569" font-weight="400" text-anchor="end" dominant-baseline="middle">80 items</text>
<text x="110" y="462" font-size="12" font-family="'Segoe UI',Arial,sans-serif" fill="#475569" font-weight="400" text-anchor="middle">0</text>
<text x="285" y="462" font-size="12" font-family="'Segoe UI',Arial,sans-serif" fill="#475569" font-weight="400" text-anchor="middle">20</text>
<text x="460" y="462" font-size="12" font-family="'Segoe UI',Arial,sans-serif" fill="#475569" font-weight="400" text-anchor="middle">40</text>
<text x="635" y="462" font-size="12" font-family="'Segoe UI',Arial,sans-serif" fill="#475569" font-weight="400" text-anchor="middle">60</text>
<text x="810" y="462" font-size="12" font-family="'Segoe UI',Arial,sans-serif" fill="#475569" font-weight="400" text-anchor="middle">80 days</text>
<polygon points="192.71,406.25 192.71,421.75 179.28,429.5 165.86,421.75 165.86,406.25 179.28,398.5" fill="#F0B5B1"/>
<polygon points="178.85,334.25 178.85,349.75 165.43,357.5 152,349.75 152,334.25 165.43,326.5" fill="#EA9C97"/>
<polygon points="206.56,382.25 206.56,397.75 193.14,405.5 179.72,397.75 179.72,382.25 193.14,374.5" fill="#F0B5B1"/>
<polygon points="206.56,334.25 206.56,349.75 193.14,357.5 179.72,349.75 179.72,334.25 193.14,326.5" fill="#F0B5B1"/>
<polygon points="206.56,286.25 206.56,301.75 193.14,309.5 179.72,301.75 179.72,286.25 193.14,278.5" fill="#E5847D"/>
<polygon points="220.42,310.25 220.42,325.75 206.99,333.5 193.57,325.75 193.57,310.25 206.99,302.5" fill="#F0B5B1"/>
<polygon points="234.27,334.25 234.27,349.75 220.85,357.5 207.43,349.75 207.43,334.25 220.85,326.5" fill="#E5847D"/>
<polygon points="220.42,262.25 220.42,277.75 206.99,285.5 193.57,277.75 193.57,262.25 206.99,254.5" fill="#F0B5B1"/>
<polygon points="234.27,286.25 234.27,301.75 220.85,309.5 207.43,301.75 207.43,286.25 220.85,278.5" fill="#EA9C97"/>
<polygon points="248.13,310.25 248.13,325.75 234.71,333.5 221.28,325.75 221.28,310.25 234.71,302.5" fill="#EA9C97"/>
<polygon points="261.99,334.25 261.99,349.75 248.56,357.5 235.14,349.75 235.14,334.25 248.56,326.5" fill="#E5847D"/>
<polygon points="275.84,358.25 275.84,373.75 262.42,381.5 249,373.75 249,358.25 262.42,350.5" fill="#EA9C97"/>
<polygon points="248.13,262.25 248.13,277.75 234.71,285.5 221.28,277.75 221.28,262.25 234.71,254.5" fill="#F0B5B1"/>
<polygon points="261.99,286.25 261.99,301.75 248.56,309.5 235.14,301.75 235.14,286.25 248.56,278.5" fill="#F0B5B1"/>
<polygon points="275.84,310.25 275.84,325.75 262.42,333.5 249,325.75 249,310.25 262.42,302.5" fill="#EA9C97"/>
<polygon points="289.7,334.25 289.7,349.75 276.28,357.5 262.85,349.75 262.85,334.25 276.28,326.5" fill="#E06B63"/>
<polygon points="303.56,358.25 303.56,373.75 290.13,381.5 276.71,373.75 276.71,358.25 290.13,350.5" fill="#F0B5B1"/>
<polygon points="317.41,382.25 317.41,397.75 303.99,405.5 290.57,397.75 290.57,382.25 303.99,374.5" fill="#F0B5B1"/>
<polygon points="289.7,286.25 289.7,301.75 276.28,309.5 262.85,301.75 262.85,286.25 276.28,278.5" fill="#E5847D"/>
<polygon points="303.56,310.25 303.56,325.75 290.13,333.5 276.71,325.75 276.71,310.25 290.13,302.5" fill="#E06B63"/>
<polygon points="317.41,334.25 317.41,349.75 303.99,357.5 290.57,349.75 290.57,334.25 303.99,326.5" fill="#E5847D"/>
<polygon points="331.27,358.25 331.27,373.75 317.85,381.5 304.42,373.75 304.42,358.25 317.85,350.5" fill="#E5847D"/>
<polygon points="345.13,382.25 345.13,397.75 331.7,405.5 318.28,397.75 318.28,382.25 331.7,374.5" fill="#F0B5B1"/>
<polygon points="317.41,286.25 317.41,301.75 303.99,309.5 290.57,301.75 290.57,286.25 303.99,278.5" fill="#F0B5B1"/>
<polygon points="331.27,310.25 331.27,325.75 317.85,333.5 304.42,325.75 304.42,310.25 317.85,302.5" fill="#D63A2F"/>
<polygon points="345.13,334.25 345.13,349.75 331.7,357.5 318.28,349.75 318.28,334.25 331.7,326.5" fill="#F0B5B1"/>
<polygon points="372.84,382.25 372.84,397.75 359.42,405.5 345.99,397.75 345.99,382.25 359.42,374.5" fill="#F0B5B1"/>
<polygon points="345.13,286.25 345.13,301.75 331.7,309.5 318.28,301.75 318.28,286.25 331.7,278.5" fill="#EA9C97"/>
<polygon points="358.98,310.25 358.98,325.75 345.56,333.5 332.14,325.75 332.14,310.25 345.56,302.5" fill="#DB5349"/>
<polygon points="372.84,334.25 372.84,349.75 359.42,357.5 345.99,349.75 345.99,334.25 359.42,326.5" fill="#F0B5B1"/>
<polygon points="386.7,358.25 386.7,373.75 373.27,381.5 359.85,373.75 359.85,358.25 373.27,350.5" fill="#EA9C97"/>
<polygon points="372.84,286.25 372.84,301.75 359.42,309.5 345.99,301.75 345.99,286.25 359.42,278.5" fill="#F0B5B1"/>
<polygon points="386.7,310.25 386.7,325.75 373.27,333.5 359.85,325.75 359.85,310.25 373.27,302.5" fill="#E5847D"/>
<polygon points="414.41,310.25 414.41,325.75 400.98,333.5 387.56,325.75 387.56,310.25 400.98,302.5" fill="#F0B5B1"/>
<polygon points="400.55,238.25 400.55,253.75 387.13,261.5 373.7,253.75 373.7,238.25 387.13,230.5" fill="#F0B5B1"/>
<polygon points="455.98,238.25 455.98,253.75 442.55,261.5 429.13,253.75 429.13,238.25 442.55,230.5" fill="#F0B5B1"/>
<polygon points="483.69,238.25 483.69,253.75 470.27,261.5 456.84,253.75 456.84,238.25 470.27,230.5" fill="#F0B5B1"/>
<polygon points="497.55,262.25 497.55,277.75 484.12,285.5 470.7,277.75 470.7,262.25 484.12,254.5" fill="#F0B5B1"/>
<polygon points="469.83,166.25 469.83,181.75 456.41,189.5 442.99,181.75 442.99,166.25 456.41,158.5" fill="#F0B5B1"/>
<polygon points="483.69,190.25 483.69,205.75 470.27,213.5 456.84,205.75 456.84,190.25 470.27,182.5" fill="#F0B5B1"/>
<polygon points="525.26,262.25 525.26,277.75 511.84,285.5 498.41,277.75 498.41,262.25 511.84,254.5" fill="#F0B5B1"/>
<polygon points="525.26,214.25 525.26,229.75 511.84,237.5 498.41,229.75 498.41,214.25 511.84,206.5" fill="#F0B5B1"/>
<polygon points="552.97,166.25 552.97,181.75 539.55,189.5 526.13,181.75 526.13,166.25 539.55,158.5" fill="#EA9C97"/>
<polygon points="566.83,190.25 566.83,205.75 553.41,213.5 539.98,205.75 539.98,190.25 553.41,182.5" fill="#EA9C97"/>
<polygon points="580.68,214.25 580.68,229.75 567.26,237.5 553.84,229.75 553.84,214.25 567.26,206.5" fill="#E5847D"/>
<polygon points="594.54,238.25 594.54,253.75 581.12,261.5 567.69,253.75 567.69,238.25 581.12,230.5" fill="#F0B5B1"/>
<polygon points="608.4,262.25 608.4,277.75 594.97,285.5 581.55,277.75 581.55,262.25 594.97,254.5" fill="#F0B5B1"/>
<polygon points="594.54,190.25 594.54,205.75 581.12,213.5 567.69,205.75 567.69,190.25 581.12,182.5" fill="#EA9C97"/>
<polygon points="608.4,214.25 608.4,229.75 594.97,237.5 581.55,229.75 581.55,214.25 594.97,206.5" fill="#EA9C97"/>
<polygon points="622.25,238.25 622.25,253.75 608.83,261.5 595.41,253.75 595.41,238.25 608.83,230.5" fill="#EA9C97"/>
<polygon points="636.11,262.25 636.11,277.75 622.69,285.5 609.26,277.75 609.26,262.25 622.69,254.5" fill="#F0B5B1"/>
<polygon points="608.4,166.25 608.4,181.75 594.97,189.5 581.55,181.75 581.55,166.25 594.97,158.5" fill="#E5847D"/>
<polygon points="622.25,190.25 622.25,205.75 608.83,213.5 595.41,205.75 595.41,190.25 608.83,182.5" fill="#E5847D"/>
<polygon points="636.11,214.25 636.11,229.75 622.69,237.5 609.26,229.75 609.26,214.25 622.69,206.5" fill="#F0B5B1"/>
<polygon points="649.97,238.25 649.97,253.75 636.54,261.5 623.12,253.75 623.12,238.25 636.54,230.5" fill="#F0B5B1"/>
<polygon points="663.82,262.25 663.82,277.75 650.4,285.5 636.98,277.75 636.98,262.25 650.4,254.5" fill="#F0B5B1"/>
<polygon points="691.54,310.25 691.54,325.75 678.11,333.5 664.69,325.75 664.69,310.25 678.11,302.5" fill="#F0B5B1"/>
<polygon points="663.82,214.25 663.82,229.75 650.4,237.5 636.98,229.75 636.98,214.25 650.4,206.5" fill="#E5847D"/>
<polygon points="677.68,238.25 677.68,253.75 664.26,261.5 650.83,253.75 650.83,238.25 664.26,230.5" fill="#F0B5B1"/>
<polygon points="691.54,262.25 691.54,277.75 678.11,285.5 664.69,277.75 664.69,262.25 678.11,254.5" fill="#F0B5B1"/>
<polygon points="663.82,166.25 663.82,181.75 650.4,189.5 636.98,181.75 636.98,166.25 650.4,158.5" fill="#EA9C97"/>
<polygon points="705.39,238.25 705.39,253.75 691.97,261.5 678.55,253.75 678.55,238.25 691.97,230.5" fill="#E5847D"/>
<polygon points="746.96,310.25 746.96,325.75 733.54,333.5 720.11,325.75 720.11,310.25 733.54,302.5" fill="#F0B5B1"/>
<polygon points="691.54,166.25 691.54,181.75 678.11,189.5 664.69,181.75 664.69,166.25 678.11,158.5" fill="#F0B5B1"/>
<polygon points="705.39,190.25 705.39,205.75 691.97,213.5 678.55,205.75 678.55,190.25 691.97,182.5" fill="#F0B5B1"/>
<polygon points="719.25,214.25 719.25,229.75 705.83,237.5 692.4,229.75 692.4,214.25 705.83,206.5" fill="#F0B5B1"/>
<polygon points="760.82,190.25 760.82,205.75 747.39,213.5 733.97,205.75 733.97,190.25 747.39,182.5" fill="#F0B5B1"/>
<polygon points="802.39,262.25 802.39,277.75 788.96,285.5 775.54,277.75 775.54,262.25 788.96,254.5" fill="#F0B5B1"/>
<polygon points="666.93,132 666.93,140 660,144 653.07,140 653.07,132 660,128" fill="#F0B5B1"/>
<text x="672" y="140" font-size="10" font-family="'Segoe UI',Arial,sans-serif" fill="#475569" font-weight="400">1</text>
<polygon points="718.93,132 718.93,140 712,144 705.07,140 705.07,132 712,128" fill="#E5847D"/>
<text x="724" y="140" font-size="10" font-family="'Segoe UI',Arial,sans-serif" fill="#475569" font-weight="400">3</text>
<polygon points="770.93,132 770.93,140 764,144 757.07,140 757.07,132 764,128" fill="#D63A2F"/>
<text x="776" y="140" font-size="10" font-family="'Segoe UI',Arial,sans-serif" fill="#475569" font-weight="400">6</text>
<text x="32" y="516" font-size="11" font-family="'Segoe UI',Arial,sans-serif" fill="#475569" font-weight="400">Source: sample dataset v1, 2026-07-12</text>
</svg>
