<svg xmlns="http://www.w3.org/2000/svg" width="960" height="540" viewBox="0 0 960 540">
<rect width="960" height="540" fill="#101418"/>
<text x="32" y="56" font-size="24" font-family="'Segoe UI',Arial,sans-serif" fill="#E6EDF3" font-weight="600">The forecast reaches 70 by October, inside a 22-point spread</text>
<line x1="96" y1="452" x2="756" y2="452" stroke="#2A323A" stroke-width="1"/>
<text x="84" y="452" font-size="11" font-family="'Segoe UI',Arial,sans-serif" fill="#9FB0BE" font-weight="400" text-anchor="end" dominant-baseline="middle">0</text>
<line x1="96" y1="387.2" x2="756" y2="387.2" stroke="#2A323A" stroke-width="1"/>
<text x="84" y="387.2" font-size="11" font-family="'Segoe UI',Arial,sans-serif" fill="#9FB0BE" font-weight="400" text-anchor="end" dominant-baseline="middle">20</text>
<line x1="96" y1="322.4" x2="756" y2="322.4" stroke="#2A323A" stroke-width="1"/>
<text x="84" y="322.4" font-size="11" font-family="'Segoe UI',Arial,sans-serif" fill="#9FB0BE" font-weight="400" text-anchor="end" dominant-baseline="middle">40</text>
<line x1="96" y1="257.6" x2="756" y2="257.6" stroke="#2A323A" stroke-width="1"/>
<text x="84" y="257.6" font-size="11" font-family="'Segoe UI',Arial,sans-serif" fill="#9FB0BE" font-weight="400" text-anchor="end" dominant-baseline="middle">60</text>
<line x1="96" y1="192.8" x2="756" y2="192.8" stroke="#2A323A" stroke-width="1"/>
<text x="84" y="192.8" font-size="11" font-family="'Segoe UI',Arial,sans-serif" fill="#9FB0BE" font-weight="400" text-anchor="end" dominant-baseline="middle">80</text>
<line x1="96" y1="128" x2="756" y2="128" stroke="#2A323A" stroke-width="1"/>
<text x="84" y="128" font-size="11" font-family="'Segoe UI',Arial,sans-serif" fill="#9FB0BE" font-weight="400" text-anchor="end" dominant-baseline="middle">100%</text>
<text x="96" y="472" font-size="11" font-family="'Segoe UI',Arial,sans-serif" fill="#9FB0BE" font-weight="400" text-anchor="middle">Jan</text>
<text x="169.33" y="472" font-size="11" font-family="'Segoe UI',Arial,sans-serif" fill="#9FB0BE" font-weight="400" text-anchor="middle">Feb</text>
<text x="242.67" y="472" font-size="11" font-family="'Segoe UI',Arial,sans-serif" fill="#9FB0BE" font-weight="400" text-anchor="middle">Mar</text>
<text x="316" y="472" font-size="11" font-family="'Segoe UI',Arial,sans-serif" fill="#9FB0BE" font-weight="400" text-anchor="middle">Apr</text>
<text x="389.33" y="472" font-size="11" font-family="'Segoe UI',Arial,sans-serif" fill="#9FB0BE" font-weight="400" text-anchor="middle">May</text>
<text x="462.67" y="472" font-size="11" font-family="'Segoe UI',Arial,sans-serif" fill="#9FB0BE" font-weight="400" text-anchor="middle">Jun</text>
<text x="536" y="472" font-size="11" font-family="'Segoe UI',Arial,sans-serif" fill="#9FB0BE" font-weight="400" text-anchor="middle">Jul</text>
<text x="609.33" y="472" font-size="11" font-family="'Segoe UI',Arial,sans-serif" fill="#9FB0BE" font-weight="400" text-anchor="middle">Aug</text>
<text x="682.67" y="472" font-size="11" font-family="'Segoe UI',Arial,sans-serif" fill="#9FB0BE" font-weight="400" text-anchor="middle">Sep</text>
<text x="756" y="472" font-size="11" font-family="'Segoe UI',Arial,sans-serif" fill="#9FB0BE" font-weight="400" text-anchor="middle">Oct</text>
<polygon points="462.67,264.08 536,238.16 609.33,221.96 682.67,205.76 756,189.56 756,260.84 682.67,264.08 609.33,267.32 536,270.56" fill="#F0B429" fill-opacity="0.15"/>
<polygon points="462.67,264.08 536,247.88 609.33,234.92 682.67,221.96 756,209 756,241.4 682.67,247.88 609.33,254.36 536,260.84" fill="#F0B429" fill-opacity="0.3"/>
<polyline points="96,322.4 169.33,309.44 242.67,299.72 316,283.52 389.33,273.8 462.67,264.08" fill="none" stroke="#E6EDF3" stroke-width="2.5"/>
<polyline points="462.67,264.08 536,254.36 609.33,244.64 682.67,234.92 756,225.2" fill="none" stroke="#F0B429" stroke-width="2" stroke-dasharray="6 4"/>
<line x1="462.67" y1="128" x2="462.67" y2="452" stroke="#2A323A" stroke-width="1" stroke-dasharray="4 3"/>
<text x="470.67" y="142" font-size="10" font-family="'Segoe UI',Arial,sans-serif" fill="#9FB0BE" font-weight="600" letter-spacing="2">FORECAST</text>
<text x="766" y="225.2" font-size="12" font-family="'Segoe UI',Arial,sans-serif" fill="#F0B429" font-weight="600" dominant-baseline="middle">70 median</text>
<text x="32" y="516" font-size="11" font-family="'Segoe UI',Arial,sans-serif" fill="#9FB0BE" font-weight="400">Source: sample dataset v1; quantile forecast, monthly refit</text>
</svg>
