<svg xmlns="http://www.w3.org/2000/svg" width="960" height="540" viewBox="0 0 960 540">
<rect width="960" height="540" fill="#FFFFFF"/>
<text x="32" y="56" font-size="24" font-family="'Segoe UI',Arial,sans-serif" fill="#0E3A2C" font-weight="700">Central region holds 58 of 170 open items</text>
<polygon points="178,138 439,127.2 468,210 323,235.2 166.4,220.8" fill="#B4D4C8" stroke="#FFFFFF" stroke-width="2"/>
<polygon points="166.4,220.8 323,235.2 294,336 149,328.8" fill="#6AA991" stroke="#FFFFFF" stroke-width="2"/>
<polygon points="323,235.2 468,210 514.4,300 294,336" fill="#197A56" stroke="#FFFFFF" stroke-width="2"/>
<polygon points="468,210 653.6,192 671,318 514.4,300" fill="#96C2B2" stroke="#FFFFFF" stroke-width="2"/>
<polygon points="294,336 514.4,300 671,318 642,444 265,436.8" fill="#459376" stroke="#FFFFFF" stroke-width="2"/>
<text x="305.6" y="181.2" font-size="12" font-family="'Segoe UI',Arial,sans-serif" fill="#3E4C46" font-weight="600" text-anchor="middle">North</text>
<text x="305.6" y="196.2" font-size="11" font-family="'Segoe UI',Arial,sans-serif" fill="#3E4C46" font-weight="400" text-anchor="middle">12 items</text>
<text x="230.2" y="282" font-size="12" font-family="'Segoe UI',Arial,sans-serif" fill="#FFFFFF" font-weight="600" text-anchor="middle">West</text>
<text x="230.2" y="297" font-size="11" font-family="'Segoe UI',Arial,sans-serif" fill="#FFFFFF" font-weight="400" text-anchor="middle">34</text>
<text x="398.4" y="271.2" font-size="12" font-family="'Segoe UI',Arial,sans-serif" fill="#FFFFFF" font-weight="600" text-anchor="middle">Central</text>
<text x="398.4" y="286.2" font-size="11" font-family="'Segoe UI',Arial,sans-serif" fill="#FFFFFF" font-weight="400" text-anchor="middle">58</text>
<text x="572.4" y="256.8" font-size="12" font-family="'Segoe UI',Arial,sans-serif" fill="#3E4C46" font-weight="600" text-anchor="middle">East</text>
<text x="572.4" y="271.8" font-size="11" font-family="'Segoe UI',Arial,sans-serif" fill="#3E4C46" font-weight="400" text-anchor="middle">21</text>
<text x="456.4" y="379.2" font-size="12" font-family="'Segoe UI',Arial,sans-serif" fill="#FFFFFF" font-weight="600" text-anchor="middle">South</text>
<text x="456.4" y="394.2" font-size="11" font-family="'Segoe UI',Arial,sans-serif" fill="#FFFFFF" font-weight="400" text-anchor="middle">45</text>
<rect x="730" y="140" width="14" height="14" fill="#DCEBE6" stroke="#C9D2CC"/>
<text x="750" y="151" font-size="10" font-family="'Segoe UI',Arial,sans-serif" fill="#3E4C46" font-weight="400" dominant-baseline="middle">0</text>
<rect x="784" y="140" width="14" height="14" fill="#7BB39E" stroke="#C9D2CC"/>
<text x="804" y="151" font-size="10" font-family="'Segoe UI',Arial,sans-serif" fill="#3E4C46" font-weight="400" dominant-baseline="middle">29</text>
<rect x="838" y="140" width="14" height="14" fill="#197A56" stroke="#C9D2CC"/>
<text x="858" y="151" font-size="10" font-family="'Segoe UI',Arial,sans-serif" fill="#3E4C46" font-weight="400" dominant-baseline="middle">58</text>
<text x="32" y="516" font-size="11" font-family="'Segoe UI',Arial,sans-serif" fill="#3E4C46" font-weight="400">Source: sample dataset v1, 2026-07-12</text>
</svg>
