<svg xmlns="http://www.w3.org/2000/svg" width="960" height="540" viewBox="0 0 960 540">
<style>@keyframes k1 { 0%, 10.00% { opacity: 0; } 12.08%, 100% { opacity: 1; } } #slide1 { opacity: 0; animation: k1 24.0s linear infinite; } @keyframes k2 { 0%, 20.00% { opacity: 0; } 22.08%, 100% { opacity: 1; } } #slide2 { opacity: 0; animation: k2 24.0s linear infinite; } @keyframes k3 { 0%, 30.00% { opacity: 0; } 32.08%, 100% { opacity: 1; } } #slide3 { opacity: 0; animation: k3 24.0s linear infinite; } @keyframes k4 { 0%, 40.00% { opacity: 0; } 42.08%, 100% { opacity: 1; } } #slide4 { opacity: 0; animation: k4 24.0s linear infinite; } @keyframes k5 { 0%, 50.00% { opacity: 0; } 52.08%, 100% { opacity: 1; } } #slide5 { opacity: 0; animation: k5 24.0s linear infinite; } @keyframes k6 { 0%, 60.00% { opacity: 0; } 62.08%, 100% { opacity: 1; } } #slide6 { opacity: 0; animation: k6 24.0s linear infinite; } @keyframes k7 { 0%, 70.00% { opacity: 0; } 72.08%, 100% { opacity: 1; } } #slide7 { opacity: 0; animation: k7 24.0s linear infinite; } @keyframes k8 { 0%, 80.00% { opacity: 0; } 82.08%, 100% { opacity: 1; } } #slide8 { opacity: 0; animation: k8 24.0s linear infinite; } @keyframes k9 { 0%, 90.00% { opacity: 0; } 92.08%, 100% { opacity: 1; } } #slide9 { opacity: 0; animation: k9 24.0s linear infinite; }</style>
<g id="slide0"><rect width="960" height="540" fill="#FFFFFF"/>
<text x="32" y="56" font-size="24" font-family="'Rethink Sans','Segoe UI',sans-serif" fill="#222222" font-weight="600">Electrical holds 34 of 109 open items, the largest single backlog</text>
<rect x="208" y="128" width="648" height="32" fill="#008080"/>
<text x="192" y="144" font-size="13" font-family="'Poppins','Segoe UI',sans-serif" fill="#555555" font-weight="600" text-anchor="end" dominant-baseline="middle">Electrical</text>
<text x="864" y="144" font-size="13" font-family="'Poppins','Segoe UI',sans-serif" fill="#222222" font-weight="600" dominant-baseline="middle">34 items</text>
<rect x="208" y="176" width="533.65" height="32" fill="#B7DCDC"/>
<text x="192" y="192" font-size="13" font-family="'Poppins','Segoe UI',sans-serif" fill="#555555" font-weight="400" text-anchor="end" dominant-baseline="middle">Mechanical</text>
<text x="749.65" y="192" font-size="13" font-family="'Poppins','Segoe UI',sans-serif" fill="#222222" font-weight="400" dominant-baseline="middle">28</text>
<rect x="208" y="224" width="400.24" height="32" fill="#B7DCDC"/>
<text x="192" y="240" font-size="13" font-family="'Poppins','Segoe UI',sans-serif" fill="#555555" font-weight="400" text-anchor="end" dominant-baseline="middle">Piping</text>
<text x="616.24" y="240" font-size="13" font-family="'Poppins','Segoe UI',sans-serif" fill="#222222" font-weight="400" dominant-baseline="middle">21</text>
<rect x="208" y="272" width="324" height="32" fill="#B7DCDC"/>
<text x="192" y="288" font-size="13" font-family="'Poppins','Segoe UI',sans-serif" fill="#555555" font-weight="400" text-anchor="end" dominant-baseline="middle">Instrumentation</text>
<text x="540" y="288" font-size="13" font-family="'Poppins','Segoe UI',sans-serif" fill="#222222" font-weight="400" dominant-baseline="middle">17</text>
<rect x="208" y="320" width="171.53" height="32" fill="#B7DCDC"/>
<text x="192" y="336" font-size="13" font-family="'Poppins','Segoe UI',sans-serif" fill="#555555" font-weight="400" text-anchor="end" dominant-baseline="middle">Civil</text>
<text x="387.53" y="336" font-size="13" font-family="'Poppins','Segoe UI',sans-serif" fill="#222222" font-weight="400" dominant-baseline="middle">9</text>
<line x1="208" y1="120" x2="208" y2="360" stroke="#E2E8E8" stroke-width="1"/>
<text x="32" y="516" font-size="11" font-family="'Poppins','Segoe UI',sans-serif" fill="#555555" font-weight="400">Source: sample dataset v1, 2026-07-12</text>
</g>
<g id="slide1"><rect width="960" height="540" fill="#FFFFFF"/>
<text x="32" y="56" font-size="24" font-family="'Rethink Sans','Segoe UI',sans-serif" fill="#222222" font-weight="600">Cumulative progress reached 63% in August, 9 points behind plan</text>
<line x1="96" y1="452" x2="756" y2="452" stroke="#E2E8E8" stroke-width="1"/>
<text x="84" y="452" font-size="11" font-family="'Poppins','Segoe UI',sans-serif" fill="#555555" font-weight="400" text-anchor="end" dominant-baseline="middle">0</text>
<line x1="96" y1="371" x2="756" y2="371" stroke="#EAEAEA" stroke-width="1"/>
<text x="84" y="371" font-size="11" font-family="'Poppins','Segoe UI',sans-serif" fill="#555555" font-weight="400" text-anchor="end" dominant-baseline="middle">20</text>
<line x1="96" y1="290" x2="756" y2="290" stroke="#EAEAEA" stroke-width="1"/>
<text x="84" y="290" font-size="11" font-family="'Poppins','Segoe UI',sans-serif" fill="#555555" font-weight="400" text-anchor="end" dominant-baseline="middle">40</text>
<line x1="96" y1="209" x2="756" y2="209" stroke="#EAEAEA" stroke-width="1"/>
<text x="84" y="209" font-size="11" font-family="'Poppins','Segoe UI',sans-serif" fill="#555555" font-weight="400" text-anchor="end" dominant-baseline="middle">60</text>
<line x1="96" y1="128" x2="756" y2="128" stroke="#EAEAEA" stroke-width="1"/>
<text x="84" y="128" font-size="11" font-family="'Poppins','Segoe UI',sans-serif" fill="#555555" font-weight="400" text-anchor="end" dominant-baseline="middle">80%</text>
<text x="96" y="472" font-size="11" font-family="'Poppins','Segoe UI',sans-serif" fill="#555555" font-weight="400" text-anchor="middle">Jan</text>
<text x="190.29" y="472" font-size="11" font-family="'Poppins','Segoe UI',sans-serif" fill="#555555" font-weight="400" text-anchor="middle">Feb</text>
<text x="284.57" y="472" font-size="11" font-family="'Poppins','Segoe UI',sans-serif" fill="#555555" font-weight="400" text-anchor="middle">Mar</text>
<text x="378.86" y="472" font-size="11" font-family="'Poppins','Segoe UI',sans-serif" fill="#555555" font-weight="400" text-anchor="middle">Apr</text>
<text x="473.14" y="472" font-size="11" font-family="'Poppins','Segoe UI',sans-serif" fill="#555555" font-weight="400" text-anchor="middle">May</text>
<text x="567.43" y="472" font-size="11" font-family="'Poppins','Segoe UI',sans-serif" fill="#555555" font-weight="400" text-anchor="middle">Jun</text>
<text x="661.71" y="472" font-size="11" font-family="'Poppins','Segoe UI',sans-serif" fill="#555555" font-weight="400" text-anchor="middle">Jul</text>
<text x="756" y="472" font-size="11" font-family="'Poppins','Segoe UI',sans-serif" fill="#555555" font-weight="400" text-anchor="middle">Aug</text>
<polyline points="96,435.8 190.29,411.5 284.57,375.05 378.86,330.5 473.14,281.9 567.43,233.3 661.71,192.8 756,160.4" fill="none" stroke="#AAAAAA" stroke-width="2"/>
<text x="766" y="160.4" font-size="13" font-family="'Poppins','Segoe UI',sans-serif" fill="#555555" font-weight="400" dominant-baseline="middle">Plan</text>
<polyline points="96,439.85 190.29,419.6 284.57,387.2 378.86,346.7 473.14,306.2 567.43,265.7 661.71,229.25 756,196.85" fill="none" stroke="#008080" stroke-width="2.5"/>
<text x="766" y="196.85" font-size="13" font-family="'Poppins','Segoe UI',sans-serif" fill="#008080" font-weight="600" dominant-baseline="middle">Actual</text>
<line x1="567.43" y1="265.7" x2="524" y2="325" stroke="#555555" stroke-width="1"/>
<text x="520" y="330" font-size="12" font-family="'Poppins','Segoe UI',sans-serif" fill="#555555" font-weight="400" text-anchor="end" font-style="italic">slippage steady since May</text>
<text x="32" y="516" font-size="11" font-family="'Poppins','Segoe UI',sans-serif" fill="#555555" font-weight="400">Source: sample dataset v1, 2026-07-12</text>
</g>
<g id="slide2"><rect width="960" height="540" fill="#FFFFFF"/>
<text x="32" y="56" font-size="24" font-family="'Rethink Sans','Segoe UI',sans-serif" fill="#222222" font-weight="600">Forecast lands 18 points over budget; logistics drives two thirds of the overrun</text>
<rect x="105.33" y="199.74" width="56" height="232.26" fill="#222222"/>
<text x="133.33" y="191.74" font-size="13" font-family="'Poppins','Segoe UI',sans-serif" fill="#222222" font-weight="400" text-anchor="middle">100 pts</text>
<rect x="244" y="171.87" width="56" height="27.87" fill="#D63A2F"/>
<text x="272" y="163.87" font-size="13" font-family="'Poppins','Segoe UI',sans-serif" fill="#222222" font-weight="400" text-anchor="middle">+12</text>
<rect x="382.67" y="153.29" width="56" height="18.58" fill="#D63A2F"/>
<text x="410.67" y="145.29" font-size="13" font-family="'Poppins','Segoe UI',sans-serif" fill="#222222" font-weight="400" text-anchor="middle">+8</text>
<rect x="521.33" y="144" width="56" height="9.29" fill="#D63A2F"/>
<text x="549.33" y="136" font-size="13" font-family="'Poppins','Segoe UI',sans-serif" fill="#222222" font-weight="400" text-anchor="middle">+4</text>
<rect x="660" y="144" width="56" height="13.94" fill="#339966"/>
<text x="688" y="136" font-size="13" font-family="'Poppins','Segoe UI',sans-serif" fill="#222222" font-weight="400" text-anchor="middle">-6</text>
<rect x="798.67" y="157.94" width="56" height="274.06" fill="#222222"/>
<text x="826.67" y="149.94" font-size="13" font-family="'Poppins','Segoe UI',sans-serif" fill="#222222" font-weight="600" text-anchor="middle">118</text>
<line x1="161.33" y1="199.74" x2="244" y2="199.74" stroke="#E2E8E8" stroke-width="1" stroke-dasharray="4 3"/>
<line x1="300" y1="171.87" x2="382.67" y2="171.87" stroke="#E2E8E8" stroke-width="1" stroke-dasharray="4 3"/>
<line x1="438.67" y1="153.29" x2="521.33" y2="153.29" stroke="#E2E8E8" stroke-width="1" stroke-dasharray="4 3"/>
<line x1="577.33" y1="144" x2="660" y2="144" stroke="#E2E8E8" stroke-width="1" stroke-dasharray="4 3"/>
<line x1="716" y1="157.94" x2="798.67" y2="157.94" stroke="#E2E8E8" stroke-width="1" stroke-dasharray="4 3"/>
<text x="133.33" y="452" font-size="11" font-family="'Poppins','Segoe UI',sans-serif" fill="#555555" font-weight="400" text-anchor="middle">Budget</text>
<text x="272" y="452" font-size="11" font-family="'Poppins','Segoe UI',sans-serif" fill="#555555" font-weight="400" text-anchor="middle">Logistics</text>
<text x="410.67" y="452" font-size="11" font-family="'Poppins','Segoe UI',sans-serif" fill="#555555" font-weight="400" text-anchor="middle">Rework</text>
<text x="549.33" y="452" font-size="11" font-family="'Poppins','Segoe UI',sans-serif" fill="#555555" font-weight="400" text-anchor="middle">FX</text>
<text x="688" y="452" font-size="11" font-family="'Poppins','Segoe UI',sans-serif" fill="#555555" font-weight="400" text-anchor="middle">Scope savings</text>
<text x="826.67" y="452" font-size="11" font-family="'Poppins','Segoe UI',sans-serif" fill="#555555" font-weight="400" text-anchor="middle">Forecast</text>
<line x1="64" y1="432" x2="896" y2="432" stroke="#E2E8E8" stroke-width="1"/>
<text x="32" y="516" font-size="11" font-family="'Poppins','Segoe UI',sans-serif" fill="#555555" font-weight="400">Source: sample dataset v1, 2026-07-12</text>
</g>
<g id="slide3"><rect width="960" height="540" fill="#FFFFFF"/>
<text x="32" y="56" font-size="24" font-family="'Rethink Sans','Segoe UI',sans-serif" fill="#222222" font-weight="600">Casta moved from third to first in two quarters</text>
<text x="210" y="466" font-size="11" font-family="'Poppins','Segoe UI',sans-serif" fill="#555555" font-weight="400" text-anchor="middle">Q1</text>
<text x="390" y="466" font-size="11" font-family="'Poppins','Segoe UI',sans-serif" fill="#555555" font-weight="400" text-anchor="middle">Q2</text>
<text x="570" y="466" font-size="11" font-family="'Poppins','Segoe UI',sans-serif" fill="#555555" font-weight="400" text-anchor="middle">Q3</text>
<text x="750" y="466" font-size="11" font-family="'Poppins','Segoe UI',sans-serif" fill="#555555" font-weight="400" text-anchor="middle">Q4</text>
<polyline points="210,150 390,150 570,222.5 750,295" fill="none" stroke="#B7DCDC" stroke-width="2"/>
<circle cx="210" cy="150" r="5" fill="#B7DCDC"/>
<circle cx="390" cy="150" r="5" fill="#B7DCDC"/>
<circle cx="570" cy="222.5" r="5" fill="#B7DCDC"/>
<circle cx="750" cy="295" r="5" fill="#B7DCDC"/>
<text x="196" y="150" font-size="13" font-family="'Poppins','Segoe UI',sans-serif" fill="#555555" font-weight="400" text-anchor="end" dominant-baseline="middle">1. Alpha</text>
<text x="764" y="295" font-size="13" font-family="'Poppins','Segoe UI',sans-serif" fill="#555555" font-weight="400" dominant-baseline="middle">3. Alpha</text>
<polyline points="210,222.5 390,295 570,295 750,222.5" fill="none" stroke="#B7DCDC" stroke-width="2"/>
<circle cx="210" cy="222.5" r="5" fill="#B7DCDC"/>
<circle cx="390" cy="295" r="5" fill="#B7DCDC"/>
<circle cx="570" cy="295" r="5" fill="#B7DCDC"/>
<circle cx="750" cy="222.5" r="5" fill="#B7DCDC"/>
<text x="196" y="222.5" font-size="13" font-family="'Poppins','Segoe UI',sans-serif" fill="#555555" font-weight="400" text-anchor="end" dominant-baseline="middle">2. Bravo</text>
<text x="764" y="222.5" font-size="13" font-family="'Poppins','Segoe UI',sans-serif" fill="#555555" font-weight="400" dominant-baseline="middle">2. Bravo</text>
<polyline points="210,367.5 390,440 570,367.5 750,440" fill="none" stroke="#B7DCDC" stroke-width="2"/>
<circle cx="210" cy="367.5" r="5" fill="#B7DCDC"/>
<circle cx="390" cy="440" r="5" fill="#B7DCDC"/>
<circle cx="570" cy="367.5" r="5" fill="#B7DCDC"/>
<circle cx="750" cy="440" r="5" fill="#B7DCDC"/>
<text x="196" y="367.5" font-size="13" font-family="'Poppins','Segoe UI',sans-serif" fill="#555555" font-weight="400" text-anchor="end" dominant-baseline="middle">4. Delta</text>
<text x="764" y="440" font-size="13" font-family="'Poppins','Segoe UI',sans-serif" fill="#555555" font-weight="400" dominant-baseline="middle">5. Delta</text>
<polyline points="210,440 390,367.5 570,440 750,367.5" fill="none" stroke="#B7DCDC" stroke-width="2"/>
<circle cx="210" cy="440" r="5" fill="#B7DCDC"/>
<circle cx="390" cy="367.5" r="5" fill="#B7DCDC"/>
<circle cx="570" cy="440" r="5" fill="#B7DCDC"/>
<circle cx="750" cy="367.5" r="5" fill="#B7DCDC"/>
<text x="196" y="440" font-size="13" font-family="'Poppins','Segoe UI',sans-serif" fill="#555555" font-weight="400" text-anchor="end" dominant-baseline="middle">5. Echo</text>
<text x="764" y="367.5" font-size="13" font-family="'Poppins','Segoe UI',sans-serif" fill="#555555" font-weight="400" dominant-baseline="middle">4. Echo</text>
<polyline points="210,295 390,222.5 570,150 750,150" fill="none" stroke="#008080" stroke-width="3"/>
<circle cx="210" cy="295" r="5" fill="#008080"/>
<circle cx="390" cy="222.5" r="5" fill="#008080"/>
<circle cx="570" cy="150" r="5" fill="#008080"/>
<circle cx="750" cy="150" r="5" fill="#008080"/>
<text x="196" y="295" font-size="13" font-family="'Poppins','Segoe UI',sans-serif" fill="#008080" font-weight="600" text-anchor="end" dominant-baseline="middle">3. Casta</text>
<text x="764" y="150" font-size="13" font-family="'Poppins','Segoe UI',sans-serif" fill="#008080" font-weight="600" dominant-baseline="middle">1. Casta</text>
<text x="32" y="516" font-size="11" font-family="'Poppins','Segoe UI',sans-serif" fill="#555555" font-weight="400">Source: supplier scorecards, Q4</text>
</g>
<g id="slide4"><rect width="960" height="540" fill="#FFFFFF"/>
<text x="32" y="56" font-size="24" font-family="'Rethink Sans','Segoe UI',sans-serif" fill="#222222" font-weight="600">Docs on time misses target by 14 points; deliveries close the gap</text>
<rect x="208" y="155" width="355.2" height="20" fill="#F0F0F0"/>
<rect x="563.2" y="155" width="148" height="20" fill="#E0E0E0"/>
<rect x="711.2" y="155" width="88.8" height="20" fill="#D1D1D1"/>
<rect x="208" y="161" width="515.04" height="8" fill="#222222"/>
<line x1="770.4" y1="155" x2="770.4" y2="175" stroke="#D63A2F" stroke-width="2.5"/>
<text x="192" y="165" font-size="13" font-family="'Poppins','Segoe UI',sans-serif" fill="#555555" font-weight="400" text-anchor="end" dominant-baseline="middle">Delivery OTD</text>
<text x="812" y="165" font-size="12" font-family="'Poppins','Segoe UI',sans-serif" fill="#222222" font-weight="400" dominant-baseline="middle">87 %</text>
<rect x="208" y="211" width="414.4" height="20" fill="#F0F0F0"/>
<rect x="622.4" y="211" width="118.4" height="20" fill="#E0E0E0"/>
<rect x="740.8" y="211" width="59.2" height="20" fill="#D1D1D1"/>
<rect x="208" y="217" width="544.64" height="8" fill="#222222"/>
<line x1="740.8" y1="211" x2="740.8" y2="231" stroke="#D63A2F" stroke-width="2.5"/>
<text x="192" y="221" font-size="13" font-family="'Poppins','Segoe UI',sans-serif" fill="#555555" font-weight="400" text-anchor="end" dominant-baseline="middle">Test pass rate</text>
<text x="812" y="221" font-size="12" font-family="'Poppins','Segoe UI',sans-serif" fill="#222222" font-weight="400" dominant-baseline="middle">92</text>
<rect x="208" y="267" width="296" height="20" fill="#F0F0F0"/>
<rect x="504" y="267" width="177.6" height="20" fill="#E0E0E0"/>
<rect x="681.6" y="267" width="118.4" height="20" fill="#D1D1D1"/>
<rect x="208" y="273" width="420.32" height="8" fill="#222222"/>
<line x1="711.2" y1="267" x2="711.2" y2="287" stroke="#D63A2F" stroke-width="2.5"/>
<text x="192" y="277" font-size="13" font-family="'Poppins','Segoe UI',sans-serif" fill="#555555" font-weight="400" text-anchor="end" dominant-baseline="middle">Docs on time</text>
<text x="812" y="277" font-size="12" font-family="'Poppins','Segoe UI',sans-serif" fill="#222222" font-weight="400" dominant-baseline="middle">71</text>
<text x="32" y="516" font-size="11" font-family="'Poppins','Segoe UI',sans-serif" fill="#555555" font-weight="400">Source: sample dataset v1, 2026-07-12</text>
</g>
<g id="slide5"><rect width="960" height="540" fill="#FFFFFF"/>
<text x="32" y="56" font-size="24" font-family="'Rethink Sans','Segoe UI',sans-serif" fill="#222222" font-weight="600">One lot sits at 62 days, twice the next slowest</text>
<circle cx="172.5" cy="300" r="6" fill="#B7DCDC"/>
<circle cx="181.25" cy="287" r="6" fill="#B7DCDC"/>
<circle cx="190" cy="300" r="6" fill="#B7DCDC"/>
<circle cx="198.75" cy="287" r="6" fill="#B7DCDC"/>
<circle cx="198.75" cy="313" r="6" fill="#B7DCDC"/>
<circle cx="207.5" cy="300" r="6" fill="#B7DCDC"/>
<circle cx="216.25" cy="287" r="6" fill="#B7DCDC"/>
<circle cx="225" cy="300" r="6" fill="#B7DCDC"/>
<circle cx="225" cy="313" r="6" fill="#B7DCDC"/>
<circle cx="233.75" cy="287" r="6" fill="#B7DCDC"/>
<circle cx="242.5" cy="300" r="6" fill="#B7DCDC"/>
<circle cx="251.25" cy="287" r="6" fill="#B7DCDC"/>
<circle cx="251.25" cy="313" r="6" fill="#B7DCDC"/>
<circle cx="260" cy="300" r="6" fill="#B7DCDC"/>
<circle cx="268.75" cy="287" r="6" fill="#B7DCDC"/>
<circle cx="277.5" cy="300" r="6" fill="#B7DCDC"/>
<circle cx="286.25" cy="287" r="6" fill="#B7DCDC"/>
<circle cx="303.75" cy="300" r="6" fill="#B7DCDC"/>
<circle cx="312.5" cy="287" r="6" fill="#B7DCDC"/>
<circle cx="330" cy="300" r="6" fill="#B7DCDC"/>
<circle cx="347.5" cy="300" r="6" fill="#B7DCDC"/>
<circle cx="373.75" cy="300" r="6" fill="#B7DCDC"/>
<circle cx="408.75" cy="300" r="6" fill="#B7DCDC"/>
<circle cx="540" cy="300" r="6" fill="#B7DCDC"/>
<circle cx="662.5" cy="300" r="6" fill="#008080"/>
<text x="662.5" y="286" font-size="12" font-family="'Poppins','Segoe UI',sans-serif" fill="#222222" font-weight="600" text-anchor="middle">Lot 88  62 days</text>
<line x1="120" y1="430" x2="820" y2="430" stroke="#222222" stroke-width="1"/>
<line x1="120" y1="430" x2="120" y2="434" stroke="#222222" stroke-width="1"/>
<text x="120" y="448" font-size="11" font-family="'Poppins','Segoe UI',sans-serif" fill="#555555" font-weight="400" text-anchor="middle">0</text>
<line x1="295" y1="430" x2="295" y2="434" stroke="#222222" stroke-width="1"/>
<text x="295" y="448" font-size="11" font-family="'Poppins','Segoe UI',sans-serif" fill="#555555" font-weight="400" text-anchor="middle">20</text>
<line x1="470" y1="430" x2="470" y2="434" stroke="#222222" stroke-width="1"/>
<text x="470" y="448" font-size="11" font-family="'Poppins','Segoe UI',sans-serif" fill="#555555" font-weight="400" text-anchor="middle">40</text>
<line x1="645" y1="430" x2="645" y2="434" stroke="#222222" stroke-width="1"/>
<text x="645" y="448" font-size="11" font-family="'Poppins','Segoe UI',sans-serif" fill="#555555" font-weight="400" text-anchor="middle">60</text>
<line x1="820" y1="430" x2="820" y2="434" stroke="#222222" stroke-width="1"/>
<text x="820" y="448" font-size="11" font-family="'Poppins','Segoe UI',sans-serif" fill="#555555" font-weight="400" text-anchor="middle">80days</text>
<text x="32" y="516" font-size="11" font-family="'Poppins','Segoe UI',sans-serif" fill="#555555" font-weight="400">Source: customs log, wk 28</text>
</g>
<g id="slide6"><rect width="960" height="540" fill="#FFFFFF"/>
<text x="32" y="56" font-size="24" font-family="'Rethink Sans','Segoe UI',sans-serif" fill="#222222" font-weight="600">Road carries 70 of 130 loads; barge stays marginal</text>
<path d="M 224,172 C 454.4,172 505.6,172 736,172" fill="none" stroke="#008080" stroke-width="84" stroke-opacity="0.35"/>
<path d="M 224,244 C 454.4,244 505.6,342 736,342" fill="none" stroke="#008080" stroke-width="60" stroke-opacity="0.35"/>
<path d="M 224,318 C 454.4,318 505.6,244 736,244" fill="none" stroke="#008080" stroke-width="60" stroke-opacity="0.35"/>
<path d="M 224,366 C 454.4,366 505.6,440 736,440" fill="none" stroke="#008080" stroke-width="36" stroke-opacity="0.35"/>
<path d="M 224,410 C 454.4,410 505.6,286 736,286" fill="none" stroke="#008080" stroke-width="24" stroke-opacity="0.35"/>
<path d="M 224,440 C 454.4,440 505.6,390 736,390" fill="none" stroke="#008080" stroke-width="36" stroke-opacity="0.35"/>
<path d="M 224,464 C 454.4,464 505.6,464 736,464" fill="none" stroke="#008080" stroke-width="12" stroke-opacity="0.35"/>
<rect x="210" y="130" width="14" height="144" fill="#222222"/>
<text x="202" y="202" font-size="12" font-family="'Poppins','Segoe UI',sans-serif" fill="#555555" font-weight="400" text-anchor="end" dominant-baseline="middle">Supplier A  60 loads</text>
<rect x="210" y="288" width="14" height="96" fill="#222222"/>
<text x="202" y="336" font-size="12" font-family="'Poppins','Segoe UI',sans-serif" fill="#555555" font-weight="400" text-anchor="end" dominant-baseline="middle">Supplier B  40</text>
<rect x="210" y="398" width="14" height="72" fill="#222222"/>
<text x="202" y="434" font-size="12" font-family="'Poppins','Segoe UI',sans-serif" fill="#555555" font-weight="400" text-anchor="end" dominant-baseline="middle">Supplier C  30</text>
<rect x="736" y="130" width="14" height="168" fill="#222222"/>
<text x="758" y="214" font-size="12" font-family="'Poppins','Segoe UI',sans-serif" fill="#555555" font-weight="400" dominant-baseline="middle">Road  70</text>
<rect x="736" y="312" width="14" height="96" fill="#222222"/>
<text x="758" y="360" font-size="12" font-family="'Poppins','Segoe UI',sans-serif" fill="#555555" font-weight="400" dominant-baseline="middle">Rail  40</text>
<rect x="736" y="422" width="14" height="48" fill="#222222"/>
<text x="758" y="446" font-size="12" font-family="'Poppins','Segoe UI',sans-serif" fill="#555555" font-weight="400" dominant-baseline="middle">Barge  20</text>
<text x="32" y="516" font-size="11" font-family="'Poppins','Segoe UI',sans-serif" fill="#555555" font-weight="400">Source: sample dataset v1, 2026-07-12</text>
</g>
<g id="slide7"><rect width="960" height="540" fill="#FFFFFF"/>
<text x="32" y="56" font-size="24" font-family="'Rethink Sans','Segoe UI',sans-serif" fill="#222222" font-weight="600">Two of five KPIs move the wrong way this week</text>
<text x="460" y="136" font-size="11" font-family="'Poppins','Segoe UI',sans-serif" fill="#555555" font-weight="600" text-anchor="end" letter-spacing="1">VALUE</text>
<text x="580" y="136" font-size="11" font-family="'Poppins','Segoe UI',sans-serif" fill="#555555" font-weight="600" text-anchor="end" letter-spacing="1">VS LAST WEEK</text>
<text x="640" y="136" font-size="11" font-family="'Poppins','Segoe UI',sans-serif" fill="#555555" font-weight="600" letter-spacing="1">7-WEEK TREND</text>
<line x1="48" y1="150" x2="840" y2="150" stroke="#E2E8E8" stroke-width="1"/>
<text x="48" y="172" font-size="13" font-family="'Poppins','Segoe UI',sans-serif" fill="#222222" font-weight="600" dominant-baseline="middle">Delivery OTD</text>
<text x="460" y="172" font-size="16" font-family="'Poppins','Segoe UI',sans-serif" fill="#222222" font-weight="600" text-anchor="end" dominant-baseline="middle">87 %</text>
<text x="580" y="172" font-size="13" font-family="'Poppins','Segoe UI',sans-serif" fill="#339966" font-weight="600" text-anchor="end" dominant-baseline="middle">+2</text>
<polyline points="640,183 670,178.11 700,180.56 730,173.22 760,168.33 790,165.89 820,161" fill="none" stroke="#B7DCDC" stroke-width="1.5"/>
<circle cx="820" cy="161" r="3.5" fill="#008080"/>
<line x1="48" y1="194" x2="840" y2="194" stroke="#E2E8E8" stroke-width="1"/>
<text x="48" y="216" font-size="13" font-family="'Poppins','Segoe UI',sans-serif" fill="#222222" font-weight="600" dominant-baseline="middle">Test pass rate</text>
<text x="460" y="216" font-size="16" font-family="'Poppins','Segoe UI',sans-serif" fill="#222222" font-weight="600" text-anchor="end" dominant-baseline="middle">92 %</text>
<text x="580" y="216" font-size="13" font-family="'Poppins','Segoe UI',sans-serif" fill="#222222" font-weight="600" text-anchor="end" dominant-baseline="middle">0</text>
<polyline points="640,227 670,216 700,221.5 730,210.5 760,210.5 790,205 820,205" fill="none" stroke="#B7DCDC" stroke-width="1.5"/>
<circle cx="820" cy="205" r="3.5" fill="#008080"/>
<line x1="48" y1="238" x2="840" y2="238" stroke="#E2E8E8" stroke-width="1"/>
<text x="48" y="260" font-size="13" font-family="'Poppins','Segoe UI',sans-serif" fill="#222222" font-weight="600" dominant-baseline="middle">Docs on time</text>
<text x="460" y="260" font-size="16" font-family="'Poppins','Segoe UI',sans-serif" fill="#222222" font-weight="600" text-anchor="end" dominant-baseline="middle">71 %</text>
<text x="580" y="260" font-size="13" font-family="'Poppins','Segoe UI',sans-serif" fill="#D63A2F" font-weight="600" text-anchor="end" dominant-baseline="middle">-1</text>
<polyline points="640,249 670,251.44 700,256.33 730,258.78 760,263.67 790,268.56 820,271" fill="none" stroke="#B7DCDC" stroke-width="1.5"/>
<circle cx="820" cy="271" r="3.5" fill="#008080"/>
<line x1="48" y1="282" x2="840" y2="282" stroke="#E2E8E8" stroke-width="1"/>
<text x="48" y="304" font-size="13" font-family="'Poppins','Segoe UI',sans-serif" fill="#222222" font-weight="600" dominant-baseline="middle">Open punch</text>
<text x="460" y="304" font-size="16" font-family="'Poppins','Segoe UI',sans-serif" fill="#222222" font-weight="600" text-anchor="end" dominant-baseline="middle">213 items</text>
<text x="580" y="304" font-size="13" font-family="'Poppins','Segoe UI',sans-serif" fill="#339966" font-weight="600" text-anchor="end" dominant-baseline="middle">-8</text>
<polyline points="640,293 670,297.68 700,300.49 730,303.3 760,307.04 790,311.26 820,315" fill="none" stroke="#B7DCDC" stroke-width="1.5"/>
<circle cx="820" cy="315" r="3.5" fill="#008080"/>
<line x1="48" y1="326" x2="840" y2="326" stroke="#E2E8E8" stroke-width="1"/>
<text x="48" y="348" font-size="13" font-family="'Poppins','Segoe UI',sans-serif" fill="#222222" font-weight="600" dominant-baseline="middle">Stock cover</text>
<text x="460" y="348" font-size="16" font-family="'Poppins','Segoe UI',sans-serif" fill="#222222" font-weight="600" text-anchor="end" dominant-baseline="middle">41 days</text>
<text x="580" y="348" font-size="13" font-family="'Poppins','Segoe UI',sans-serif" fill="#222222" font-weight="600" text-anchor="end" dominant-baseline="middle">0</text>
<polyline points="640,337 670,337 700,342.74 730,342.74 760,351.35 790,359 820,359" fill="none" stroke="#B7DCDC" stroke-width="1.5"/>
<circle cx="820" cy="359" r="3.5" fill="#008080"/>
<line x1="48" y1="370" x2="840" y2="370" stroke="#E2E8E8" stroke-width="1"/>
<text x="32" y="516" font-size="11" font-family="'Poppins','Segoe UI',sans-serif" fill="#555555" font-weight="400">Source: sample dataset v1, 2026-07-12</text>
</g>
<g id="slide8"><rect width="960" height="540" fill="#FFFFFF"/>
<text x="32" y="56" font-size="24" font-family="'Rethink Sans','Segoe UI',sans-serif" fill="#222222" font-weight="600">Output ran 8% under plan at the June trough</text>
<line x1="110" y1="440" x2="820" y2="440" stroke="#EAEAEA" stroke-width="1"/>
<text x="98" y="440" font-size="11" font-family="'Poppins','Segoe UI',sans-serif" fill="#555555" font-weight="400" text-anchor="end" dominant-baseline="middle">-15</text>
<line x1="110" y1="391.67" x2="820" y2="391.67" stroke="#EAEAEA" stroke-width="1"/>
<text x="98" y="391.67" font-size="11" font-family="'Poppins','Segoe UI',sans-serif" fill="#555555" font-weight="400" text-anchor="end" dominant-baseline="middle">-10</text>
<line x1="110" y1="343.33" x2="820" y2="343.33" stroke="#EAEAEA" stroke-width="1"/>
<text x="98" y="343.33" font-size="11" font-family="'Poppins','Segoe UI',sans-serif" fill="#555555" font-weight="400" text-anchor="end" dominant-baseline="middle">-5</text>
<line x1="110" y1="246.67" x2="820" y2="246.67" stroke="#EAEAEA" stroke-width="1"/>
<text x="98" y="246.67" font-size="11" font-family="'Poppins','Segoe UI',sans-serif" fill="#555555" font-weight="400" text-anchor="end" dominant-baseline="middle">+5</text>
<line x1="110" y1="198.33" x2="820" y2="198.33" stroke="#EAEAEA" stroke-width="1"/>
<text x="98" y="198.33" font-size="11" font-family="'Poppins','Segoe UI',sans-serif" fill="#555555" font-weight="400" text-anchor="end" dominant-baseline="middle">+10</text>
<line x1="110" y1="150" x2="820" y2="150" stroke="#EAEAEA" stroke-width="1"/>
<text x="98" y="150" font-size="11" font-family="'Poppins','Segoe UI',sans-serif" fill="#555555" font-weight="400" text-anchor="end" dominant-baseline="middle">+15%</text>
<polygon points="110,295 110,256.33 174.55,227.33 239.09,246.67 303.64,275.67 329.45,295 368.18,295 432.73,295 497.27,295 561.82,295 577.95,295 626.36,266 690.91,237 755.45,208 820,179 820,295" fill="#339966" fill-opacity="0.75"/>
<polygon points="110,295 110,295 174.55,295 239.09,295 303.64,295 329.45,295 368.18,324 432.73,372.33 497.27,343.33 561.82,304.67 577.95,295 626.36,295 690.91,295 755.45,295 820,295 820,295" fill="#D63A2F" fill-opacity="0.75"/>
<polyline points="110,256.33 174.55,227.33 239.09,246.67 303.64,275.67 329.45,295 368.18,324 432.73,372.33 497.27,343.33 561.82,304.67 577.95,295 626.36,266 690.91,237 755.45,208 820,179" fill="none" stroke="#222222" stroke-width="2"/>
<line x1="110" y1="295" x2="820" y2="295" stroke="#222222" stroke-width="1.5"/>
<text x="110" y="462" font-size="11" font-family="'Poppins','Segoe UI',sans-serif" fill="#555555" font-weight="400" text-anchor="middle">Jan</text>
<text x="174.55" y="462" font-size="11" font-family="'Poppins','Segoe UI',sans-serif" fill="#555555" font-weight="400" text-anchor="middle">Feb</text>
<text x="239.09" y="462" font-size="11" font-family="'Poppins','Segoe UI',sans-serif" fill="#555555" font-weight="400" text-anchor="middle">Mar</text>
<text x="303.64" y="462" font-size="11" font-family="'Poppins','Segoe UI',sans-serif" fill="#555555" font-weight="400" text-anchor="middle">Apr</text>
<text x="368.18" y="462" font-size="11" font-family="'Poppins','Segoe UI',sans-serif" fill="#555555" font-weight="400" text-anchor="middle">May</text>
<text x="432.73" y="462" font-size="11" font-family="'Poppins','Segoe UI',sans-serif" fill="#555555" font-weight="400" text-anchor="middle">Jun</text>
<text x="497.27" y="462" font-size="11" font-family="'Poppins','Segoe UI',sans-serif" fill="#555555" font-weight="400" text-anchor="middle">Jul</text>
<text x="561.82" y="462" font-size="11" font-family="'Poppins','Segoe UI',sans-serif" fill="#555555" font-weight="400" text-anchor="middle">Aug</text>
<text x="626.36" y="462" font-size="11" font-family="'Poppins','Segoe UI',sans-serif" fill="#555555" font-weight="400" text-anchor="middle">Sep</text>
<text x="690.91" y="462" font-size="11" font-family="'Poppins','Segoe UI',sans-serif" fill="#555555" font-weight="400" text-anchor="middle">Oct</text>
<text x="755.45" y="462" font-size="11" font-family="'Poppins','Segoe UI',sans-serif" fill="#555555" font-weight="400" text-anchor="middle">Nov</text>
<text x="820" y="462" font-size="11" font-family="'Poppins','Segoe UI',sans-serif" fill="#555555" font-weight="400" text-anchor="middle">Dec</text>
<text x="32" y="516" font-size="11" font-family="'Poppins','Segoe UI',sans-serif" fill="#555555" font-weight="400">Source: production ledger, Dec</text>
</g>
<g id="slide9"><rect width="960" height="540" fill="#FFFFFF"/>
<text x="32" y="56" font-size="24" font-family="'Rethink Sans','Segoe UI',sans-serif" fill="#222222" font-weight="600">The corridor is 55% complete, past the river crossing</text>
<polyline points="138,402 252,334 388.8,306.8 518,283 632,249 746,198" fill="none" stroke="#E2E8E8" stroke-width="5"/>
<polyline points="138,402 252,334 388.8,306.8 471.29,291.61" fill="none" stroke="#008080" stroke-width="5"/>
<circle cx="138" cy="402" r="6" fill="#008080"/>
<text x="138" y="386" font-size="12" font-family="'Poppins','Segoe UI',sans-serif" fill="#555555" font-weight="400" text-anchor="middle">Start terminal</text>
<circle cx="261.51" cy="332.11" r="6" fill="#008080"/>
<text x="261.51" y="354.11" font-size="12" font-family="'Poppins','Segoe UI',sans-serif" fill="#555555" font-weight="400" text-anchor="middle">Pump station 1</text>
<circle cx="426.72" cy="299.82" r="6" fill="#008080"/>
<text x="426.72" y="283.82" font-size="12" font-family="'Poppins','Segoe UI',sans-serif" fill="#555555" font-weight="400" text-anchor="middle">River crossing</text>
<path d="M 471.29,282.61 L 480.29,291.61 L 471.29,300.61 L 462.29,291.61 Z" fill="#D63A2F"/>
<text x="471.29" y="313.61" font-size="12" font-family="'Poppins','Segoe UI',sans-serif" fill="#555555" font-weight="600" text-anchor="middle">Hill section</text>
<circle cx="596.57" cy="259.57" r="6" fill="#B7DCDC"/>
<text x="596.57" y="243.57" font-size="12" font-family="'Poppins','Segoe UI',sans-serif" fill="#555555" font-weight="400" text-anchor="middle">Pump station 2</text>
<circle cx="746" cy="198" r="6" fill="#B7DCDC"/>
<text x="746" y="220" font-size="12" font-family="'Poppins','Segoe UI',sans-serif" fill="#555555" font-weight="400" text-anchor="middle">End terminal</text>
<text x="481.29" y="281.61" font-size="12" font-family="'Poppins','Segoe UI',sans-serif" fill="#008080" font-weight="600">55% complete</text>
<text x="32" y="516" font-size="11" font-family="'Poppins','Segoe UI',sans-serif" fill="#555555" font-weight="400">Source: sample dataset v1, 2026-07-12</text>
</g>
</svg>
