<svg xmlns="http://www.w3.org/2000/svg" width="1280" height="720" viewBox="0 0 1280 720">
<rect width="1280" height="720" fill="#FFFFFF"/>
<rect x="48" y="36" width="1184" height="52" fill="#FFFFFF"/>
<rect x="48" y="86" width="1184" height="2" fill="#D63A2F"/>
<text x="64" y="69" font-size="18" font-family="'Segoe UI',Arial,sans-serif" fill="#0F172A" font-weight="700">Morning exception flash</text>
<text x="1216" y="69" font-size="10" font-family="'Segoe UI',Arial,sans-serif" fill="#475569" font-weight="600" text-anchor="end" letter-spacing="1">07:00 . WEEK 28</text>
<text x="48" y="150" font-size="28" font-family="'Segoe UI',Arial,sans-serif" fill="#0F172A" font-weight="700">Docs on-time missed target by 14 points</text>
<svg x="48" y="190" width="700" height="140" viewBox="0 124 960 192">
<rect width="960" height="540" fill="#FFFFFF"/>
<rect x="208" y="155" width="355.2" height="20" fill="#EEEFF0"/>
<rect x="563.2" y="155" width="148" height="20" fill="#DDDFE1"/>
<rect x="711.2" y="155" width="88.8" height="20" fill="#CDCED2"/>
<rect x="208" y="161" width="515.04" height="8" fill="#0F172A"/>
<line x1="770.4" y1="155" x2="770.4" y2="175" stroke="#D63A2F" stroke-width="2.5"/>
<text x="192" y="165" font-size="14" font-family="'Segoe UI',Arial,sans-serif" fill="#475569" font-weight="400" text-anchor="end" dominant-baseline="middle">Delivery OTD</text>
<text x="812" y="165" font-size="13" font-family="'Segoe UI',Arial,sans-serif" fill="#0F172A" font-weight="400" dominant-baseline="middle">87 %</text>
<rect x="208" y="211" width="414.4" height="20" fill="#EEEFF0"/>
<rect x="622.4" y="211" width="118.4" height="20" fill="#DDDFE1"/>
<rect x="740.8" y="211" width="59.2" height="20" fill="#CDCED2"/>
<rect x="208" y="217" width="544.64" height="8" fill="#0F172A"/>
<line x1="740.8" y1="211" x2="740.8" y2="231" stroke="#D63A2F" stroke-width="2.5"/>
<text x="192" y="221" font-size="14" font-family="'Segoe UI',Arial,sans-serif" fill="#475569" font-weight="400" text-anchor="end" dominant-baseline="middle">Test pass rate</text>
<text x="812" y="221" font-size="13" font-family="'Segoe UI',Arial,sans-serif" fill="#0F172A" font-weight="400" dominant-baseline="middle">92</text>
<rect x="208" y="267" width="296" height="20" fill="#EEEFF0"/>
<rect x="504" y="267" width="177.6" height="20" fill="#DDDFE1"/>
<rect x="681.6" y="267" width="118.4" height="20" fill="#CDCED2"/>
<rect x="208" y="273" width="420.32" height="8" fill="#0F172A"/>
<line x1="711.2" y1="267" x2="711.2" y2="287" stroke="#D63A2F" stroke-width="2.5"/>
<text x="192" y="277" font-size="14" font-family="'Segoe UI',Arial,sans-serif" fill="#475569" font-weight="400" text-anchor="end" dominant-baseline="middle">Docs on time</text>
<text x="812" y="277" font-size="13" font-family="'Segoe UI',Arial,sans-serif" fill="#0F172A" font-weight="400" dominant-baseline="middle">71</text>
</svg>
<rect x="48" y="380" width="700" height="36" fill="#FFFFFF" stroke="#E2E8F0" stroke-width="1"/>
<rect x="48" y="380" width="4" height="36" fill="#D63A2F"/>
<circle cx="62" cy="398" r="4" fill="#D63A2F"/>
<text x="76" y="398" font-size="13" font-family="'Segoe UI',Arial,sans-serif" fill="#0F172A" font-weight="600" dominant-baseline="middle">Docs on time at 71%, target 85%</text>
<text x="734" y="398" font-size="10" font-family="'Segoe UI',Arial,sans-serif" fill="#475569" font-weight="600" text-anchor="end" dominant-baseline="middle" letter-spacing="1">DOC CONTROL . 12:00</text>
<rect x="48" y="424" width="700" height="36" fill="#FFFFFF" stroke="#E2E8F0" stroke-width="1"/>
<rect x="48" y="424" width="4" height="36" fill="#D63A2F"/>
<circle cx="62" cy="442" r="4" fill="#D63A2F"/>
<text x="76" y="442" font-size="13" font-family="'Segoe UI',Arial,sans-serif" fill="#0F172A" font-weight="600" dominant-baseline="middle">Delivery OTD at 87%, target 95%</text>
<text x="734" y="442" font-size="10" font-family="'Segoe UI',Arial,sans-serif" fill="#475569" font-weight="600" text-anchor="end" dominant-baseline="middle" letter-spacing="1">LOGISTICS . 17:00</text>
<rect x="790" y="190" width="442" height="72" fill="#FFFFFF" stroke="#E2E8F0" stroke-width="1"/>
<rect x="790" y="190" width="4" height="72" fill="#D63A2F"/>
<text x="806" y="211" font-size="12" font-family="'Segoe UI',Arial,sans-serif" fill="#0F172A" font-weight="600">Escalated 07:00.</text>
<text x="806" y="229" font-size="12" font-family="'Segoe UI',Arial,sans-serif" fill="#475569" font-weight="400">Responses due at the hours named;</text>
<text x="806" y="247" font-size="12" font-family="'Segoe UI',Arial,sans-serif" fill="#475569" font-weight="400">escalate to PMO at 14:00.</text>
<rect x="790" y="300" width="200" height="40" fill="none" stroke="#D63A2F" stroke-width="2"/>
<rect x="794" y="304" width="192" height="32" fill="none" stroke="#D63A2F" stroke-width="1"/>
<text x="890" y="320" font-size="13" font-family="'Segoe UI',Arial,sans-serif" fill="#D63A2F" font-weight="600" text-anchor="middle" dominant-baseline="middle" letter-spacing="3">ESCALATED</text>
<text x="48" y="688" font-size="11" font-family="'Segoe UI',Arial,sans-serif" fill="#475569" font-weight="400">Source: sample dataset v1, 2026-07-12 . told as NR-04 exception flash</text>
</svg>
